<svg width="726" height="694" viewBox="0 0 726 694" fill="none" xmlns="http://www.w3.org/2000/svg">
<path d="M539.415 693.988L505.413 693.988C503.204 693.988 501.413 692.197 501.413 689.988L501.413 655.982C501.413 653.773 503.204 651.982 505.413 651.982L539.415 651.982C541.624 651.982 543.415 653.773 543.415 655.982L543.415 689.988C543.415 692.197 541.624 693.988 539.415 693.988Z" fill="#586069"/>
<path d="M493.944 647.408L459.942 647.408C457.733 647.408 455.942 645.617 455.942 643.408L455.942 609.402C455.942 607.193 457.733 605.402 459.942 605.402L493.944 605.402C496.153 605.402 497.944 607.193 497.944 609.402L497.944 643.408C497.944 645.617 496.153 647.408 493.944 647.408Z" fill="#586069"/>
<path d="M539.415 554.248L505.413 554.248C503.204 554.248 501.413 552.457 501.413 550.248L501.413 516.242C501.413 514.033 503.204 512.242 505.413 512.242L539.415 512.242C541.624 512.242 543.415 514.033 543.415 516.242L543.415 550.248C543.415 552.457 541.624 554.248 539.415 554.248Z" fill="#959DA5"/>
<path d="M448.473 42.0056L414.471 42.0056C412.262 42.0056 410.471 40.2147 410.471 38.0055L410.471 4.00001C410.471 1.79087 412.262 7.49106e-06 414.471 7.32041e-06L448.473 4.69392e-06C450.682 4.52327e-06 452.473 1.79087 452.473 4.00001L452.473 38.0056C452.473 40.2147 450.682 42.0056 448.473 42.0056Z" fill="#E1E4E8"/>
<path d="M539.415 42.0056L505.413 42.0056C503.204 42.0056 501.413 40.2147 501.413 38.0055L501.413 4.00001C501.413 1.79087 503.204 7.49106e-06 505.413 7.32041e-06L539.415 4.69392e-06C541.624 4.52327e-06 543.415 1.79087 543.415 4.00001L543.415 38.0056C543.415 40.2147 541.624 42.0056 539.415 42.0056Z" fill="#444D56"/>
<path d="M584.886 42.0056L550.884 42.0056C548.675 42.0056 546.884 40.2147 546.884 38.0055L546.884 4.00001C546.884 1.79087 548.675 7.49106e-06 550.884 7.32041e-06L584.886 4.69392e-06C587.095 4.52327e-06 588.886 1.79087 588.886 4.00001L588.886 38.0056C588.886 40.2147 587.095 42.0056 584.886 42.0056Z" fill="#2F363D"/>
<path d="M675.828 600.828L641.826 600.828C639.617 600.828 637.826 599.037 637.826 596.828L637.826 562.822C637.826 560.613 639.617 558.822 641.826 558.822L675.828 558.822C678.037 558.822 679.828 560.613 679.828 562.822L679.828 596.828C679.828 599.037 678.037 600.828 675.828 600.828Z" fill="#F6F8FA"/>
<path d="M448.473 600.828L414.471 600.828C412.262 600.828 410.471 599.037 410.471 596.828L410.471 562.822C410.471 560.613 412.262 558.822 414.471 558.822L448.473 558.822C450.682 558.822 452.473 560.613 452.473 562.822L452.473 596.828C452.473 599.037 450.682 600.828 448.473 600.828Z" fill="#2F363D"/>
<path d="M539.415 600.828L505.413 600.828C503.204 600.828 501.413 599.037 501.413 596.828L501.413 562.822C501.413 560.613 503.204 558.822 505.413 558.822L539.415 558.822C541.624 558.822 543.415 560.613 543.415 562.822L543.415 596.828C543.415 599.037 541.624 600.828 539.415 600.828Z" fill="#24292E"/>
<path d="M630.357 367.928L596.355 367.928C594.146 367.928 592.355 366.137 592.355 363.928L592.355 329.922C592.355 327.713 594.146 325.922 596.355 325.922L630.357 325.922C632.566 325.922 634.357 327.713 634.357 329.922L634.357 363.928C634.357 366.137 632.566 367.928 630.357 367.928Z" fill="#586069"/>
<path d="M448.473 367.928L414.471 367.928C412.262 367.928 410.471 366.137 410.471 363.928L410.471 329.922C410.471 327.713 412.262 325.922 414.471 325.922L448.473 325.922C450.682 325.922 452.473 327.713 452.473 329.922L452.473 363.928C452.473 366.137 450.682 367.928 448.473 367.928Z" fill="#F6F8FA"/>
<path d="M493.944 367.928L459.942 367.928C457.733 367.928 455.942 366.137 455.942 363.928L455.942 329.922C455.942 327.713 457.733 325.922 459.942 325.922L493.944 325.922C496.153 325.922 497.944 327.713 497.944 329.922L497.944 363.928C497.944 366.137 496.153 367.928 493.944 367.928Z" fill="#FAFBFC"/>
<path d="M539.415 367.928L505.413 367.928C503.204 367.928 501.413 366.137 501.413 363.928L501.413 329.922C501.413 327.713 503.204 325.922 505.413 325.922L539.415 325.922C541.624 325.922 543.415 327.713 543.415 329.922L543.415 363.928C543.415 366.137 541.624 367.928 539.415 367.928Z" fill="#FAFBFC"/>
<path d="M721.299 88.4474L687.297 88.4474C685.088 88.4474 683.297 86.6566 683.297 84.4475L683.297 50.442C683.297 48.2328 685.088 46.442 687.297 46.442L721.299 46.442C723.508 46.442 725.299 48.2328 725.299 50.442L725.299 84.4474C725.299 86.6566 723.508 88.4474 721.299 88.4474Z" fill="#D1D5DA"/>
<path d="M630.357 88.4474L596.355 88.4474C594.146 88.4474 592.355 86.6566 592.355 84.4475L592.355 50.442C592.355 48.2328 594.146 46.442 596.355 46.442L630.357 46.442C632.566 46.442 634.357 48.2328 634.357 50.442L634.357 84.4474C634.357 86.6566 632.566 88.4474 630.357 88.4474Z" fill="#24292E"/>
<path d="M448.473 88.4474L414.471 88.4474C412.262 88.4474 410.471 86.6566 410.471 84.4475L410.471 50.442C410.471 48.2328 412.262 46.442 414.471 46.442L448.473 46.442C450.682 46.442 452.473 48.2328 452.473 50.442L452.473 84.4474C452.473 86.6566 450.682 88.4474 448.473 88.4474Z" fill="#F6F8FA"/>
<path d="M493.944 88.4474L459.942 88.4474C457.733 88.4474 455.942 86.6566 455.942 84.4475L455.942 50.442C455.942 48.2328 457.733 46.442 459.942 46.442L493.944 46.442C496.153 46.442 497.944 48.2328 497.944 50.442L497.944 84.4474C497.944 86.6566 496.153 88.4474 493.944 88.4474Z" fill="#E1E4E8"/>
<path d="M539.415 88.4474L505.413 88.4474C503.204 88.4474 501.413 86.6566 501.413 84.4475L501.413 50.442C501.413 48.2328 503.204 46.442 505.413 46.442L539.415 46.442C541.624 46.442 543.415 48.2328 543.415 50.442L543.415 84.4474C543.415 86.6566 541.624 88.4474 539.415 88.4474Z" fill="#2F363D"/>
<path d="M584.886 88.4474L550.884 88.4474C548.675 88.4474 546.884 86.6566 546.884 84.4475L546.884 50.442C546.884 48.2328 548.675 46.442 550.884 46.442L584.886 46.442C587.095 46.442 588.886 48.2328 588.886 50.442L588.886 84.4474C588.886 86.6566 587.095 88.4474 584.886 88.4474Z" fill="#2F363D"/>
<path d="M584.886 135.005L550.884 135.005C548.675 135.005 546.884 133.215 546.884 131.005L546.884 97C546.884 94.7909 548.675 93 550.884 93L584.886 93C587.095 93 588.886 94.7909 588.886 97L588.886 131.005C588.886 133.215 587.095 135.005 584.886 135.005Z" fill="#2F363D"/>
<path d="M448.473 135.027L414.471 135.027C412.262 135.027 410.471 133.237 410.471 131.027L410.471 97.0219C410.471 94.8128 412.262 93.0219 414.471 93.0219L448.473 93.0219C450.682 93.0219 452.473 94.8128 452.473 97.0219L452.473 131.027C452.473 133.237 450.682 135.027 448.473 135.027Z" fill="#24292E"/>
<path d="M539.415 135.027L505.413 135.027C503.204 135.027 501.413 133.237 501.413 131.027L501.413 97.0219C501.413 94.8128 503.204 93.0219 505.413 93.0219L539.415 93.0219C541.624 93.0219 543.415 94.8128 543.415 97.0219L543.415 131.027C543.415 133.237 541.624 135.027 539.415 135.027Z" fill="#F3F3F3"/>
<path d="M539.002 135.006L505 135.006C502.791 135.006 501 133.215 501 131.006L501 97C501 94.7909 502.791 93 505 93L539.002 93C541.211 93 543.002 94.7909 543.002 97L543.002 131.006C543.002 133.215 541.211 135.006 539.002 135.006Z" fill="#F6F8FA"/>
<path d="M448.473 507.668L414.471 507.668C412.262 507.668 410.471 505.877 410.471 503.668L410.471 469.662C410.471 467.453 412.262 465.662 414.471 465.662L448.473 465.662C450.682 465.662 452.473 467.453 452.473 469.662L452.473 503.668C452.473 505.877 450.682 507.668 448.473 507.668Z" fill="#FAFBFC"/>
<path d="M493.944 507.668L459.942 507.668C457.733 507.668 455.942 505.877 455.942 503.668L455.942 469.662C455.942 467.453 457.733 465.662 459.942 465.662L493.944 465.662C496.153 465.662 497.944 467.453 497.944 469.662L497.944 503.668C497.944 505.877 496.153 507.668 493.944 507.668Z" fill="#2F363D"/>
<path d="M539.415 507.668L505.413 507.668C503.204 507.668 501.413 505.877 501.413 503.668L501.413 469.662C501.413 467.453 503.204 465.662 505.413 465.662L539.415 465.662C541.624 465.662 543.415 467.453 543.415 469.662L543.415 503.668C543.415 505.877 541.624 507.668 539.415 507.668Z" fill="#6A737D"/>
<path d="M630.357 461.088L596.355 461.088C594.146 461.088 592.355 459.297 592.355 457.088L592.355 423.082C592.355 420.873 594.146 419.082 596.355 419.082L630.357 419.082C632.566 419.082 634.357 420.873 634.357 423.082L634.357 457.088C634.357 459.297 632.566 461.088 630.357 461.088Z" fill="#444D56"/>
<path d="M448.473 461.088L414.471 461.088C412.262 461.088 410.471 459.297 410.471 457.088L410.471 423.082C410.471 420.873 412.262 419.082 414.471 419.082L448.473 419.082C450.682 419.082 452.473 420.873 452.473 423.082L452.473 457.088C452.473 459.297 450.682 461.088 448.473 461.088Z" fill="#2F363D"/>
<path d="M539.415 461.088L505.413 461.088C503.204 461.088 501.413 459.297 501.413 457.088L501.413 423.082C501.413 420.873 503.204 419.082 505.413 419.082L539.415 419.082C541.624 419.082 543.415 420.873 543.415 423.082L543.415 457.088C543.415 459.297 541.624 461.088 539.415 461.088Z" fill="#2F363D"/>
<path d="M584.886 461.088L550.884 461.088C548.675 461.088 546.884 459.297 546.884 457.088L546.884 423.082C546.884 420.873 548.675 419.082 550.884 419.082L584.886 419.082C587.095 419.082 588.886 420.873 588.886 423.082L588.886 457.088C588.886 459.297 587.095 461.088 584.886 461.088Z" fill="#444D56"/>
<path d="M675.828 414.508L641.826 414.508C639.617 414.508 637.826 412.717 637.826 410.508L637.826 376.502C637.826 374.293 639.617 372.502 641.826 372.502L675.828 372.502C678.037 372.502 679.828 374.293 679.828 376.502L679.828 410.508C679.828 412.717 678.037 414.508 675.828 414.508Z" fill="#F6F8FA"/>
<path d="M448.473 414.508L414.471 414.508C412.262 414.508 410.471 412.717 410.471 410.508L410.471 376.502C410.471 374.293 412.262 372.502 414.471 372.502L448.473 372.502C450.682 372.502 452.473 374.293 452.473 376.502L452.473 410.508C452.473 412.717 450.682 414.508 448.473 414.508Z" fill="#586069"/>
<path d="M312.002 554.326L278 554.326C275.791 554.326 274 552.535 274 550.326L274 516.32C274 514.111 275.791 512.32 278 512.32L312.002 512.32C314.211 512.32 316.002 514.111 316.002 516.32L316.002 550.326C316.002 552.535 314.211 554.326 312.002 554.326Z" fill="#586069"/>
<path d="M493.944 414.508L459.942 414.508C457.733 414.508 455.942 412.717 455.942 410.508L455.942 376.502C455.942 374.293 457.733 372.502 459.942 372.502L493.944 372.502C496.153 372.502 497.944 374.293 497.944 376.502L497.944 410.508C497.944 412.717 496.153 414.508 493.944 414.508Z" fill="#2F363D"/>
<path d="M539.415 414.508L505.413 414.508C503.204 414.508 501.413 412.717 501.413 410.508L501.413 376.502C501.413 374.293 503.204 372.502 505.413 372.502L539.415 372.502C541.624 372.502 543.415 374.293 543.415 376.502L543.415 410.508C543.415 412.717 541.624 414.508 539.415 414.508Z" fill="#6A737D"/>
<path d="M630.357 181.607L596.355 181.607C594.146 181.607 592.355 179.817 592.355 177.607L592.355 143.602C592.355 141.393 594.146 139.602 596.355 139.602L630.357 139.602C632.566 139.602 634.357 141.393 634.357 143.602L634.357 177.607C634.357 179.817 632.566 181.607 630.357 181.607Z" fill="#6A737D"/>
<path d="M448.473 181.607L414.471 181.607C412.262 181.607 410.471 179.817 410.471 177.607L410.471 143.602C410.471 141.393 412.262 139.602 414.471 139.602L448.473 139.602C450.682 139.602 452.473 141.393 452.473 143.602L452.473 177.607C452.473 179.817 450.682 181.607 448.473 181.607Z" fill="#F6F8FA"/>
<path d="M539.415 181.607L505.413 181.607C503.204 181.607 501.413 179.817 501.413 177.607L501.413 143.602C501.413 141.393 503.204 139.602 505.413 139.602L539.415 139.602C541.624 139.602 543.415 141.393 543.415 143.602L543.415 177.607C543.415 179.817 541.624 181.607 539.415 181.607Z" fill="#586069"/>
<path d="M630.357 228.187L596.355 228.187C594.146 228.187 592.355 226.397 592.355 224.188L592.355 190.182C592.355 187.973 594.146 186.182 596.355 186.182L630.357 186.182C632.566 186.182 634.357 187.973 634.357 190.182L634.357 224.187C634.357 226.397 632.566 228.187 630.357 228.187Z" fill="#444D56"/>
<path d="M402.944 182.006L368.942 182.006C366.733 182.006 364.942 180.215 364.942 178.006L364.942 144C364.942 141.791 366.733 140 368.942 140L402.944 140C405.153 140 406.944 141.791 406.944 144L406.944 178.006C406.944 180.215 405.153 182.006 402.944 182.006Z" fill="#444D56"/>
<path d="M448.473 228.187L414.471 228.187C412.262 228.187 410.471 226.397 410.471 224.187L410.471 190.182C410.471 187.973 412.262 186.182 414.471 186.182L448.473 186.182C450.682 186.182 452.473 187.973 452.473 190.182L452.473 224.187C452.473 226.397 450.682 228.187 448.473 228.187Z" fill="#F6F8FA"/>
<path d="M493.944 228.187L459.942 228.187C457.733 228.187 455.942 226.397 455.942 224.187L455.942 190.182C455.942 187.973 457.733 186.182 459.942 186.182L493.944 186.182C496.153 186.182 497.944 187.973 497.944 190.182L497.944 224.187C497.944 226.397 496.153 228.187 493.944 228.187Z" fill="#444D56"/>
<path d="M539.415 228.187L505.413 228.187C503.204 228.187 501.413 226.397 501.413 224.188L501.413 190.182C501.413 187.973 503.204 186.182 505.413 186.182L539.415 186.182C541.624 186.182 543.415 187.973 543.415 190.182L543.415 224.187C543.415 226.397 541.624 228.187 539.415 228.187Z" fill="#444D56"/>
<path d="M312.002 182.006L278 182.006C275.791 182.006 274 180.215 274 178.006L274 144C274 141.791 275.791 140 278 140L312.002 140C314.211 140 316.002 141.791 316.002 144L316.002 178.006C316.002 180.215 314.211 182.006 312.002 182.006Z" fill="#444D56"/>
<path d="M402.944 368.006L368.942 368.006C366.733 368.006 364.942 366.215 364.942 364.006L364.942 330C364.942 327.791 366.733 326 368.942 326L402.944 326C405.153 326 406.944 327.791 406.944 330L406.944 364.006C406.944 366.215 405.153 368.006 402.944 368.006Z" fill="#444D56"/>
<path d="M584.886 228.187L550.884 228.187C548.675 228.187 546.884 226.397 546.884 224.188L546.884 190.182C546.884 187.973 548.675 186.182 550.884 186.182L584.886 186.182C587.095 186.182 588.886 187.973 588.886 190.182L588.886 224.187C588.886 226.397 587.095 228.187 584.886 228.187Z" fill="#444D56"/>
<path d="M448.415 368.006L414.413 368.006C412.204 368.006 410.413 366.215 410.413 364.006L410.413 330C410.413 327.791 412.204 326 414.413 326L448.415 326C450.624 326 452.415 327.791 452.415 330L452.415 364.006C452.415 366.215 450.624 368.006 448.415 368.006Z" fill="#444D56"/>
<path d="M403.002 647.408L369 647.408C366.791 647.408 365 645.617 365 643.408L365 609.402C365 607.193 366.791 605.402 369 605.402L403.002 605.402C405.211 605.402 407.002 607.193 407.002 609.402L407.002 643.408C407.002 645.617 405.211 647.408 403.002 647.408Z" fill="#586069"/>
<path d="M403.002 42.0056L369 42.0056C366.791 42.0056 365 40.2147 365 38.0055L365 4.00001C365 1.79087 366.791 7.49106e-06 369 7.32041e-06L403.002 4.69392e-06C405.211 4.52327e-06 407.002 1.79087 407.002 4.00001L407.002 38.0056C407.002 40.2147 405.211 42.0056 403.002 42.0056Z" fill="#6A737D"/>
<path d="M311.002 368.006L277 368.006C274.791 368.006 273 366.215 273 364.006L273 330C273 327.791 274.791 326 277 326L311.002 326C313.211 326 315.002 327.791 315.002 330L315.002 364.006C315.002 366.215 313.211 368.006 311.002 368.006Z" fill="#F6F8FA"/>
<path d="M403.002 135.027L369 135.027C366.791 135.027 365 133.237 365 131.027L365 97.0219C365 94.8128 366.791 93.0219 369 93.0219L403.002 93.0219C405.211 93.0219 407.002 94.8128 407.002 97.0219L407.002 131.027C407.002 133.237 405.211 135.027 403.002 135.027Z" fill="#586069"/>
<path d="M403.002 507.668L369 507.668C366.791 507.668 365 505.877 365 503.668L365 469.662C365 467.453 366.791 465.662 369 465.662L403.002 465.662C405.211 465.662 407.002 467.453 407.002 469.662L407.002 503.668C407.002 505.877 405.211 507.668 403.002 507.668Z" fill="#959DA5"/>
<path d="M403.002 461.088L369 461.088C366.791 461.088 365 459.297 365 457.088L365 423.082C365 420.873 366.791 419.082 369 419.082L403.002 419.082C405.211 419.082 407.002 420.873 407.002 423.082L407.002 457.088C407.002 459.297 405.211 461.088 403.002 461.088Z" fill="#959DA5"/>
<path d="M403.002 414.508L369 414.508C366.791 414.508 365 412.717 365 410.508L365 376.502C365 374.293 366.791 372.502 369 372.502L403.002 372.502C405.211 372.502 407.002 374.293 407.002 376.502L407.002 410.508C407.002 412.717 405.211 414.508 403.002 414.508Z" fill="#F6F8FA"/>
<path d="M403.002 228.187L369 228.187C366.791 228.187 365 226.397 365 224.188L365 190.182C365 187.973 366.791 186.182 369 186.182L403.002 186.182C405.211 186.182 407.002 187.973 407.002 190.182L407.002 224.187C407.002 226.397 405.211 228.187 403.002 228.187Z" fill="#586069"/>
<path d="M403.002 274.768L369 274.768C366.791 274.768 365 272.977 365 270.768L365 236.762C365 234.553 366.791 232.762 369 232.762L403.002 232.762C405.211 232.762 407.002 234.553 407.002 236.762L407.002 270.768C407.002 272.977 405.211 274.768 403.002 274.768Z" fill="#F6F8FA"/>
<path d="M448.473 274.768L414.471 274.768C412.262 274.768 410.471 272.977 410.471 270.768L410.471 236.762C410.471 234.553 412.262 232.762 414.471 232.762L448.473 232.762C450.682 232.762 452.473 234.553 452.473 236.762L452.473 270.768C452.473 272.977 450.682 274.768 448.473 274.768Z" fill="#2F363D"/>
<path d="M584.886 274.768L550.884 274.768C548.675 274.768 546.884 272.977 546.884 270.768L546.884 236.762C546.884 234.553 548.675 232.762 550.884 232.762L584.886 232.762C587.095 232.762 588.886 234.553 588.886 236.762L588.886 270.768C588.886 272.977 587.095 274.768 584.886 274.768Z" fill="#586069"/>
<path d="M448.473 321.348L414.471 321.348C412.262 321.348 410.471 319.557 410.471 317.348L410.471 283.342C410.471 281.133 412.262 279.342 414.471 279.342L448.473 279.342C450.682 279.342 452.473 281.133 452.473 283.342L452.473 317.348C452.473 319.557 450.682 321.348 448.473 321.348Z" fill="#6A737D"/>
<path d="M493.944 321.348L459.942 321.348C457.733 321.348 455.942 319.557 455.942 317.348L455.942 283.342C455.942 281.133 457.733 279.342 459.942 279.342L493.944 279.342C496.153 279.342 497.944 281.133 497.944 283.342L497.944 317.348C497.944 319.557 496.153 321.348 493.944 321.348Z" fill="#6A737D"/>
<path d="M539.415 321.348L505.413 321.348C503.204 321.348 501.413 319.557 501.413 317.348L501.413 283.342C501.413 281.133 503.204 279.342 505.413 279.342L539.415 279.342C541.624 279.342 543.415 281.133 543.415 283.342L543.415 317.348C543.415 319.557 541.624 321.348 539.415 321.348Z" fill="#586069"/>
<path d="M356.002 321.348L322 321.348C319.791 321.348 318 319.557 318 317.348L318 283.342C318 281.133 319.791 279.342 322 279.342L356.002 279.342C358.211 279.342 360.002 281.133 360.002 283.342L360.002 317.348C360.002 319.557 358.211 321.348 356.002 321.348Z" fill="#586069"/>
<path d="M128.647 182.348L94.6451 182.348C92.436 182.348 90.6451 180.557 90.6451 178.348L90.6451 144.342C90.6451 142.133 92.436 140.342 94.6451 140.342L128.647 140.342C130.856 140.342 132.647 142.133 132.647 144.342L132.647 178.348C132.647 180.557 130.856 182.348 128.647 182.348Z" fill="#586069"/>
<path d="M584.886 321.348L550.884 321.348C548.675 321.348 546.884 319.557 546.884 317.348L546.884 283.342C546.884 281.133 548.675 279.342 550.884 279.342L584.886 279.342C587.095 279.342 588.886 281.133 588.886 283.342L588.886 317.348C588.886 319.557 587.095 321.348 584.886 321.348Z" fill="#586069"/>
<path d="M128.944 559.12L94.942 559.12C92.7328 559.12 90.942 560.911 90.942 563.12L90.942 597.125C90.942 599.334 92.7328 601.125 94.942 601.125L128.944 601.125C131.153 601.125 132.944 599.334 132.944 597.125L132.944 563.12C132.944 560.911 131.153 559.12 128.944 559.12Z" fill="#F6F8FA"/>
<path d="M128.944 233.06L94.942 233.06C92.7328 233.06 90.942 234.85 90.942 237.06L90.942 271.065C90.942 273.274 92.7328 275.065 94.942 275.065L128.944 275.065C131.153 275.065 132.944 273.274 132.944 271.065L132.944 237.06C132.944 234.85 131.153 233.06 128.944 233.06Z" fill="#586069"/>
<path d="M128.944 512.54L94.942 512.54C92.7328 512.54 90.942 514.331 90.942 516.54L90.942 550.545C90.942 552.754 92.7328 554.545 94.942 554.545L128.944 554.545C131.153 554.545 132.944 552.754 132.944 550.545L132.944 516.54C132.944 514.331 131.153 512.54 128.944 512.54Z" fill="#24292E"/>
<path d="M128.944 186.48L94.942 186.48C92.7328 186.48 90.942 188.27 90.942 190.48L90.942 224.485C90.942 226.694 92.7328 228.485 94.942 228.485L128.944 228.485C131.153 228.485 132.944 226.694 132.944 224.485L132.944 190.48C132.944 188.27 131.153 186.48 128.944 186.48Z" fill="#586069"/>
<path d="M128.944 419.38L94.942 419.38C92.7328 419.38 90.942 421.17 90.942 423.38L90.942 457.385C90.942 459.594 92.7328 461.385 94.942 461.385L128.944 461.385C131.153 461.385 132.944 459.594 132.944 457.385L132.944 423.38C132.944 421.17 131.153 419.38 128.944 419.38Z" fill="#6A737D"/>
<path d="M128.944 372.8L94.942 372.8C92.7328 372.8 90.942 374.59 90.942 376.8L90.942 410.805C90.942 413.014 92.7328 414.805 94.942 414.805L128.944 414.805C131.153 414.805 132.944 413.014 132.944 410.805L132.944 376.8C132.944 374.59 131.153 372.8 128.944 372.8Z" fill="#444D56"/>
<path d="M310.828 559L276.826 559C274.617 559 272.826 560.791 272.826 563L272.826 597.006C272.826 599.215 274.617 601.006 276.826 601.006L310.828 601.006C313.037 601.006 314.828 599.215 314.828 597.006L314.828 563C314.828 560.791 313.037 559 310.828 559Z" fill="#F6F8FA"/>
<path d="M310.828 465.96L276.826 465.96C274.617 465.96 272.826 467.751 272.826 469.96L272.826 503.965C272.826 506.174 274.617 507.965 276.826 507.965L310.828 507.965C313.037 507.965 314.828 506.174 314.828 503.965L314.828 469.96C314.828 467.751 313.037 465.96 310.828 465.96Z" fill="#E1E4E8"/>
<path d="M310.828 372.8L276.826 372.8C274.617 372.8 272.826 374.59 272.826 376.8L272.826 410.805C272.826 413.014 274.617 414.805 276.826 414.805L310.828 414.805C313.037 414.805 314.828 413.014 314.828 410.805L314.828 376.8C314.828 374.59 313.037 372.8 310.828 372.8Z" fill="#959DA5"/>
<path d="M356.299 559.12L322.297 559.12C320.088 559.12 318.297 560.911 318.297 563.12L318.297 597.125C318.297 599.334 320.088 601.125 322.297 601.125L356.299 601.125C358.508 601.125 360.299 599.334 360.299 597.125L360.299 563.12C360.299 560.911 358.508 559.12 356.299 559.12Z" fill="#6A737D"/>
<path d="M356.299 465.96L322.297 465.96C320.088 465.96 318.297 467.751 318.297 469.96L318.297 503.965C318.297 506.174 320.088 507.965 322.297 507.965L356.299 507.965C358.508 507.965 360.299 506.174 360.299 503.965L360.299 469.96C360.299 467.751 358.508 465.96 356.299 465.96Z" fill="#586069"/>
<path d="M356.299 93.3196L322.297 93.3196C320.088 93.3196 318.297 95.1104 318.297 97.3196L318.297 131.325C318.297 133.534 320.088 135.325 322.297 135.325L356.299 135.325C358.508 135.325 360.299 133.534 360.299 131.325L360.299 97.3196C360.299 95.1104 358.508 93.3196 356.299 93.3196Z" fill="#959DA5"/>
<path d="M356.299 186.48L322.297 186.48C320.088 186.48 318.297 188.27 318.297 190.48L318.297 224.485C318.297 226.694 320.088 228.485 322.297 228.485L356.299 228.485C358.508 228.485 360.299 226.694 360.299 224.485L360.299 190.48C360.299 188.27 358.508 186.48 356.299 186.48Z" fill="#F6F8FA"/>
<path d="M356.299 372.8L322.297 372.8C320.088 372.8 318.297 374.59 318.297 376.8L318.297 410.805C318.297 413.014 320.088 414.805 322.297 414.805L356.299 414.805C358.508 414.805 360.299 413.014 360.299 410.805L360.299 376.8C360.299 374.59 358.508 372.8 356.299 372.8Z" fill="#586069"/>
<path d="M265.357 605.579L231.355 605.579C229.146 605.579 227.355 607.37 227.355 609.579L227.355 643.585C227.355 645.794 229.146 647.585 231.355 647.585L265.357 647.585C267.566 647.585 269.357 645.794 269.357 643.585L269.357 609.579C269.357 607.37 267.566 605.579 265.357 605.579Z" fill="#E1E4E8"/>
<path d="M265.357 46.7396L231.355 46.7396C229.146 46.7396 227.355 48.5304 227.355 50.7396L227.355 84.7451C227.355 86.9543 229.146 88.7451 231.355 88.7451L265.357 88.7451C267.566 88.7451 269.357 86.9543 269.357 84.7451L269.357 50.7396C269.357 48.5304 267.566 46.7396 265.357 46.7396Z" fill="#24292E"/>
<path d="M265.357 559.12L231.355 559.12C229.146 559.12 227.355 560.911 227.355 563.12L227.355 597.125C227.355 599.334 229.146 601.125 231.355 601.125L265.357 601.125C267.566 601.125 269.357 599.334 269.357 597.125L269.357 563.12C269.357 560.911 267.566 559.12 265.357 559.12Z" fill="#959DA5"/>
<path d="M265.357 233.06L231.355 233.06C229.146 233.06 227.355 234.85 227.355 237.06L227.355 271.065C227.355 273.274 229.146 275.065 231.355 275.065L265.357 275.065C267.566 275.065 269.357 273.274 269.357 271.065L269.357 237.06C269.357 234.85 267.566 233.06 265.357 233.06Z" fill="#6A737D"/>
<path d="M265.357 512.54L231.355 512.54C229.146 512.54 227.355 514.331 227.355 516.54L227.355 550.545C227.355 552.754 229.146 554.545 231.355 554.545L265.357 554.545C267.566 554.545 269.357 552.754 269.357 550.545L269.357 516.54C269.357 514.331 267.566 512.54 265.357 512.54Z" fill="#F6F8FA"/>
<path d="M265.357 465.96L231.355 465.96C229.146 465.96 227.355 467.751 227.355 469.96L227.355 503.965C227.355 506.174 229.146 507.965 231.355 507.965L265.357 507.965C267.566 507.965 269.357 506.174 269.357 503.965L269.357 469.96C269.357 467.751 267.566 465.96 265.357 465.96Z" fill="#E1E4E8"/>
<path d="M265.357 93.3196L231.355 93.3196C229.146 93.3196 227.355 95.1104 227.355 97.3196L227.355 131.325C227.355 133.534 229.146 135.325 231.355 135.325L265.357 135.325C267.566 135.325 269.357 133.534 269.357 131.325L269.357 97.3196C269.357 95.1104 267.566 93.3196 265.357 93.3196Z" fill="#F6F8FA"/>
<path d="M265.357 139.9L231.355 139.9C229.146 139.9 227.355 141.69 227.355 143.9L227.355 177.905C227.355 180.114 229.146 181.905 231.355 181.905L265.357 181.905C267.566 181.905 269.357 180.114 269.357 177.905L269.357 143.9C269.357 141.69 267.566 139.9 265.357 139.9Z" fill="#F6F8FA"/>
<path d="M265.357 186.48L231.355 186.48C229.146 186.48 227.355 188.27 227.355 190.48L227.355 224.485C227.355 226.694 229.146 228.485 231.355 228.485L265.357 228.485C267.566 228.485 269.357 226.694 269.357 224.485L269.357 190.48C269.357 188.27 267.566 186.48 265.357 186.48Z" fill="#2F363D"/>
<path d="M38.0018 47.4796L4 47.4796C1.79086 47.4796 1.82257e-08 49.2705 4.07081e-08 51.4796L3.86783e-07 85.4852C4.09266e-07 87.6943 1.79086 89.4852 4 89.4852L38.0018 89.4852C40.2109 89.4852 42.0018 87.6943 42.0018 85.4852L42.0018 51.4796C42.0018 49.2705 40.2109 47.4796 38.0018 47.4796Z" fill="#2F363D"/>
<path d="M265.357 419.38L231.355 419.38C229.146 419.38 227.355 421.17 227.355 423.38L227.355 457.385C227.355 459.594 229.146 461.385 231.355 461.385L265.357 461.385C267.566 461.385 269.357 459.594 269.357 457.385L269.357 423.38C269.357 421.17 267.566 419.38 265.357 419.38Z" fill="#FAFBFC"/>
<path d="M265.357 372.8L231.355 372.8C229.146 372.8 227.355 374.59 227.355 376.8L227.355 410.805C227.355 413.014 229.146 414.805 231.355 414.805L265.357 414.805C267.566 414.805 269.357 413.014 269.357 410.805L269.357 376.8C269.357 374.59 267.566 372.8 265.357 372.8Z" fill="#2F363D"/>
<path d="M265.357 326.22L231.355 326.22C229.146 326.22 227.355 328.01 227.355 330.22L227.355 364.225C227.355 366.434 229.146 368.225 231.355 368.225L265.357 368.225C267.566 368.225 269.357 366.434 269.357 364.225L269.357 330.22C269.357 328.01 267.566 326.22 265.357 326.22Z" fill="#586069"/>
<path d="M38.0018 233.06L4 233.06C1.79086 233.06 1.82256e-08 234.85 4.07081e-08 237.06L3.86784e-07 271.065C4.09266e-07 273.274 1.79085 275.065 3.99999 275.065L38.0018 275.065C40.2109 275.065 42.0018 273.274 42.0018 271.065L42.0018 237.06C42.0018 234.85 40.2109 233.06 38.0018 233.06Z" fill="#FAFBFC"/>
<path d="M38.0018 465.96L4 465.96C1.79086 465.96 1.82257e-08 467.751 4.07081e-08 469.96L3.86783e-07 503.965C4.09266e-07 506.174 1.79086 507.965 4 507.965L38.0018 507.965C40.2109 507.965 42.0018 506.174 42.0018 503.965L42.0018 469.96C42.0018 467.751 40.2109 465.96 38.0018 465.96Z" fill="#F3F3F3"/>
<path d="M38.0018 279.64L4 279.64C1.79086 279.64 1.82257e-08 281.431 4.07081e-08 283.64L3.86783e-07 317.645C4.09266e-07 319.854 1.79086 321.645 4 321.645L38.0018 321.645C40.2109 321.645 42.0018 319.854 42.0018 317.645L42.0018 283.64C42.0018 281.431 40.2109 279.64 38.0018 279.64Z" fill="#586069"/>
<path d="M83.4727 559.12L49.4709 559.12C47.2618 559.12 45.4709 560.911 45.4709 563.12L45.4709 597.125C45.4709 599.334 47.2618 601.125 49.4709 601.125L83.4727 601.125C85.6819 601.125 87.4727 599.334 87.4727 597.125L87.4727 563.12C87.4727 560.911 85.6819 559.12 83.4727 559.12Z" fill="#2F363D"/>
<path d="M83.4727 233.06L49.4709 233.06C47.2618 233.06 45.4709 234.85 45.4709 237.06L45.4709 271.065C45.4709 273.274 47.2618 275.065 49.471 275.065L83.4727 275.065C85.6818 275.065 87.4727 273.274 87.4727 271.065L87.4727 237.06C87.4727 234.85 85.6818 233.06 83.4727 233.06Z" fill="#D1D5DA"/>
<path d="M83.4727 512.54L49.4709 512.54C47.2618 512.54 45.4709 514.331 45.4709 516.54L45.4709 550.545C45.4709 552.754 47.2618 554.545 49.4709 554.545L83.4727 554.545C85.6819 554.545 87.4727 552.754 87.4727 550.545L87.4727 516.54C87.4727 514.331 85.6819 512.54 83.4727 512.54Z" fill="#2F363D"/>
<path d="M83.4727 465.96L49.4709 465.96C47.2618 465.96 45.4709 467.751 45.4709 469.96L45.4709 503.965C45.4709 506.174 47.2618 507.965 49.4709 507.965L83.4727 507.965C85.6819 507.965 87.4727 506.174 87.4727 503.965L87.4727 469.96C87.4727 467.751 85.6819 465.96 83.4727 465.96Z" fill="#F6F8FA"/>
<path d="M83.4727 372.8L49.4709 372.8C47.2618 372.8 45.4709 374.59 45.4709 376.8L45.4709 410.805C45.4709 413.014 47.2618 414.805 49.4709 414.805L83.4727 414.805C85.6819 414.805 87.4727 413.014 87.4727 410.805L87.4727 376.8C87.4727 374.59 85.6819 372.8 83.4727 372.8Z" fill="#444D56"/>
<path d="M83.4727 279.64L49.4709 279.64C47.2618 279.64 45.4709 281.431 45.4709 283.64L45.4709 317.645C45.4709 319.854 47.2618 321.645 49.4709 321.645L83.4727 321.645C85.6819 321.645 87.4727 319.854 87.4727 317.645L87.4727 283.64C87.4727 281.431 85.6819 279.64 83.4727 279.64Z" fill="#586069"/>
<path d="M174.415 0.159546L140.413 0.159546C138.204 0.159546 136.413 1.9504 136.413 4.15954L136.413 38.1651C136.413 40.3743 138.204 42.1651 140.413 42.1651L174.415 42.1651C176.624 42.1651 178.415 40.3743 178.415 38.1651L178.415 4.15955C178.415 1.95041 176.624 0.159545 174.415 0.159546Z" fill="#2F363D"/>
<path d="M174.415 233.06L140.413 233.06C138.204 233.06 136.413 234.85 136.413 237.06L136.413 271.065C136.413 273.274 138.204 275.065 140.413 275.065L174.415 275.065C176.624 275.065 178.415 273.274 178.415 271.065L178.415 237.06C178.415 234.85 176.624 233.06 174.415 233.06Z" fill="#586069"/>
<path d="M265.002 279.16L231 279.16C228.791 279.16 227 280.951 227 283.16L227 317.166C227 319.375 228.791 321.166 231 321.166L265.002 321.166C267.211 321.166 269.002 319.375 269.002 317.166L269.002 283.16C269.002 280.951 267.211 279.16 265.002 279.16Z" fill="#586069"/>
<path d="M174.415 512.54L140.413 512.54C138.204 512.54 136.413 514.331 136.413 516.54L136.413 550.545C136.413 552.754 138.204 554.545 140.413 554.545L174.415 554.545C176.624 554.545 178.415 552.754 178.415 550.545L178.415 516.54C178.415 514.331 176.624 512.54 174.415 512.54Z" fill="#24292E"/>
<path d="M174.415 465.96L140.413 465.96C138.204 465.96 136.413 467.751 136.413 469.96L136.413 503.965C136.413 506.174 138.204 507.965 140.413 507.965L174.415 507.965C176.624 507.965 178.415 506.174 178.415 503.965L178.415 469.96C178.415 467.751 176.624 465.96 174.415 465.96Z" fill="#959DA5"/>
<path d="M174.415 139.9L140.413 139.9C138.204 139.9 136.413 141.69 136.413 143.9L136.413 177.905C136.413 180.114 138.204 181.905 140.413 181.905L174.415 181.905C176.624 181.905 178.415 180.114 178.415 177.905L178.415 143.9C178.415 141.69 176.624 139.9 174.415 139.9Z" fill="#444D56"/>
<path d="M174.415 186.48L140.413 186.48C138.204 186.48 136.413 188.27 136.413 190.48L136.413 224.485C136.413 226.694 138.204 228.485 140.413 228.485L174.415 228.485C176.624 228.485 178.415 226.694 178.415 224.485L178.415 190.48C178.415 188.27 176.624 186.48 174.415 186.48Z" fill="#F6F8FA"/>
<path d="M174.415 419.38L140.413 419.38C138.204 419.38 136.413 421.17 136.413 423.38L136.413 457.385C136.413 459.594 138.204 461.385 140.413 461.385L174.415 461.385C176.624 461.385 178.415 459.594 178.415 457.385L178.415 423.38C178.415 421.17 176.624 419.38 174.415 419.38Z" fill="#6A737D"/>
<path d="M174.415 326.22L140.413 326.22C138.204 326.22 136.413 328.01 136.413 330.22L136.413 364.225C136.413 366.434 138.204 368.225 140.413 368.225L174.415 368.225C176.624 368.225 178.415 366.434 178.415 364.225L178.415 330.22C178.415 328.01 176.624 326.22 174.415 326.22Z" fill="#6A737D"/>
<path d="M174.415 279.64L140.413 279.64C138.204 279.64 136.413 281.431 136.413 283.64L136.413 317.645C136.413 319.854 138.204 321.645 140.413 321.645L174.415 321.645C176.624 321.645 178.415 319.854 178.415 317.645L178.415 283.64C178.415 281.431 176.624 279.64 174.415 279.64Z" fill="#FAFBFC"/>
<path d="M219.886 93.3196L185.884 93.3196C183.675 93.3196 181.884 95.1104 181.884 97.3196L181.884 131.325C181.884 133.534 183.675 135.325 185.884 135.325L219.886 135.325C222.095 135.325 223.886 133.534 223.886 131.325L223.886 97.3196C223.886 95.1104 222.095 93.3196 219.886 93.3196Z" fill="#586069"/>
<path d="M219.886 139.9L185.884 139.9C183.675 139.9 181.884 141.69 181.884 143.9L181.884 177.905C181.884 180.114 183.675 181.905 185.884 181.905L219.886 181.905C222.095 181.905 223.886 180.114 223.886 177.905L223.886 143.9C223.886 141.69 222.095 139.9 219.886 139.9Z" fill="#444D56"/>
<path d="M311.002 186L277 186C274.791 186 273 187.791 273 190L273 224.006C273 226.215 274.791 228.006 277 228.006L311.002 228.006C313.211 228.006 315.002 226.215 315.002 224.006L315.002 190C315.002 187.791 313.211 186 311.002 186Z" fill="#444D56"/>
<path d="M83.6469 47L49.6451 47C47.436 47 45.6451 48.7909 45.6451 51L45.6451 85.0056C45.6451 87.2147 47.436 89.0056 49.6451 89.0056L83.6469 89.0056C85.856 89.0056 87.6469 87.2147 87.6469 85.0056L87.6469 51C87.6469 48.7909 85.856 47 83.6469 47Z" fill="#444D56"/>
<path d="M219.886 186.48L185.884 186.48C183.675 186.48 181.884 188.27 181.884 190.48L181.884 224.485C181.884 226.694 183.675 228.485 185.884 228.485L219.886 228.485C222.095 228.485 223.886 226.694 223.886 224.485L223.886 190.48C223.886 188.27 222.095 186.48 219.886 186.48Z" fill="#2F363D"/>
<path d="M311.002 232.58L277 232.58C274.791 232.58 273 234.371 273 236.58L273 270.586C273 272.795 274.791 274.586 277 274.586L311.002 274.586C313.211 274.586 315.002 272.795 315.002 270.586L315.002 236.58C315.002 234.371 313.211 232.58 311.002 232.58Z" fill="#2F363D"/>
<path d="M83.647 93.5801L49.6451 93.5801C47.436 93.5801 45.6451 95.3709 45.6451 97.5801L45.6451 131.586C45.6451 133.795 47.436 135.586 49.6451 135.586L83.647 135.586C85.8561 135.586 87.647 133.795 87.647 131.586L87.647 97.5801C87.647 95.3709 85.8561 93.5801 83.647 93.5801Z" fill="#2F363D"/>
<path d="M219.886 419.38L185.884 419.38C183.675 419.38 181.884 421.17 181.884 423.38L181.884 457.385C181.884 459.594 183.675 461.385 185.884 461.385L219.886 461.385C222.095 461.385 223.886 459.594 223.886 457.385L223.886 423.38C223.886 421.17 222.095 419.38 219.886 419.38Z" fill="#2F363D"/>
<path d="M219.886 372.8L185.884 372.8C183.675 372.8 181.884 374.59 181.884 376.8L181.884 410.805C181.884 413.014 183.675 414.805 185.884 414.805L219.886 414.805C222.095 414.805 223.886 413.014 223.886 410.805L223.886 376.8C223.886 374.59 222.095 372.8 219.886 372.8Z" fill="#F4F4F4"/>
<path d="M219.886 326.22L185.884 326.22C183.675 326.22 181.884 328.01 181.884 330.22L181.884 364.225C181.884 366.434 183.675 368.225 185.884 368.225L219.886 368.225C222.095 368.225 223.886 366.434 223.886 364.225L223.886 330.22C223.886 328.01 222.095 326.22 219.886 326.22Z" fill="#2F363D"/>
<path d="M219.886 279.64L185.884 279.64C183.675 279.64 181.884 281.431 181.884 283.64L181.884 317.645C181.884 319.854 183.675 321.645 185.884 321.645L219.886 321.645C222.095 321.645 223.886 319.854 223.886 317.645L223.886 283.64C223.886 281.431 222.095 279.64 219.886 279.64Z" fill="#FAFBFC"/>
</svg>
