<svg width="725" height="695" viewBox="0 0 725 695" fill="none" xmlns="http://www.w3.org/2000/svg">
<path d="M538.415 693.988L504.413 693.988C502.204 693.988 500.413 692.197 500.413 689.988L500.413 655.982C500.413 653.773 502.204 651.982 504.413 651.982L538.415 651.982C540.624 651.982 542.415 653.773 542.415 655.982L542.415 689.988C542.415 692.197 540.624 693.988 538.415 693.988Z" fill="#586069"/>
<path d="M492.944 647.408L458.942 647.408C456.733 647.408 454.942 645.617 454.942 643.408L454.942 609.402C454.942 607.193 456.733 605.402 458.942 605.402L492.944 605.402C495.153 605.402 496.944 607.193 496.944 609.402L496.944 643.408C496.944 645.617 495.153 647.408 492.944 647.408Z" fill="#586069"/>
<path d="M538.415 554.248L504.413 554.248C502.204 554.248 500.413 552.457 500.413 550.248L500.413 516.242C500.413 514.033 502.204 512.242 504.413 512.242L538.415 512.242C540.624 512.242 542.415 514.033 542.415 516.242L542.415 550.248C542.415 552.457 540.624 554.248 538.415 554.248Z" fill="#959DA5"/>
<path d="M447.473 42.0056L413.471 42.0056C411.262 42.0056 409.471 40.2147 409.471 38.0055L409.471 4.00001C409.471 1.79087 411.262 7.49106e-06 413.471 7.32041e-06L447.473 4.69392e-06C449.682 4.52327e-06 451.473 1.79087 451.473 4.00001L451.473 38.0056C451.473 40.2147 449.682 42.0056 447.473 42.0056Z" fill="#E1E4E8"/>
<path d="M538.415 42.0056L504.413 42.0056C502.204 42.0056 500.413 40.2147 500.413 38.0055L500.413 4.00001C500.413 1.79087 502.204 7.49106e-06 504.413 7.32041e-06L538.415 4.69392e-06C540.624 4.52327e-06 542.415 1.79087 542.415 4.00001L542.415 38.0056C542.415 40.2147 540.624 42.0056 538.415 42.0056Z" fill="#444D56"/>
<path d="M583.886 42.0056L549.884 42.0056C547.675 42.0056 545.884 40.2147 545.884 38.0055L545.884 4.00001C545.884 1.79087 547.675 7.49106e-06 549.884 7.32041e-06L583.886 4.69392e-06C586.095 4.52327e-06 587.886 1.79087 587.886 4.00001L587.886 38.0056C587.886 40.2147 586.095 42.0056 583.886 42.0056Z" fill="#2F363D"/>
<path d="M674.827 600.828L640.826 600.828C638.617 600.828 636.826 599.037 636.826 596.828L636.826 562.822C636.826 560.613 638.617 558.822 640.826 558.822L674.827 558.822C677.037 558.822 678.827 560.613 678.827 562.822L678.827 596.828C678.827 599.037 677.037 600.828 674.827 600.828Z" fill="#F6F8FA"/>
<path d="M447.473 600.828L413.471 600.828C411.262 600.828 409.471 599.037 409.471 596.828L409.471 562.822C409.471 560.613 411.262 558.822 413.471 558.822L447.473 558.822C449.682 558.822 451.473 560.613 451.473 562.822L451.473 596.828C451.473 599.037 449.682 600.828 447.473 600.828Z" fill="#2F363D"/>
<path d="M538.415 600.828L504.413 600.828C502.204 600.828 500.413 599.037 500.413 596.828L500.413 562.822C500.413 560.613 502.204 558.822 504.413 558.822L538.415 558.822C540.624 558.822 542.415 560.613 542.415 562.822L542.415 596.828C542.415 599.037 540.624 600.828 538.415 600.828Z" fill="#24292E"/>
<path d="M629.356 367.928L595.355 367.928C593.146 367.928 591.355 366.137 591.355 363.928L591.355 329.922C591.355 327.713 593.146 325.922 595.355 325.922L629.356 325.922C631.566 325.922 633.356 327.713 633.356 329.922L633.356 363.928C633.356 366.137 631.566 367.928 629.356 367.928Z" fill="#586069"/>
<path d="M447.473 367.928L413.471 367.928C411.262 367.928 409.471 366.137 409.471 363.928L409.471 329.922C409.471 327.713 411.262 325.922 413.471 325.922L447.473 325.922C449.682 325.922 451.473 327.713 451.473 329.922L451.473 363.928C451.473 366.137 449.682 367.928 447.473 367.928Z" fill="#F6F8FA"/>
<path d="M492.944 367.928L458.942 367.928C456.733 367.928 454.942 366.137 454.942 363.928L454.942 329.922C454.942 327.713 456.733 325.922 458.942 325.922L492.944 325.922C495.153 325.922 496.944 327.713 496.944 329.922L496.944 363.928C496.944 366.137 495.153 367.928 492.944 367.928Z" fill="#FAFBFC"/>
<path d="M538.415 367.928L504.413 367.928C502.204 367.928 500.413 366.137 500.413 363.928L500.413 329.922C500.413 327.713 502.204 325.922 504.413 325.922L538.415 325.922C540.624 325.922 542.415 327.713 542.415 329.922L542.415 363.928C542.415 366.137 540.624 367.928 538.415 367.928Z" fill="#FAFBFC"/>
<path d="M720.299 88.4474L686.297 88.4474C684.088 88.4474 682.297 86.6566 682.297 84.4475L682.297 50.442C682.297 48.2328 684.088 46.442 686.297 46.442L720.299 46.442C722.508 46.442 724.299 48.2328 724.299 50.442L724.299 84.4474C724.299 86.6566 722.508 88.4474 720.299 88.4474Z" fill="#D1D5DA"/>
<path d="M629.356 88.4474L595.355 88.4474C593.146 88.4474 591.355 86.6566 591.355 84.4475L591.355 50.442C591.355 48.2328 593.146 46.442 595.355 46.442L629.356 46.442C631.566 46.442 633.356 48.2328 633.356 50.442L633.356 84.4474C633.356 86.6566 631.566 88.4474 629.356 88.4474Z" fill="#24292E"/>
<path d="M447.473 88.4474L413.471 88.4474C411.262 88.4474 409.471 86.6566 409.471 84.4475L409.471 50.442C409.471 48.2328 411.262 46.442 413.471 46.442L447.473 46.442C449.682 46.442 451.473 48.2328 451.473 50.442L451.473 84.4474C451.473 86.6566 449.682 88.4474 447.473 88.4474Z" fill="#F6F8FA"/>
<path d="M492.944 88.4474L458.942 88.4474C456.733 88.4474 454.942 86.6566 454.942 84.4475L454.942 50.442C454.942 48.2328 456.733 46.442 458.942 46.442L492.944 46.442C495.153 46.442 496.944 48.2328 496.944 50.442L496.944 84.4474C496.944 86.6566 495.153 88.4474 492.944 88.4474Z" fill="#E1E4E8"/>
<path d="M538.415 88.4474L504.413 88.4474C502.204 88.4474 500.413 86.6566 500.413 84.4475L500.413 50.442C500.413 48.2328 502.204 46.442 504.413 46.442L538.415 46.442C540.624 46.442 542.415 48.2328 542.415 50.442L542.415 84.4474C542.415 86.6566 540.624 88.4474 538.415 88.4474Z" fill="#2F363D"/>
<path d="M583.886 88.4474L549.884 88.4474C547.675 88.4474 545.884 86.6566 545.884 84.4475L545.884 50.442C545.884 48.2328 547.675 46.442 549.884 46.442L583.886 46.442C586.095 46.442 587.886 48.2328 587.886 50.442L587.886 84.4474C587.886 86.6566 586.095 88.4474 583.886 88.4474Z" fill="#2F363D"/>
<path d="M447.473 135.027L413.471 135.027C411.262 135.027 409.471 133.237 409.471 131.027L409.471 97.0219C409.471 94.8128 411.262 93.0219 413.471 93.0219L447.473 93.0219C449.682 93.0219 451.473 94.8128 451.473 97.0219L451.473 131.027C451.473 133.237 449.682 135.027 447.473 135.027Z" fill="#24292E"/>
<path d="M538.415 135.027L504.413 135.027C502.204 135.027 500.413 133.237 500.413 131.027L500.413 97.0219C500.413 94.8128 502.204 93.0219 504.413 93.0219L538.415 93.0219C540.624 93.0219 542.415 94.8128 542.415 97.0219L542.415 131.027C542.415 133.237 540.624 135.027 538.415 135.027Z" fill="#F3F3F3"/>
<path d="M583.886 135.027L549.884 135.027C547.675 135.027 545.884 133.237 545.884 131.027L545.884 97.0219C545.884 94.8128 547.675 93.0219 549.884 93.0219L583.886 93.0219C586.095 93.0219 587.886 94.8128 587.886 97.0219L587.886 131.027C587.886 133.237 586.095 135.027 583.886 135.027Z" fill="#F6F8FA"/>
<path d="M447.473 507.668L413.471 507.668C411.262 507.668 409.471 505.877 409.471 503.668L409.471 469.662C409.471 467.453 411.262 465.662 413.471 465.662L447.473 465.662C449.682 465.662 451.473 467.453 451.473 469.662L451.473 503.668C451.473 505.877 449.682 507.668 447.473 507.668Z" fill="#FAFBFC"/>
<path d="M492.944 507.668L458.942 507.668C456.733 507.668 454.942 505.877 454.942 503.668L454.942 469.662C454.942 467.453 456.733 465.662 458.942 465.662L492.944 465.662C495.153 465.662 496.944 467.453 496.944 469.662L496.944 503.668C496.944 505.877 495.153 507.668 492.944 507.668Z" fill="#2F363D"/>
<path d="M538.415 507.668L504.413 507.668C502.204 507.668 500.413 505.877 500.413 503.668L500.413 469.662C500.413 467.453 502.204 465.662 504.413 465.662L538.415 465.662C540.624 465.662 542.415 467.453 542.415 469.662L542.415 503.668C542.415 505.877 540.624 507.668 538.415 507.668Z" fill="#6A737D"/>
<path d="M629.356 461.088L595.355 461.088C593.146 461.088 591.355 459.297 591.355 457.088L591.355 423.082C591.355 420.873 593.146 419.082 595.355 419.082L629.356 419.082C631.566 419.082 633.356 420.873 633.356 423.082L633.356 457.088C633.356 459.297 631.566 461.088 629.356 461.088Z" fill="#444D56"/>
<path d="M447.473 461.088L413.471 461.088C411.262 461.088 409.471 459.297 409.471 457.088L409.471 423.082C409.471 420.873 411.262 419.082 413.471 419.082L447.473 419.082C449.682 419.082 451.473 420.873 451.473 423.082L451.473 457.088C451.473 459.297 449.682 461.088 447.473 461.088Z" fill="#2F363D"/>
<path d="M538.415 461.088L504.413 461.088C502.204 461.088 500.413 459.297 500.413 457.088L500.413 423.082C500.413 420.873 502.204 419.082 504.413 419.082L538.415 419.082C540.624 419.082 542.415 420.873 542.415 423.082L542.415 457.088C542.415 459.297 540.624 461.088 538.415 461.088Z" fill="#2F363D"/>
<path d="M583.886 461.088L549.884 461.088C547.675 461.088 545.884 459.297 545.884 457.088L545.884 423.082C545.884 420.873 547.675 419.082 549.884 419.082L583.886 419.082C586.095 419.082 587.886 420.873 587.886 423.082L587.886 457.088C587.886 459.297 586.095 461.088 583.886 461.088Z" fill="#444D56"/>
<path d="M674.827 414.508L640.826 414.508C638.617 414.508 636.826 412.717 636.826 410.508L636.826 376.502C636.826 374.293 638.617 372.502 640.826 372.502L674.827 372.502C677.037 372.502 678.827 374.293 678.827 376.502L678.827 410.508C678.827 412.717 677.037 414.508 674.827 414.508Z" fill="#F6F8FA"/>
<path d="M447.473 414.508L413.471 414.508C411.262 414.508 409.471 412.717 409.471 410.508L409.471 376.502C409.471 374.293 411.262 372.502 413.471 372.502L447.473 372.502C449.682 372.502 451.473 374.293 451.473 376.502L451.473 410.508C451.473 412.717 449.682 414.508 447.473 414.508Z" fill="#586069"/>
<path d="M492.944 414.508L458.942 414.508C456.733 414.508 454.942 412.717 454.942 410.508L454.942 376.502C454.942 374.293 456.733 372.502 458.942 372.502L492.944 372.502C495.153 372.502 496.944 374.293 496.944 376.502L496.944 410.508C496.944 412.717 495.153 414.508 492.944 414.508Z" fill="#2F363D"/>
<path d="M538.415 414.508L504.413 414.508C502.204 414.508 500.413 412.717 500.413 410.508L500.413 376.502C500.413 374.293 502.204 372.502 504.413 372.502L538.415 372.502C540.624 372.502 542.415 374.293 542.415 376.502L542.415 410.508C542.415 412.717 540.624 414.508 538.415 414.508Z" fill="#6A737D"/>
<path d="M629.356 181.607L595.355 181.607C593.146 181.607 591.355 179.817 591.355 177.607L591.355 143.602C591.355 141.393 593.146 139.602 595.355 139.602L629.356 139.602C631.566 139.602 633.356 141.393 633.356 143.602L633.356 177.607C633.356 179.817 631.566 181.607 629.356 181.607Z" fill="#6A737D"/>
<path d="M447.473 181.607L413.471 181.607C411.262 181.607 409.471 179.817 409.471 177.607L409.471 143.602C409.471 141.393 411.262 139.602 413.471 139.602L447.473 139.602C449.682 139.602 451.473 141.393 451.473 143.602L451.473 177.607C451.473 179.817 449.682 181.607 447.473 181.607Z" fill="#F6F8FA"/>
<path d="M538.415 181.607L504.413 181.607C502.204 181.607 500.413 179.817 500.413 177.607L500.413 143.602C500.413 141.393 502.204 139.602 504.413 139.602L538.415 139.602C540.624 139.602 542.415 141.393 542.415 143.602L542.415 177.607C542.415 179.817 540.624 181.607 538.415 181.607Z" fill="#586069"/>
<path d="M629.357 228.187L595.355 228.187C593.146 228.187 591.355 226.397 591.355 224.188L591.355 190.182C591.355 187.973 593.146 186.182 595.355 186.182L629.357 186.182C631.566 186.182 633.357 187.973 633.357 190.182L633.357 224.187C633.357 226.397 631.566 228.187 629.357 228.187Z" fill="#444D56"/>
<path d="M447.473 228.187L413.471 228.187C411.262 228.187 409.471 226.397 409.471 224.187L409.471 190.182C409.471 187.973 411.262 186.182 413.471 186.182L447.473 186.182C449.682 186.182 451.473 187.973 451.473 190.182L451.473 224.187C451.473 226.397 449.682 228.187 447.473 228.187Z" fill="#F6F8FA"/>
<path d="M492.944 228.187L458.942 228.187C456.733 228.187 454.942 226.397 454.942 224.187L454.942 190.182C454.942 187.973 456.733 186.182 458.942 186.182L492.944 186.182C495.153 186.182 496.944 187.973 496.944 190.182L496.944 224.187C496.944 226.397 495.153 228.187 492.944 228.187Z" fill="#444D56"/>
<path d="M538.415 228.187L504.413 228.187C502.204 228.187 500.413 226.397 500.413 224.188L500.413 190.182C500.413 187.973 502.204 186.182 504.413 186.182L538.415 186.182C540.624 186.182 542.415 187.973 542.415 190.182L542.415 224.187C542.415 226.397 540.624 228.187 538.415 228.187Z" fill="#444D56"/>
<path d="M583.886 228.187L549.884 228.187C547.675 228.187 545.884 226.397 545.884 224.188L545.884 190.182C545.884 187.973 547.675 186.182 549.884 186.182L583.886 186.182C586.095 186.182 587.886 187.973 587.886 190.182L587.886 224.187C587.886 226.397 586.095 228.187 583.886 228.187Z" fill="#444D56"/>
<path d="M402.002 647.408L368 647.408C365.791 647.408 364 645.617 364 643.408L364 609.402C364 607.193 365.791 605.402 368 605.402L402.002 605.402C404.211 605.402 406.002 607.193 406.002 609.402L406.002 643.408C406.002 645.617 404.211 647.408 402.002 647.408Z" fill="#586069"/>
<path d="M402.002 42.0056L368 42.0056C365.791 42.0056 364 40.2147 364 38.0055L364 4.00001C364 1.79087 365.791 7.49106e-06 368 7.32041e-06L402.002 4.69392e-06C404.211 4.52327e-06 406.002 1.79087 406.002 4.00001L406.002 38.0056C406.002 40.2147 404.211 42.0056 402.002 42.0056Z" fill="#6A737D"/>
<path d="M402.002 367.928L368 367.928C365.791 367.928 364 366.137 364 363.928L364 329.922C364 327.713 365.791 325.922 368 325.922L402.002 325.922C404.211 325.922 406.002 327.713 406.002 329.922L406.002 363.928C406.002 366.137 404.211 367.928 402.002 367.928Z" fill="#F6F8FA"/>
<path d="M402.002 135.027L368 135.027C365.791 135.027 364 133.237 364 131.027L364 97.0219C364 94.8128 365.791 93.0219 368 93.0219L402.002 93.0219C404.211 93.0219 406.002 94.8128 406.002 97.0219L406.002 131.027C406.002 133.237 404.211 135.027 402.002 135.027Z" fill="#586069"/>
<path d="M402.002 507.668L368 507.668C365.791 507.668 364 505.877 364 503.668L364 469.662C364 467.453 365.791 465.662 368 465.662L402.002 465.662C404.211 465.662 406.002 467.453 406.002 469.662L406.002 503.668C406.002 505.877 404.211 507.668 402.002 507.668Z" fill="#959DA5"/>
<path d="M402.002 461.088L368 461.088C365.791 461.088 364 459.297 364 457.088L364 423.082C364 420.873 365.791 419.082 368 419.082L402.002 419.082C404.211 419.082 406.002 420.873 406.002 423.082L406.002 457.088C406.002 459.297 404.211 461.088 402.002 461.088Z" fill="#959DA5"/>
<path d="M402.002 414.508L368 414.508C365.791 414.508 364 412.717 364 410.508L364 376.502C364 374.293 365.791 372.502 368 372.502L402.002 372.502C404.211 372.502 406.002 374.293 406.002 376.502L406.002 410.508C406.002 412.717 404.211 414.508 402.002 414.508Z" fill="#F6F8FA"/>
<path d="M402.002 228.187L368 228.187C365.791 228.187 364 226.397 364 224.188L364 190.182C364 187.973 365.791 186.182 368 186.182L402.002 186.182C404.211 186.182 406.002 187.973 406.002 190.182L406.002 224.187C406.002 226.397 404.211 228.187 402.002 228.187Z" fill="#586069"/>
<path d="M402.002 274.768L368 274.768C365.791 274.768 364 272.977 364 270.768L364 236.762C364 234.553 365.791 232.762 368 232.762L402.002 232.762C404.211 232.762 406.002 234.553 406.002 236.762L406.002 270.768C406.002 272.977 404.211 274.768 402.002 274.768Z" fill="#F6F8FA"/>
<path d="M447.473 274.768L413.471 274.768C411.262 274.768 409.471 272.977 409.471 270.768L409.471 236.762C409.471 234.553 411.262 232.762 413.471 232.762L447.473 232.762C449.682 232.762 451.473 234.553 451.473 236.762L451.473 270.768C451.473 272.977 449.682 274.768 447.473 274.768Z" fill="#2F363D"/>
<path d="M583.886 274.768L549.884 274.768C547.675 274.768 545.884 272.977 545.884 270.768L545.884 236.762C545.884 234.553 547.675 232.762 549.884 232.762L583.886 232.762C586.095 232.762 587.886 234.553 587.886 236.762L587.886 270.768C587.886 272.977 586.095 274.768 583.886 274.768Z" fill="#586069"/>
<path d="M447.473 321.348L413.471 321.348C411.262 321.348 409.471 319.557 409.471 317.348L409.471 283.342C409.471 281.133 411.262 279.342 413.471 279.342L447.473 279.342C449.682 279.342 451.473 281.133 451.473 283.342L451.473 317.348C451.473 319.557 449.682 321.348 447.473 321.348Z" fill="#6A737D"/>
<path d="M492.944 321.348L458.942 321.348C456.733 321.348 454.942 319.557 454.942 317.348L454.942 283.342C454.942 281.133 456.733 279.342 458.942 279.342L492.944 279.342C495.153 279.342 496.944 281.133 496.944 283.342L496.944 317.348C496.944 319.557 495.153 321.348 492.944 321.348Z" fill="#6A737D"/>
<path d="M538.415 321.348L504.413 321.348C502.204 321.348 500.413 319.557 500.413 317.348L500.413 283.342C500.413 281.133 502.204 279.342 504.413 279.342L538.415 279.342C540.624 279.342 542.415 281.133 542.415 283.342L542.415 317.348C542.415 319.557 540.624 321.348 538.415 321.348Z" fill="#586069"/>
<path d="M583.886 321.348L549.884 321.348C547.675 321.348 545.884 319.557 545.884 317.348L545.884 283.342C545.884 281.133 547.675 279.342 549.884 279.342L583.886 279.342C586.095 279.342 587.886 281.133 587.886 283.342L587.886 317.348C587.886 319.557 586.095 321.348 583.886 321.348Z" fill="#586069"/>
<path d="M128.944 42.0056L94.9419 42.0056C92.7328 42.0056 90.9419 40.2147 90.9419 38.0055L90.9419 4.00001C90.9419 1.79087 92.7328 7.64762e-06 94.9419 7.6701e-06L128.944 8.01614e-06C131.153 8.03862e-06 132.944 1.79087 132.944 4.00002L132.944 38.0056C132.944 40.2147 131.153 42.0056 128.944 42.0056Z" fill="#F6F8FA"/>
<path d="M128.944 368.066L94.9419 368.066C92.7328 368.066 90.9419 366.275 90.9419 364.066L90.9419 330.06C90.9419 327.851 92.7328 326.06 94.9419 326.06L128.944 326.06C131.153 326.06 132.944 327.851 132.944 330.06L132.944 364.066C132.944 366.275 131.153 368.066 128.944 368.066Z" fill="#586069"/>
<path d="M128.944 88.5856L94.9419 88.5856C92.7328 88.5856 90.9419 86.7947 90.9419 84.5856L90.9419 50.5801C90.9419 48.371 92.7328 46.5801 94.9419 46.5801L128.944 46.5801C131.153 46.5801 132.944 48.3709 132.944 50.5801L132.944 84.5856C132.944 86.7947 131.153 88.5856 128.944 88.5856Z" fill="#24292E"/>
<path d="M128.944 414.646L94.9419 414.646C92.7328 414.646 90.9419 412.855 90.9419 410.646L90.9419 376.64C90.9419 374.431 92.7328 372.64 94.9419 372.64L128.944 372.64C131.153 372.64 132.944 374.431 132.944 376.64L132.944 410.646C132.944 412.855 131.153 414.646 128.944 414.646Z" fill="#586069"/>
<path d="M128.944 181.746L94.9419 181.746C92.7328 181.746 90.9419 179.955 90.9419 177.746L90.9419 143.74C90.9419 141.531 92.7328 139.74 94.9419 139.74L128.944 139.74C131.153 139.74 132.944 141.531 132.944 143.74L132.944 177.746C132.944 179.955 131.153 181.746 128.944 181.746Z" fill="#6A737D"/>
<path d="M128.944 228.326L94.9419 228.326C92.7328 228.326 90.9419 226.535 90.9419 224.326L90.9419 190.32C90.9419 188.111 92.7328 186.32 94.9419 186.32L128.944 186.32C131.153 186.32 132.944 188.111 132.944 190.32L132.944 224.326C132.944 226.535 131.153 228.326 128.944 228.326Z" fill="#444D56"/>
<path d="M310.827 694.125L276.826 694.125C274.617 694.125 272.826 692.334 272.826 690.125L272.826 656.12C272.826 653.911 274.617 652.12 276.826 652.12L310.827 652.12C313.037 652.12 314.827 653.911 314.827 656.12L314.827 690.125C314.827 692.334 313.037 694.125 310.827 694.125Z" fill="#F6F8FA"/>
<path d="M310.827 88.5856L276.826 88.5856C274.617 88.5856 272.826 86.7947 272.826 84.5856L272.826 50.5801C272.826 48.371 274.617 46.5801 276.826 46.5801L310.827 46.5801C313.037 46.5801 314.827 48.3709 314.827 50.5801L314.827 84.5856C314.827 86.7947 313.037 88.5856 310.827 88.5856Z" fill="#F6F8FA"/>
<path d="M310.827 135.166L276.826 135.166C274.617 135.166 272.826 133.375 272.826 131.166L272.826 97.16C272.826 94.9509 274.617 93.16 276.826 93.16L310.827 93.16C313.037 93.16 314.827 94.9509 314.827 97.16L314.827 131.166C314.827 133.375 313.037 135.166 310.827 135.166Z" fill="#E1E4E8"/>
<path d="M310.827 228.326L276.826 228.326C274.617 228.326 272.826 226.535 272.826 224.326L272.826 190.32C272.826 188.111 274.617 186.32 276.826 186.32L310.827 186.32C313.037 186.32 314.827 188.111 314.827 190.32L314.827 224.326C314.827 226.535 313.037 228.326 310.827 228.326Z" fill="#959DA5"/>
<path d="M356.299 42.0056L322.297 42.0056C320.088 42.0056 318.297 40.2147 318.297 38.0055L318.297 4.00001C318.297 1.79087 320.088 7.64762e-06 322.297 7.6701e-06L356.299 8.01614e-06C358.508 8.03862e-06 360.299 1.79087 360.299 4.00002L360.299 38.0056C360.299 40.2147 358.508 42.0056 356.299 42.0056Z" fill="#6A737D"/>
<path d="M356.299 135.166L322.297 135.166C320.088 135.166 318.297 133.375 318.297 131.166L318.297 97.16C318.297 94.9509 320.088 93.16 322.297 93.16L356.299 93.16C358.508 93.16 360.299 94.9509 360.299 97.16L360.299 131.166C360.299 133.375 358.508 135.166 356.299 135.166Z" fill="#586069"/>
<path d="M356.299 507.806L322.297 507.806C320.088 507.806 318.297 506.015 318.297 503.806L318.297 469.8C318.297 467.591 320.088 465.8 322.297 465.8L356.299 465.8C358.508 465.8 360.299 467.591 360.299 469.8L360.299 503.806C360.299 506.015 358.508 507.806 356.299 507.806Z" fill="#959DA5"/>
<path d="M356.299 414.646L322.297 414.646C320.088 414.646 318.297 412.855 318.297 410.646L318.297 376.64C318.297 374.431 320.088 372.64 322.297 372.64L356.299 372.64C358.508 372.64 360.299 374.431 360.299 376.64L360.299 410.646C360.299 412.855 358.508 414.646 356.299 414.646Z" fill="#F6F8FA"/>
<path d="M356.299 228.326L322.297 228.326C320.088 228.326 318.297 226.535 318.297 224.326L318.297 190.32C318.297 188.111 320.088 186.32 322.297 186.32L356.299 186.32C358.508 186.32 360.299 188.111 360.299 190.32L360.299 224.326C360.299 226.535 358.508 228.326 356.299 228.326Z" fill="#586069"/>
<path d="M265.357 647.546L231.355 647.546C229.146 647.546 227.355 645.755 227.355 643.546L227.355 609.54C227.355 607.331 229.146 605.54 231.355 605.54L265.357 605.54C267.566 605.54 269.357 607.331 269.357 609.54L269.357 643.546C269.357 645.755 267.566 647.546 265.357 647.546Z" fill="#E1E4E8"/>
<path d="M265.357 554.386L231.355 554.386C229.146 554.386 227.355 552.595 227.355 550.386L227.355 516.38C227.355 514.171 229.146 512.38 231.355 512.38L265.357 512.38C267.566 512.38 269.357 514.171 269.357 516.38L269.357 550.386C269.357 552.595 267.566 554.386 265.357 554.386Z" fill="#24292E"/>
<path d="M265.357 42.0056L231.355 42.0056C229.146 42.0056 227.355 40.2147 227.355 38.0055L227.355 4.00001C227.355 1.79087 229.146 7.64762e-06 231.355 7.6701e-06L265.357 8.01614e-06C267.566 8.03862e-06 269.357 1.79087 269.357 4.00002L269.357 38.0056C269.357 40.2147 267.566 42.0056 265.357 42.0056Z" fill="#959DA5"/>
<path d="M265.357 368.066L231.355 368.066C229.146 368.066 227.355 366.275 227.355 364.066L227.355 330.06C227.355 327.851 229.146 326.06 231.355 326.06L265.357 326.06C267.566 326.06 269.357 327.851 269.357 330.06L269.357 364.066C269.357 366.275 267.566 368.066 265.357 368.066Z" fill="#6A737D"/>
<path d="M265.356 88.5856L231.355 88.5856C229.146 88.5856 227.355 86.7947 227.355 84.5856L227.355 50.5801C227.355 48.371 229.146 46.5801 231.355 46.5801L265.356 46.5801C267.566 46.5801 269.356 48.3709 269.356 50.5801L269.356 84.5856C269.356 86.7947 267.566 88.5856 265.356 88.5856Z" fill="#F6F8FA"/>
<path d="M265.357 135.166L231.355 135.166C229.146 135.166 227.355 133.375 227.355 131.166L227.355 97.16C227.355 94.9509 229.146 93.16 231.355 93.16L265.357 93.16C267.566 93.16 269.357 94.9509 269.357 97.16L269.357 131.166C269.357 133.375 267.566 135.166 265.357 135.166Z" fill="#E1E4E8"/>
<path d="M265.357 507.806L231.355 507.806C229.146 507.806 227.355 506.015 227.355 503.806L227.355 469.8C227.355 467.591 229.146 465.8 231.355 465.8L265.357 465.8C267.566 465.8 269.357 467.591 269.357 469.8L269.357 503.806C269.357 506.015 267.566 507.806 265.357 507.806Z" fill="#F6F8FA"/>
<path d="M265.357 461.226L231.355 461.226C229.146 461.226 227.355 459.435 227.355 457.226L227.355 423.22C227.355 421.011 229.146 419.22 231.355 419.22L265.357 419.22C267.566 419.22 269.357 421.011 269.357 423.22L269.357 457.226C269.357 459.435 267.566 461.226 265.357 461.226Z" fill="#F6F8FA"/>
<path d="M265.357 414.646L231.355 414.646C229.146 414.646 227.355 412.855 227.355 410.646L227.355 376.64C227.355 374.431 229.146 372.64 231.355 372.64L265.357 372.64C267.566 372.64 269.357 374.431 269.357 376.64L269.357 410.646C269.357 412.855 267.566 414.646 265.357 414.646Z" fill="#2F363D"/>
<path d="M265.357 181.746L231.355 181.746C229.146 181.746 227.355 179.955 227.355 177.746L227.355 143.74C227.355 141.531 229.146 139.74 231.355 139.74L265.357 139.74C267.566 139.74 269.357 141.531 269.357 143.74L269.357 177.746C269.357 179.955 267.566 181.746 265.357 181.746Z" fill="#FAFBFC"/>
<path d="M265.357 228.326L231.355 228.326C229.146 228.326 227.355 226.535 227.355 224.326L227.355 190.32C227.355 188.111 229.146 186.32 231.355 186.32L265.357 186.32C267.566 186.32 269.357 188.111 269.357 190.32L269.357 224.326C269.357 226.535 267.566 228.326 265.357 228.326Z" fill="#2F363D"/>
<path d="M265.357 274.906L231.355 274.906C229.146 274.906 227.355 273.115 227.355 270.906L227.355 236.9C227.355 234.691 229.146 232.9 231.355 232.9L265.357 232.9C267.566 232.9 269.357 234.691 269.357 236.9L269.357 270.906C269.357 273.115 267.566 274.906 265.357 274.906Z" fill="#586069"/>
<path d="M38.0018 368.066L4 368.066C1.79086 368.066 1.82256e-08 366.275 4.07081e-08 364.066L3.86784e-07 330.06C4.09266e-07 327.851 1.79085 326.06 3.99999 326.06L38.0018 326.06C40.2109 326.06 42.0018 327.851 42.0018 330.06L42.0018 364.066C42.0018 366.275 40.2109 368.066 38.0018 368.066Z" fill="#FAFBFC"/>
<path d="M38.0018 135.166L4 135.166C1.79086 135.166 1.82257e-08 133.375 4.07081e-08 131.166L3.86783e-07 97.16C4.09266e-07 94.9509 1.79086 93.16 4 93.16L38.0018 93.16C40.2109 93.16 42.0018 94.9509 42.0018 97.16L42.0018 131.166C42.0018 133.375 40.2109 135.166 38.0018 135.166Z" fill="#F3F3F3"/>
<path d="M38.0018 321.486L4 321.486C1.79086 321.486 1.82257e-08 319.695 4.07081e-08 317.486L3.86783e-07 283.48C4.09266e-07 281.271 1.79086 279.48 4 279.48L38.0018 279.48C40.2109 279.48 42.0018 281.271 42.0018 283.48L42.0018 317.486C42.0018 319.695 40.2109 321.486 38.0018 321.486Z" fill="#586069"/>
<path d="M83.4727 42.0056L49.4709 42.0056C47.2618 42.0056 45.4709 40.2147 45.4709 38.0055L45.4709 4.00001C45.4709 1.79087 47.2618 7.64762e-06 49.4709 7.6701e-06L83.4727 8.01614e-06C85.6819 8.03862e-06 87.4727 1.79087 87.4727 4.00002L87.4727 38.0056C87.4727 40.2147 85.6819 42.0056 83.4727 42.0056Z" fill="#2F363D"/>
<path d="M83.4727 368.066L49.4709 368.066C47.2618 368.066 45.4709 366.275 45.4709 364.066L45.4709 330.06C45.4709 327.851 47.2618 326.06 49.471 326.06L83.4727 326.06C85.6818 326.06 87.4727 327.851 87.4727 330.06L87.4727 364.066C87.4727 366.275 85.6818 368.066 83.4727 368.066Z" fill="#D1D5DA"/>
<path d="M83.4727 88.5856L49.4709 88.5856C47.2618 88.5856 45.4709 86.7947 45.4709 84.5856L45.4709 50.5801C45.4709 48.371 47.2618 46.5801 49.4709 46.5801L83.4727 46.5801C85.6819 46.5801 87.4727 48.3709 87.4727 50.5801L87.4727 84.5856C87.4727 86.7947 85.6819 88.5856 83.4727 88.5856Z" fill="#2F363D"/>
<path d="M83.4727 135.166L49.4709 135.166C47.2618 135.166 45.4709 133.375 45.4709 131.166L45.4709 97.16C45.4709 94.9509 47.2618 93.16 49.4709 93.16L83.4727 93.16C85.6819 93.16 87.4727 94.9509 87.4727 97.16L87.4727 131.166C87.4727 133.375 85.6819 135.166 83.4727 135.166Z" fill="#F6F8FA"/>
<path d="M83.4727 228.326L49.4709 228.326C47.2618 228.326 45.4709 226.535 45.4709 224.326L45.4709 190.32C45.4709 188.111 47.2618 186.32 49.4709 186.32L83.4727 186.32C85.6819 186.32 87.4727 188.111 87.4727 190.32L87.4727 224.326C87.4727 226.535 85.6819 228.326 83.4727 228.326Z" fill="#444D56"/>
<path d="M83.4727 321.486L49.4709 321.486C47.2618 321.486 45.4709 319.695 45.4709 317.486L45.4709 283.48C45.4709 281.271 47.2618 279.48 49.4709 279.48L83.4727 279.48C85.6819 279.48 87.4727 281.271 87.4727 283.48L87.4727 317.486C87.4727 319.695 85.6819 321.486 83.4727 321.486Z" fill="#586069"/>
<path d="M174.415 600.966L140.413 600.966C138.204 600.966 136.413 599.175 136.413 596.966L136.413 562.96C136.413 560.751 138.204 558.96 140.413 558.96L174.415 558.96C176.624 558.96 178.415 560.751 178.415 562.96L178.415 596.966C178.415 599.175 176.624 600.966 174.415 600.966Z" fill="#2F363D"/>
<path d="M174.415 368.066L140.413 368.066C138.204 368.066 136.413 366.275 136.413 364.066L136.413 330.06C136.413 327.851 138.204 326.06 140.413 326.06L174.415 326.06C176.624 326.06 178.415 327.851 178.415 330.06L178.415 364.066C178.415 366.275 176.624 368.066 174.415 368.066Z" fill="#586069"/>
<path d="M174.415 88.5856L140.413 88.5856C138.204 88.5856 136.413 86.7947 136.413 84.5856L136.413 50.5801C136.413 48.371 138.204 46.5801 140.413 46.5801L174.415 46.5801C176.624 46.5801 178.415 48.3709 178.415 50.5801L178.415 84.5856C178.415 86.7947 176.624 88.5856 174.415 88.5856Z" fill="#24292E"/>
<path d="M174.415 135.166L140.413 135.166C138.204 135.166 136.413 133.375 136.413 131.166L136.413 97.16C136.413 94.9509 138.204 93.16 140.413 93.16L174.415 93.16C176.624 93.16 178.415 94.9509 178.415 97.16L178.415 131.166C178.415 133.375 176.624 135.166 174.415 135.166Z" fill="#959DA5"/>
<path d="M174.415 461.226L140.413 461.226C138.204 461.226 136.413 459.435 136.413 457.226L136.413 423.22C136.413 421.011 138.204 419.22 140.413 419.22L174.415 419.22C176.624 419.22 178.415 421.011 178.415 423.22L178.415 457.226C178.415 459.435 176.624 461.226 174.415 461.226Z" fill="#444D56"/>
<path d="M174.415 414.646L140.413 414.646C138.204 414.646 136.413 412.855 136.413 410.646L136.413 376.64C136.413 374.431 138.204 372.64 140.413 372.64L174.415 372.64C176.624 372.64 178.415 374.431 178.415 376.64L178.415 410.646C178.415 412.855 176.624 414.646 174.415 414.646Z" fill="#F6F8FA"/>
<path d="M174.415 181.746L140.413 181.746C138.204 181.746 136.413 179.955 136.413 177.746L136.413 143.74C136.413 141.531 138.204 139.74 140.413 139.74L174.415 139.74C176.624 139.74 178.415 141.531 178.415 143.74L178.415 177.746C178.415 179.955 176.624 181.746 174.415 181.746Z" fill="#6A737D"/>
<path d="M174.415 274.906L140.413 274.906C138.204 274.906 136.413 273.115 136.413 270.906L136.413 236.9C136.413 234.691 138.204 232.9 140.413 232.9L174.415 232.9C176.624 232.9 178.415 234.691 178.415 236.9L178.415 270.906C178.415 273.115 176.624 274.906 174.415 274.906Z" fill="#6A737D"/>
<path d="M174.415 321.486L140.413 321.486C138.204 321.486 136.413 319.695 136.413 317.486L136.413 283.48C136.413 281.271 138.204 279.48 140.413 279.48L174.415 279.48C176.624 279.48 178.415 281.271 178.415 283.48L178.415 317.486C178.415 319.695 176.624 321.486 174.415 321.486Z" fill="#FAFBFC"/>
<path d="M219.886 507.806L185.884 507.806C183.675 507.806 181.884 506.015 181.884 503.806L181.884 469.8C181.884 467.591 183.675 465.8 185.884 465.8L219.886 465.8C222.095 465.8 223.886 467.591 223.886 469.8L223.886 503.806C223.886 506.015 222.095 507.806 219.886 507.806Z" fill="#586069"/>
<path d="M219.886 461.226L185.884 461.226C183.675 461.226 181.884 459.435 181.884 457.226L181.884 423.22C181.884 421.011 183.675 419.22 185.884 419.22L219.886 419.22C222.095 419.22 223.886 421.011 223.886 423.22L223.886 457.226C223.886 459.435 222.095 461.226 219.886 461.226Z" fill="#444D56"/>
<path d="M219.886 414.646L185.884 414.646C183.675 414.646 181.884 412.855 181.884 410.646L181.884 376.64C181.884 374.431 183.675 372.64 185.884 372.64L219.886 372.64C222.095 372.64 223.886 374.431 223.886 376.64L223.886 410.646C223.886 412.855 222.095 414.646 219.886 414.646Z" fill="#2F363D"/>
<path d="M219.886 181.746L185.884 181.746C183.675 181.746 181.884 179.955 181.884 177.746L181.884 143.74C181.884 141.531 183.675 139.74 185.884 139.74L219.886 139.74C222.095 139.74 223.886 141.531 223.886 143.74L223.886 177.746C223.886 179.955 222.095 181.746 219.886 181.746Z" fill="#2F363D"/>
<path d="M219.886 228.326L185.884 228.326C183.675 228.326 181.884 226.535 181.884 224.326L181.884 190.32C181.884 188.111 183.675 186.32 185.884 186.32L219.886 186.32C222.095 186.32 223.886 188.111 223.886 190.32L223.886 224.326C223.886 226.535 222.095 228.326 219.886 228.326Z" fill="#F4F4F4"/>
<path d="M219.886 274.906L185.884 274.906C183.675 274.906 181.884 273.115 181.884 270.906L181.884 236.9C181.884 234.691 183.675 232.9 185.884 232.9L219.886 232.9C222.095 232.9 223.886 234.691 223.886 236.9L223.886 270.906C223.886 273.115 222.095 274.906 219.886 274.906Z" fill="#2F363D"/>
<path d="M219.886 321.486L185.884 321.486C183.675 321.486 181.884 319.695 181.884 317.486L181.884 283.48C181.884 281.271 183.675 279.48 185.884 279.48L219.886 279.48C222.095 279.48 223.886 281.271 223.886 283.48L223.886 317.486C223.886 319.695 222.095 321.486 219.886 321.486Z" fill="#FAFBFC"/>
</svg>
