<svg id="code_review" data-name="code review" xmlns="http://www.w3.org/2000/svg" viewBox="0 0 1430 800"><defs><style>.cls-1,.cls-3,.cls-4{fill:none;stroke-linecap:round;stroke-width:3px}.cls-1{stroke:#e5e7ea}.cls-1,.cls-3{stroke-miterlimit:10}.cls-4{stroke-linejoin:round}.cls-3,.cls-4{stroke:#34d058}</style></defs><path class="cls-1" d="M1384.79 331.69h-17.99M1099.85 111.02H993.12M1145.57 111.02h-21.95M1361.9 111.02h-21.94M1069.01 71.15h-34.33M1342.34 71.15h-34.33M1375.33 71.15h-15.18"/><path stroke-linejoin="round" stroke="#ea4a5a" fill="none" stroke-linecap="round" stroke-width="3" d="M1027.68 131.77h-9.03"/><path class="cls-1" d="M1078.7 92.25h-9.69M1073.86 87.41v9.69M1078.7 131.77h-9.69M1073.86 126.92v9.69"/><path class="cls-3" d="M292.86 283.77h-9.69M288.02 278.92v9.69"/><path class="cls-4" d="M292.86 323.28h-9.69M288.02 318.44v9.69"/><path d="M1206 165.25h17.53a3 3 0 0 0 3-3v-21.72a3 3 0 0 0-3-3h-21.73a3 3 0 0 0-3 3v31.59z" stroke="#8a64d2" stroke-linejoin="round" fill="none" stroke-linecap="round" stroke-width="3"/><path d="M1288.61 423.38h17.53a3 3 0 0 0 3-3v-21.72a3 3 0 0 0-3-3h-21.72a3 3 0 0 0-3 3v31.59z" stroke="#f66a09" stroke-linejoin="round" fill="none" stroke-linecap="round" stroke-width="3"/><path d="M202.19 519.33h17.53a3 3 0 0 0 3-3v-21.72a3 3 0 0 0-3-3H198a3 3 0 0 0-3 3v31.59z" stroke="#cb2431" stroke-linejoin="round" fill="none" stroke-linecap="round" stroke-width="3"/><path d="M1301.92 236.63h-17.52a3 3 0 0 1-3-3v-21.72a3 3 0 0 1 3-3h21.72a3 3 0 0 1 3 3v31.59z" stroke="#ffd33d" stroke-linejoin="round" fill="none" stroke-linecap="round" stroke-width="3"/><path d="M1379.15 678.88h-17.53a3 3 0 0 1-3-3v-21.72a3 3 0 0 1 3-3h21.72a3 3 0 0 1 3 3v31.59z" stroke-linejoin="round" stroke="#e5e7ea" fill="none" stroke-linecap="round" stroke-width="3"/><path d="M149.26 225.55h-17.53a3 3 0 0 1-3-3v-21.72a3 3 0 0 1 3-3h21.72a3 3 0 0 1 3 3v31.59z" stroke="#2088ff" stroke-linejoin="round" fill="none" stroke-linecap="round" stroke-width="3"/><path class="cls-1" d="M1353.3 331.69h-43.12M1090.85 151.59h-53.64M1393.26 351.43h-50.16M1373.66 311.95h-35.55M1282.41 351.43h-17.19M1282.1 371.28h-42.02M1338.31 390.91h-14M1269.31 390.91h-23.95M1432 666.1h-35.92M1050.73 151.59V71.15M1187.04 601.56h-47.59M1243.74 601.56h-37.17M1280.75 601.56h-27.4M1213.7 561.69h-30.16M1257.34 561.69h-30.17M1174.01 622.31h-9.03"/><path class="cls-3" d="M1225.03 582.8h-9.69M1220.19 577.95v9.69M1225.03 622.31h-9.69M1220.19 617.46v9.69"/><path class="cls-1" d="M1222.07 642.13h-51.86M1197.06 642.13v-80.44M199.85 0v84.08a18.78 18.78 0 0 0 18.78 18.78h20.61A18.78 18.78 0 0 1 258 121.63v131.6M1135 410.66h135.61M1190.53 151.59H1128a18.78 18.78 0 0 1-18.78-18.78l.22-61.22V0M1295.24 201.66v-31.3a18.78 18.78 0 0 0-18.78-18.78h-41.29M1371.74 642.66V429.43a18.78 18.78 0 0 0-18.74-18.77h-33.29M208.85 481.77A18.78 18.78 0 0 0 190.08 463l-78-1a18.78 18.78 0 0 1-18.78-18.78l.19-210.85a18.78 18.78 0 0 1 18.82-18.73l10 .08M1295.27 435v59a18.78 18.78 0 0 1-18.78 18.78l-34.69-.08h-2.8a18.78 18.78 0 0 0-18.82 18.73v17M240.16 323.76l-33.28-.19a18.78 18.78 0 0 1-18.73-18.82l-.4-72.46A18.78 18.78 0 0 0 169 213.48h-4.27M208.85 528.7v114.66a18.78 18.78 0 0 1-18.78 18.78h-43.55M-3.6 53.77h24.37a18.78 18.78 0 0 1 18.77 18.77v122.15a18.78 18.78 0 0 0 18.78 18.78h61.28M241.79 283.94h-31.83M76.16 263.37H64.3M258.02 335.18v-61.94M357.45 303.7H237.92M319.65 323.8h-11.52M279.35 263.84h-39.59M310.55 343.69h-90.79M204.17 193.45h-35.43M119.59 193.45H97.11M222.32 303.7H210.8M130.66 283.13h-24.53M80.98 283.13H42.27M98.57 83.64H56.22M309.64 263.84h-15.88M184.23 482.87h-28.57M282.91 502.64h-44.24M181.51 502.64h-68.28M260.12 522.74h-24.99M150.55 642.38h-12.02M43.56 682.24H22.59M96.74 662.14H-3.6M119.59 682.24H60.33M185.85 642.38h-22.82M241.79 64.01h-9.9M273.35 83.78h-51.03M1290.74 92.25h-17.65M181.18 83.78h-19.11M79.36 63.81H62.11M1430.37 92.34L1314 92.25a18.78 18.78 0 0 0-18.74 18.75v78.78"/><circle class="cls-1" cx="36.41" cy="283.13" r="5.01"/><circle class="cls-1" cx="1398.26" cy="351.43" r="5.01"/><circle class="cls-1" cx="248.68" cy="64.01" r="5.01"/><circle class="cls-1" cx="1150.57" cy="111.02" r="5.01"/><path class="cls-1" d="M134.73 662.14h-5.44M118.67 662.14h-5.44"/><circle class="cls-1" cx="123.98" cy="662.14" r="5.01"/><path class="cls-1" d="M1126.1 410.66h-5.44M1110.03 410.66h-5.44"/><circle class="cls-1" cx="1115.34" cy="410.66" r="5.01"/><path class="cls-1" d="M1271.19 371.38a19.11 19.11 0 0 0-19.11 19.11M1295.27 386.9v-69.21a18.78 18.78 0 0 0-18.78-18.78h-45.64a18.78 18.78 0 0 1-18.78-18.78V174.5M1295.27 358.66V247.58M176.14 482.82a18.78 18.78 0 0 0-18.78 18.78M1334.39 331.6l19.55-19.56"/></svg>