<svg fill="none" height="22" viewBox="0 0 24 22" width="24" xmlns="http://www.w3.org/2000/svg"><path clip-rule="evenodd" d="m11.655 17.9159c.0002.0002.0004.0003.345-.6659.3446.6662.3448.6661.345.6659-.2161.1118-.4739.1118-.69 0zm0 0 .345-.6659.345.6659.0023-.0012.0054-.0028.0185-.0097c.0157-.0083.0381-.0202.0667-.0357.0573-.0309.1396-.0761.2433-.1348.2074-.1175.5011-.2897.8524-.5118.701-.4432 1.6392-1.0899 2.5811-1.9018 1.8407-1.5869 3.8853-3.9678 3.8853-6.8181 0-2.66421-2.0858-4.5-4.25-4.5-1.5474 0-2.9029.80151-3.75 2.01995-.8471-1.21844-2.20264-2.01995-3.75-2.01995-2.16421 0-4.25 1.83579-4.25 4.5 0 2.8503 2.04459 5.2312 3.8853 6.8181.94187.8119 1.88008 1.4586 2.5811 1.9018.3513.2221.645.3943.8524.5118.1037.0587.186.1039.2433.1348.0286.0155.051.0274.0667.0357l.0185.0097.0054.0028z" fill="rgb(234, 74, 170)"/></svg>