<svg width="939" height="379" xmlns="http://www.w3.org/2000/svg" viewBox="0 0 984.32 391.35"><defs><clipPath id="clip-path"><path class="cls-1" d="M489.71 49.05s47.89-56.22 103.6-15.73 17.5 103.77 17.5 103.77-45.11-11-75.39-33-45.71-55.08-45.71-55.08"/></clipPath><style>.cls-1{fill:none}.cls-2{fill:#e8eaee}.cls-3{fill:#1b8cfa}.cls-4{fill:#ffa875}.cls-5{fill:#0366d6}.cls-6{fill:#e1e4e8}.cls-7{fill:#f9fbfc}.cls-8{fill:#d0d5da}.cls-9{fill:#f6f8fa}.cls-10{fill:#ced5da}.cls-11{fill:#b2bbc4}.cls-12{fill:#959da5}.cls-13{fill:#fff}.cls-14{fill:#fedd6a}.cls-15{fill:#b8c1c9}.cls-16{fill:#6a737d}.cls-17{fill:#ffd051}.cls-18{fill:#ffdf5d}.cls-20{fill:#d1d5da}.cls-21{fill:#586069}.cls-22{fill:#fff5b1}.cls-23{fill:#f9c513}.cls-24{fill:#77bafc}.cls-25{fill:#c8e2fd}.cls-29{fill:#f2b549}.cls-34{fill:#e9ecee}</style></defs><g id="Layer_2" data-name="Layer 2"><g id="ENGINEERING"><ellipse class="cls-2" cx="718.29" cy="338.51" rx="115.68" ry="21.68"/><ellipse class="cls-2" cx="479.75" cy="341.22" rx="66.82" ry="12.2"/><ellipse class="cls-2" cx="272.83" cy="358.15" rx="81.19" ry="14.23"/><ellipse class="cls-2" cx="903.66" cy="383.22" rx="43.83" ry="8.13"/><path class="cls-3" d="M853.13 360c1.76 3.94-7.64 8.47-10.68 7.64-1.73-6.91 3.58-7.91 5.6-8.54s5.08.9 5.08.9z"/><path class="cls-4" d="M844.09 365.66a2.74 2.74 0 013-1.84s-.19 1.77-3 1.84z"/><path class="cls-3" d="M843.59 369.78l-.15-1.17c.07 0 .29 0 .33-.13s0-.6-.48-1.28l1-.65a2.56 2.56 0 01.57 2.42 1.52 1.52 0 01-1.27.81zM840.63 368.43l-1.14-.47c.68-1.45 1.34-2.2 2.15-2.47a2.31 2.31 0 011.76.21l-.6 1a.94.94 0 00-.76-.13c-.43.18-.91.79-1.41 1.86zM848.53 371.75l-1-.64c.5-.72.39-2.85-1.58-4.18l.73-1c2.43 1.73 2.73 4.54 1.85 5.82zM854.12 370.26l-1.24-.1a4.93 4.93 0 00-1.3-3.44 4.14 4.14 0 00-2.77-1.46l.11-1.17a5.4 5.4 0 013.62 1.87 6.07 6.07 0 011.58 4.3zM855.91 367a5 5 0 00-4.51-4.07h-.19v-1.36h.19a6.6 6.6 0 015.74 5.29z"/><path class="cls-3" d="M836.66 367.47l-1.25-.09a3.56 3.56 0 012.22-3.13 6.22 6.22 0 015.31.33l-.73.95a4.88 4.88 0 00-4.05-.21 2.36 2.36 0 00-1.5 2.15zM842.76 362.76a2.3 2.3 0 00-2.37-1.5.65.65 0 00-.66.76h-1.24a1.83 1.83 0 011.75-2 3.53 3.53 0 013.74 2.42zM846.89 360.75a1.73 1.73 0 00-1.32-1.58.68.68 0 00-.79.45l-1.14-.47a2 2 0 012.11-1.15 2.94 2.94 0 012.38 2.61z"/><path class="cls-4" d="M842.58 365.05a2.41 2.41 0 011.32-2.6s.68 1.15-1.32 2.6z"/><path class="cls-5" d="M322.92 311c-13.66 0-24.48-3.32-29.37-6.4-7.46-4.68-27.59-16.74-27.8-16.86l-1-.62 1.3-1.93 1 .62c.21.12 20.37 12.19 27.84 16.89 4.59 2.88 23.26 9.72 48.09 3.55l1.17-.29.62 2.21-1.17.29a85.58 85.58 0 01-20.68 2.54z"/><path class="cls-6" d="M356.79 29l-43.63-.76s-4 60.2-1.62 59.43 41-2.66 41-2.66z"/><path class="cls-7" d="M346.47 78.11l3.05-42.48-31.09-.58-1.23 44.96 29.27-1.9"/><path class="cls-8" d="M814.95 294.62l-2.51-.3-1.3-65.28 2.77-1.13"/><path class="cls-6" d="M928.51 230.05l-2.63 66.28-10.87.25 3.2-65.96 10.3-.57z"/><path class="cls-8" d="M914.44 296.5l-2.69.01 3.43-64.83 3.03-1.14"/><path class="cls-6" d="M912.96 220.52l-2.35 75.98-9.69.13 2.85-75.54 9.19-.57z"/><path class="cls-8" d="M912.31 241.44l-10.06 1.19.81-11.82 9.7-.38-.45 11.01z"/><path class="cls-8" d="M900.92 296.45l-2.91-.56 3.06-73.84 2.7-1.14"/><path class="cls-6" d="M901.41 275.55l-78.37 1.52.31 6.29 78.15-1.91-.09-5.9z"/><path class="cls-6" d="M914.44 276.17l-94.55.2.25 6.58 94.3-.6v-6.18z"/><path class="cls-6" d="M822.47 226.15l-.92 69.22-7.7.19-1.12-68.82 9.74-.59z"/><path class="cls-8" d="M810.97 233.72l11.32.76.4-4.38h-11.72v3.62zM897.19 226.94l11.32.77.4-4.39h-11.72v3.62z"/><path class="cls-6" d="M838.28 227l-.89 67.42-9.17.2-.88-67.04 10.94-.58z"/><path class="cls-8" d="M828.26 294.62l-2.92-.06-.93-65.84 3.03-1.14"/><path class="cls-8" d="M826.78 235.7l11.31-1.22.41-4.38h-11.72v5.6zM822.47 212.87l-.2 17.18-12.12.92-1.82-19.44 14.14 1.34z"/><path class="cls-6" d="M940.23 205.71h-120.2l-18.18 1.35h126.26l12.12-1.35z"/><path class="cls-8" d="M820.18 207.06h-14.95v9.34l16.36-.92-1.41-8.42z"/><path class="cls-6" d="M933.38 213.66l-1.21 19.43-109.7-3.42.2-17.19 110.71 1.18z"/><path class="cls-8" d="M933.16 217.38l-.4 3.23-112.93-.57.81-7.43 112.52 4.77z"/><path class="cls-6" d="M940.23 207.79l-.81 8.76-120-1.1.41-8.39 120.4.73z"/><path class="cls-8" d="M917.31 238.26l11.31-1.07.41-4.38h-11.72v5.45zM823.26 238.78l-9.9 1.52-1.41-8.38 10.71 2.86.6 4z"/><path class="cls-9" d="M877.21 225.6h2.52v-2.19h-2.53a1.77 1.77 0 00-.62 1 1.33 1.33 0 00.63 1.19z"/><path class="cls-8" d="M922.17 230.64l-.64-.02-84.26-2.01.64-11.45 1.21.06-.57 10.28 82.37 1.97-.28-9.69 1.21-.03.32 10.89z"/><ellipse class="cls-9" cx="882.1" cy="224" rx="3.59" ry="3.39"/><path class="cls-8" d="M878.53 224.93a3 3 0 01.62-2.19 1.87 1.87 0 000 .32 2.32 2.32 0 001.43 1.5 4.17 4.17 0 01.77.28 2.7 2.7 0 01.7.69 3.21 3.21 0 001.43 1 3.72 3.72 0 00.9 0 3.4 3.4 0 01-2.2 1.14 3.29 3.29 0 01-3.65-2.74z"/><path class="cls-8" d="M876.63 224.9l2.29.34.21.79h-1.92c-.65-.25-.58-1.13-.58-1.13zM922.05 205.71l-32.32.04 1.15-19.78.06-1.18 33.13 2.25-2.02 18.67z"/><path class="cls-10" d="M878.41 174.81l-38.18 5.48 10.3 9.34 40.41-4.54-12.53-10.28z"/><path class="cls-6" d="M878.41 174.8c2.83 8-42.62 18.83-38.18 5.49z"/><path class="cls-11" d="M850.53 190.11l-2.22 16.95 41.42-.53 1.21-20.96-40.41 4.54z"/><path class="cls-11" d="M847.63 207.17l2.3-17.61 1.21.14-2.14 16.29 40.95-1.2.04 1.14-42.36 1.24z"/><path class="cls-12" d="M850.86 195.89c0 .35-.54.6-1.15.56s-.76-.11-.73-.46.5-1.09 1.11-1a.84.84 0 01.77.9z"/><path class="cls-6" d="M839.73 207.06l26.67-.43s-.65-10.66-12.88-11.08-13.79 11.51-13.79 11.51z"/><path class="cls-8" d="M853.52 195.72c10 .35 12.27 7.57 12.75 10.16-1.83.6-4 .51-5.16-.73-2.22-2.45-3-4.83-6.31-6.5a22.06 22.06 0 00-7.35-2.06 16.25 16.25 0 016.07-.87z"/><path class="cls-8" d="M845.21 197.92a6.11 6.11 0 001.44 5.22 5.73 5.73 0 006 1.47 7.16 7.16 0 012.12-.71 6 6 0 012.78 1.09 5.48 5.48 0 005.6-.35 3.89 3.89 0 001.43-2.29 2.74 2.74 0 000-.65 12.73 12.73 0 011.84 5.36l-26.67.44s.47-6.61 5.46-9.58z"/><path class="cls-12" d="M858.55 205.9c0 .35-.55.6-1.15.56s-1.08-.37-1-.72.82-.83 1.43-.78a.84.84 0 01.72.94zM848.11 203.4c0 .35-.55.6-1.16.56s-.76-.11-.73-.46.5-1.09 1.11-1a.84.84 0 01.78.9zM856.74 200.65c0 .31-.48.52-1 .49s-.66-.09-.64-.4.44-1 1-.92a.74.74 0 01.64.83zM844.05 199c.19.25 0 .75-.45 1a1 1 0 01-.74-.12c-.3-.13-.32-.8.12-1.09a.78.78 0 011.07.21zM863.82 200.45c.19.25 0 .75-.45 1a1 1 0 01-.74-.12c-.3-.13-.32-.8.11-1.09a.8.8 0 011.08.21zM833.2 194.19c0 .42.59.76 1.31.76s.91 0 .91-.48-.48-1.33-1.21-1.33a1 1 0 00-1.01 1.05z"/><path class="cls-6" d="M846.13 207.06l-31.86-.18s1.25-13.82 15.8-13.25 16.06 13.43 16.06 13.43z"/><path class="cls-8" d="M814.27 206.88s.3-7.23 5.61-10.75c-.45.76-1.1 1.46-1.57 2.22a6.17 6.17 0 00-.29 5.92 3.07 3.07 0 002.14 1.62c4.1.89 8.74.34 13 .23a12.06 12.06 0 013.11.34c2.1.51 4.87 1.06 7-.06.9-.49 1.31-1.89 2-2.41a14.39 14.39 0 01.82 3.07z"/><path class="cls-12" d="M823.1 205.38c0 .42.59.76 1.31.76s1.32-.34 1.32-.76-.9-1-1.62-1a1 1 0 00-1.01 1zM835.73 203.33c0 .42.58.77 1.31.77s.91-.06.91-.48-.49-1.33-1.21-1.33a1 1 0 00-1.01 1.04zM825.76 199.31c0 .37.52.67 1.15.67s.8 0 .8-.42-.43-1.16-1.06-1.16a.89.89 0 00-.89.91zM841 198.44c-.24.28-.1.89.44 1.2a1.27 1.27 0 00.9-.07c.36-.14.45-.93 0-1.31a1 1 0 00-1.34.18zM817.39 198.46c-.25.28-.11.89.44 1.2a1.19 1.19 0 00.89-.07c.37-.14.46-.93 0-1.31a1 1 0 00-1.33.18z"/><path class="cls-8" d="M881.57 204.72l7.88-.14.44-7.44a.45.45 0 01-.24-.39.81.81 0 01.36-.58v-1.43c-1 .07-2.16-.29-2.91.14.38.26.42.82.17 1a1 1 0 01-.69.17.79.79 0 01-.51-.48 11.48 11.48 0 00-4.5 9.15zm3-1.89c-.06-.33.35-.67.92-.77s1.08.1 1.14.43a.78.78 0 01-.64.95c-.58.09-1.37-.28-1.43-.61z"/><path class="cls-12" d="M885.48 202.06c.57-.09 1.08.1 1.14.43a.78.78 0 01-.64.95c-.57.09-1.36-.28-1.42-.61s.35-.67.92-.77zM889.78 196.75a.76.76 0 01.35-.58l-.12 1a.46.46 0 01-.23-.42zM886.18 195.14a.76.76 0 011-.31h.06a11.58 11.58 0 00-1 .66.47.47 0 01-.06-.35z"/><path class="cls-12" d="M887.4 195.85a1 1 0 01-.69.17.83.83 0 01-.52-.48 11.58 11.58 0 011-.66c.42.26.46.82.21.97z"/><path class="cls-10" d="M838.31 82.78l4.03-.08 1.59-10.18-5.2-.72-.42 10.98zM785.24 82.39l4.18.05.19-10.89-5.56-.08 1.19 10.92z"/><path class="cls-6" d="M760.89 72.91l101.82 1.07v-7.85H760.48l.41 6.78z"/><path class="cls-10" d="M823.36 61.72C821.55 61.72 814 66 814 66l-18.52-39.14 10.31-4.57z"/><path class="cls-6" d="M798.51 5.43l-3.33 60.87-12.12.28 1.21-59.44 14.24-1.71z"/><path class="cls-10" d="M783.47 20l-12.73-1.14-.61 47.15 12.12.57L783.47 20z"/><path class="cls-6" d="M842.84 46.45C841.72 35.9 829.1 5.17 819.47 9.77s15.83 34.69 19.17 36.29 4.2.39 4.2.39z"/><path class="cls-6" d="M841.76 45.49c4.13-10.31 18.48-33.68 24.93-26.74s-14.67 23.37-20.43 27-4.5-.26-4.5-.26z"/><path class="cls-6" d="M842.25 46.67c0-1.52-3.85-37.25-3.85-37.25-2.89.91-2.57-4.54 0-4.84s4.18 3.63 2.57 4.24l1.28 18.47c6.43-.91 7.07-8.78 5.14-11.51-1.92.61-2.57-3.33 0-3.94s4.18 2.88 2.25 3.49c1.28 5.14.9 12.33-6.49 13.55l.39 18.12z"/><path class="cls-9" d="M866.27 47c-8.61-4.37-36.75-5.62-43.7-1.87-.66 11.86 6.95 20.6 20.19 20.6C855 65.69 864.94 61 866.27 47z"/><path class="cls-9" d="M866.27 47c-8.61-4.37-36.75-5.62-43.7-1.87-.66 11.86 6.95 20.6 20.19 20.6C855 65.69 864.94 61 866.27 47z"/><path class="cls-6" d="M831.84 54.08c3.15 2.12 6.89 3.84 10.73 3.45 2.71-.27 5.22-1.57 7.93-1.82s7.42 1.6 10.14 4.21c-4.32 4.16-10.7 5.77-17.88 5.77-12.26 0-19.69-7.5-20.2-18 3.36 1.72 6.16 4.31 9.28 6.39z"/><path class="cls-9" d="M839.05 45.5c-.37-.44-11.72-21.36-15.2-27.76l1.08-.52c4 7.44 14.62 26.9 15.09 27.61z"/><path class="cls-9" d="M831.89 33.28l-2.81-.75.33-1.1 2.82.76-.34 1.09zM831.08 28.05l-1.17-.31 1.55-5.11 1.17.31-1.55 5.11zM827.32 24.19l-5.78-1.89.39-1.08 5.78 1.89-.39 1.08zM823.16 18.43a2.57 2.57 0 01-1.67-.61 2.42 2.42 0 01-.86-1.68 2.39 2.39 0 01.6-1.78 2.55 2.55 0 011.74-.85 2.62 2.62 0 011.85.61 2.46 2.46 0 01.86 1.68 2.39 2.39 0 01-.6 1.78 2.55 2.55 0 01-1.74.85zm0-3.78h-.09a1.34 1.34 0 00-.89.44 1.28 1.28 0 00-.32 1 1.28 1.28 0 00.46.91 1.33 1.33 0 001 .32 1.3 1.3 0 00.9-.44 1.32 1.32 0 00.32-1 1.33 1.33 0 00-1.33-1.23zM846.34 44.65l-.44-.2h-.74c0-.24 0-.64 15.61-20.68l1 .68c-5.99 7.66-15.01 19.36-15.43 20.2z"/><path class="cls-9" d="M861.94 25.48a2.15 2.15 0 01-2.21-2.08 2 2 0 01.64-1.47 2.44 2.44 0 011.58-.62 2.26 2.26 0 011.55.6 2.07 2.07 0 01.66 1.48 2 2 0 01-.65 1.47 2.23 2.23 0 01-1.56.62zm-1-1.88c0 .52.46.94 1 .53.55.41 1 0 1-.54a.88.88 0 00-.29-.66.62.62 0 00-.7-.16.63.63 0 00-.71.16 1 1 0 00-.29.67zM857.39 30.01l-1.21-.04.14-4.09 1.21.04-.14 4.09zM853.92 35.09l-.33-1.1 4.01-1.07.33 1.1-4.01 1.07zM850.37 39.27l-1.22-.03.14-5 1.22.03-.14 5z"/><path class="cls-8" d="M760.44 65.67l.4 7.24h9.9v-7.05l-10.3-.19z"/><path class="cls-5" d="M339.12 283.35c-2.38 0-4.19-.69-5-2.1-1.78-3.09 2.07-8.1 9-11.64s13.44-3.9 15.23-.81-2.07 8.09-9 11.64a23.5 23.5 0 01-10.23 2.91zM353.33 269a21.14 21.14 0 00-9.1 2.64c-6.17 3.18-8.81 7.12-8 8.54s5.77 1.46 11.94-1.72 8.81-7.11 8-8.54c-.33-.6-1.34-.92-2.84-.92z"/><path class="cls-13" d="M591.14 224.04l-18.59-.76-2.42 30.1 20.2 1.14.81-30.48z"/><path class="cls-6" d="M583.82 235.52h-4.55c-2.73-2.14-1.82-7.43 2.27-7s5 4 2.28 7zM579 248l4.55-.1c2.67-2.21 1.63-7.47-2.45-6.95S576.15 245 579 248z"/><path class="cls-10" d="M581.73 233.98l1.01.07.23-2.85-1-.07-.24 2.85zM582.03 246l1.01.07.24-2.85-1.01-.07-.24 2.85zM579.49 234.04l1.01-.04-.13-2.86-1.01.05.13 2.85zM579.59 246.06l1.01-.04-.13-2.86-1.01.05.13 2.85z"/><path class="cls-3" d="M818.88 369.11c1.26 6.18-15.42 10.54-19.53 9.18-2.5-2.58-1.69-8.82 4-10.61s14.09-1.06 15.53 1.43z"/><path class="cls-3" d="M824 379.16h-1c0-2.78-1.09-4.95-3-5.8a5 5 0 00-5.1.85l-.65-.75a6 6 0 016.19-1c2.28 1.04 3.61 3.54 3.56 6.7zM819 384.59c0-3.31-.9-5.67-2.57-7-1.47-1.18-3.59-1.57-6.29-1.19l-.16-1c3-.43 5.41 0 7.11 1.41 1.91 1.53 2.9 4.13 2.93 7.74zM811.86 387l-1-.28c.78-2.42.69-4.47-.26-6.1s-3-3-6-3.84l.28-.93c3.26.87 5.5 2.31 6.65 4.3s1.19 4.14.33 6.85zM799.63 375c-1.88-3-4.71-4.42-6.14-3.93-.94.32-1.3 1.49-1 3.31l-1 .14c-.51-3.13.83-4.08 1.67-4.36 2.12-.73 5.36 1.18 7.37 4.35zM802 372.07c-.9-3.51-2.72-5.19-3.36-5.06-.23 0-.49.57-.28 1.87l-1 .15c-.4-2.43.63-2.89 1.09-3 1.43-.24 3.56 1.88 4.55 5.79zM809 368.85a18.32 18.32 0 00-2.32-5.66c.08.53.22 1.22.35 1.9.18 1 .41 2.13.62 3.44l-1 .14c-.21-1.3-.43-2.45-.61-3.4-.51-2.62-.64-3.33 0-3.59s1 .35 1.38.77c1.67 2 2.58 6 2.62 6.2z"/><path class="cls-4" d="M802.12 376.8a3.9 3.9 0 013.94-3.15s.07 2.57-3.94 3.15zM799.85 376.19a3.44 3.44 0 011.38-3.95s1.2 1.54-1.38 3.95z"/><path class="cls-3" d="M799.48 382.3l-.16-.95a2.29 2.29 0 001.42-1.42 2 2 0 00-.25-2.18l.81-.6a3 3 0 01.4 3.14 3.24 3.24 0 01-2.22 2.01zM795.47 379.91a2.34 2.34 0 01.6-2.29 4 4 0 013.49-1.3l-.13.95a3 3 0 00-2.56 1 1.43 1.43 0 00-.43 1.36z"/><path class="cls-6" d="M290.94 0l-37.58 5.71 3.03 45.73 36.36-1.15L290.94 0z"/><path class="cls-7" d="M285.68 8.38l1.62 36.58-23.43-.76-4.05-34.29 25.86-1.53z"/><ellipse class="cls-6" cx="277.86" cy="106.79" rx="23.07" ry="20.07" transform="rotate(-83.36 277.841 106.79)"/><ellipse class="cls-7" cx="277.86" cy="107.46" rx="15.78" ry="18.31" transform="rotate(-5.42 277.696 107.368)"/><path class="cls-5" d="M321.04 276.61l-1.35-1.91 25.52-16.07 1.35 1.9-25.52 16.08zM317.44 294.08l-.35-2.27 1.2-.16c10.93-1.51 21.2-4.58 33.3-10l1.1-.49 1 2.07-1.09.49c-12.33 5.49-22.81 8.62-34 10.16zM400.9 260.67l-.65-2.2 1.17-.31c4.1-1.06 8.31-4.73 10.75-9.34a18.55 18.55 0 00.79-16.13c-4.87-11.6-22.85-6.24-23-6.18l-1.16.35-.75-2.17 1.15-.35c.21-.07 20.34-6.09 26 7.51a20.69 20.69 0 01-.87 18c-2.77 5.24-7.47 9.28-12.28 10.53zM325.71 215.16l-1.89-1.44 10.68-12.39c-.47-1.14-2.47-4.24-10.34-5.34a28.67 28.67 0 00-18.16 3.92l-1 .66-1.41-1.86 1-.66a30.66 30.66 0 0119.91-4.32c11.46 1.6 12.48 7.45 12.52 7.7a1.12 1.12 0 01-.26.88z"/><ellipse class="cls-12" cx="575.31" cy="125.76" rx="11.5" ry="13.55"/><path class="cls-12" d="M595.67 146.57c-1 1.49-12.3 5.49-18.17 3.16s-.17-10-.17-10z"/><path class="cls-14" d="M582.13 102.12c5.4 0 12.47 3.94 15.84 14.44a2.28 2.28 0 00-.88-.19c-2.72 0-4.93 5.19-4.93 11.6s2.21 11.61 4.93 11.61a3.19 3.19 0 002.44-1.53c-.3 3-.78 6.22-1.47 9.67l-12.5-2.93-10.62.33s-2.19-43 7.19-43z"/><path class="cls-7" d="M597.09 139.58c-2.72 0-4.93-5.2-4.93-11.61s2.21-11.6 4.93-11.6a2.28 2.28 0 01.88.19c1.71 5.34 2.47 12.39 1.56 21.49a3.19 3.19 0 01-2.44 1.53z"/><path class="cls-1" d="M599.9 129.24c0-1.36-.11-2.65-.22-3.89l3.54-5.15s1 11 1.78 17.75l-.4 2.44z"/><path class="cls-7" d="M599.68 125.35c.11 1.24.19 2.53.22 3.89l-1.1-2.61zM593.13 134.89a23.39 23.39 0 01-1-6.92c0-4.61 1.14-8.59 2.79-10.46l3.85 9.12z"/><path class="cls-15" d="M599.9 129.24a74.17 74.17 0 01-.37 8.81 3.19 3.19 0 01-2.44 1.53c-1.62 0-3.06-1.84-4-4.69l5.67-8.26zM597.09 116.37a2.28 2.28 0 01.88.19 41.39 41.39 0 011.71 8.79l-.88 1.28-3.8-9.12a2.91 2.91 0 012.09-1.14z"/><path class="cls-16" d="M474.12 332.59c-6.21 0-7.25-1-17.61-3.91 0 0-8.29-14.66-8.29-25.41H500c0 10.75-8.29 25.41-8.29 25.41-10.36 2.93-11.4 3.91-17.62 3.91"/><path class="cls-14" d="M531.12 68.15c-13.33-4.28-68.6-16.5-114 0L439 79.68l74.55-.76z"/><path class="cls-17" d="M513.55 81.87l17.57-10.77c-13.33-4.28-68.6-16.5-114 0"/><ellipse class="cls-12" cx="375.57" cy="125.76" rx="11.5" ry="13.55"/><path class="cls-18" d="M474.72 183.82c-.35-.83-60.78 61-61.08 60.23-18.63-16.59-35.2-66.38-35.2-88.83v-51.74c0-11.72 39.34-35.15 39.34-35.15 20.71 0 47.05 2.39 56.37 2.39s36.8-2.39 57.51-2.39c0 0 39.34 23.43 39.34 35.15v51.74c0 22.45-16.56 72.24-35.2 88.83-.3.74-60.73-61.06-61.08-60.23"/><path class="cls-12" d="M355.06 146.57c1 1.49 12.31 5.49 18.17 3.16s.18-10 .18-10z"/><path class="cls-14" d="M368.61 102.12c-5.41 0-12.47 3.94-15.84 14.44a2.25 2.25 0 01.88-.19c2.72 0 4.92 5.19 4.92 11.6s-2.2 11.61-4.92 11.61a3.18 3.18 0 01-2.44-1.53c.3 3 .78 6.22 1.47 9.67l12.49-2.93 10.63.33s2.2-43-7.19-43z"/><path class="cls-7" d="M353.65 139.58c2.72 0 4.92-5.2 4.92-11.61s-2.2-11.6-4.92-11.6a2.25 2.25 0 00-.88.19c-1.72 5.34-2.47 12.39-1.56 21.49a3.18 3.18 0 002.44 1.53z"/><path class="cls-1" d="M350.84 129.24c0-1.36.1-2.65.22-3.89l-3.54-5.15s-1.06 11-1.79 17.75l.41 2.44z"/><path class="cls-7" d="M351.06 125.35c-.12 1.24-.19 2.53-.22 3.89l1.1-2.61zM357.6 134.89a23.39 23.39 0 001-6.92c0-4.61-1.14-8.59-2.79-10.46l-3.84 9.12z"/><path class="cls-15" d="M350.84 129.24a72.11 72.11 0 00.37 8.81 3.18 3.18 0 002.44 1.53c1.62 0 3.06-1.84 4-4.69l-5.66-8.26zM353.65 116.37a2.25 2.25 0 00-.88.19 40.77 40.77 0 00-1.71 8.79l.88 1.28 3.84-9.12a2.9 2.9 0 00-2.13-1.14z"/><path class="cls-4" d="M474.12 176.52l-61.58 49.84 1.46 20.13c5.72 13.43 17.67 37.72 17.67 37.72 9.33 11.73 32.13 17.6 42.49 17.6s33.17-5.87 42.49-17.6c0 0 12-24.29 17.68-37.72l1.42-20.13-61.59-49.84"/><path class="cls-4" d="M427.45 251.52c6-.37 11.63-2.75 17.52-3.73 6.35-1.07 13.91-.11 17.5 4.94 2.26 3.16 2.44 7.22 3.95 10.76 3.21 7.48 13.1 11.72 21.18 9.08 2.53-.83 4.94-2.23 7.62-2.22 5.58 0 8.9 5.91 13.91 8.24a13.56 13.56 0 0010.12.22c-1.6 3.3-2.64 5.4-2.64 5.4-9.32 11.73-32.12 17.6-42.49 17.6s-33.16-5.87-42.49-17.6c0 0-10.84-22-16.81-35.73 4.18 1.36 7.69 3.35 12.63 3.04z"/><path d="M474.12 310.94c-8.53 0-18.12 0-25.58-4.88 0 0-17.06-10.75-18.13-23.46 7.46 7.82 43.71 11.73 43.71 11.73s36.25-3.91 43.72-11.73c-1.07 12.71-18.13 23.46-18.13 23.46-7.46 4.88-17.06 4.88-25.59 4.88" fill="#ffcfaf"/><path class="cls-17" d="M473.28 101.37h1.44v90.79h-1.44z"/><path class="cls-14" d="M473.28 85.1h1.44v17.62h-1.44z"/><path class="cls-4" d="M474.12 312.55c-8.53 0-18.12 0-25.58-4.88 0 0-17.06-10.75-18.13-23.46 7.46 7.82 43.71 11.73 43.71 11.73s36.25-3.91 43.72-11.73c-1.07 12.71-18.13 23.46-18.13 23.46-7.46 4.89-17.06 4.88-25.59 4.88"/><path class="cls-4" d="M432.76 288.56c5.7 3.5 10.38 9 17.07 10.22 7.35 1.31 19.6 8.19 36 5.42a88.7 88.7 0 0012.73-3.47c3-1 6.78-1 9.24.54a59.8 59.8 0 01-8.07 6.4c-7.46 4.89-17.06 4.88-25.59 4.88s-18.12 0-25.58-4.88c0 0-14.1-8.89-17.46-20.05.55.3 1.11.6 1.66.94z"/><path class="cls-13" d="M474.12 192.35c-13.47 3.91-38.34 31.27-61.14 51.8 0 0-9.94-9.72-19.69-28.34 19.69-17.6 72.54-56.69 80.83-57.66 8.29 1 61.15 40.06 80.84 57.66-12.52 23.19-19.69 28.34-19.69 28.34-22.8-20.53-47.67-47.89-61.15-51.8"/><path class="cls-5" d="M335.56 216.54l-1.9-1.41.75-.9c2.19-2.61 4.07-6.15 3.27-7s-2.06-1.25-3.95-1l-1.19.18-.38-2.26 1.2-.18c1-.15 4.08-.6 6.18 1.78 2.49 2.81-2.25 8.76-3.22 9.93zM291.64 296.6l-1.17-.27c-41.15-9.39-49.72-30.3-52.68-49.52-3.69-24 15.28-48.1 42.28-53.81 23.36-4.94 31.3 1.86 31.62 2.16l.88.78-1.66 1.66-.88-.78c-.16-.13-7.65-6.19-29.43-1.59-25.36 5.36-43.86 28.83-40.41 51.25C244.27 273 259 286.8 291 294.11l1.18.27z"/><path class="cls-5" d="M263.26 339.83c-12 0-21.51-2.75-27.45-8a19.84 19.84 0 01-6.67-17c1.21-15.45 25.39-34.21 26.42-35l.94-.73 1.53 1.77-.93.73c-.25.18-24.41 18.93-25.54 33.4a17.72 17.72 0 005.91 15.18c7.2 6.39 20.34 8.76 37 6.66l1.2-.16.33 2.27-1.2.15a92.73 92.73 0 01-11.54.73zM273.38 270c-.06-.09-6.42-8.64-16.68-10.3a21.92 21.92 0 00-5.49-.19l-.23-2.28a24.65 24.65 0 016.13.22c11.29 1.82 18 10.87 18.27 11.25z"/><path class="cls-16" d="M354.84 286.57l3.41 4.42-9.98 5.74 1.14 9.49.62 11.56-2.48-1.81-5.03-8.26.11-13.4 12.21-7.74z"/><path class="cls-12" d="M356.04 286.39l3.41 4.42-8.86 6.85-1.27 8.56 3.55 9.24-2.92 2.32-6.23-10.26 1.42-13.64 10.9-7.49z"/><path class="cls-16" d="M368.69 287.23l6.88 11.51-.01 9.84-2.65 8.95-2.8-.33-3.53-2.81 4.08-6.75.28-7.7-8.26-10.55 6.01-2.16z"/><path class="cls-11" d="M355.06 287.81l5.66 2.48-6.31 10.51 3.59 8.79 5.84 7.09-1.8 4.89-4.87-1.89-4.98-7.72-3.13-12 6-12.15z"/><path class="cls-12" d="M370.13 286.99l6.88 11.5-.01 9.84-4.21 9.2-4.77-3.38 4.08-6.76.97-7.81-7.22-10.32 4.28-2.27z"/><path class="cls-20" d="M359.08 287.49l5.66 2.48-6.31 10.52 2 9.44 3.97 8.45-2.36 3.19-5.83-9.93-3.12-12 5.99-12.15zM378.64 289.26l1.41-9-5.25.06a32.28 32.28 0 01-1.09 10.55 35.6 35.6 0 004.93-1.61z"/><path class="cls-12" d="M343.3 287c4.85 1.3 10.69 3.29 15 4-1-3.84-.4-7.26.51-10.76l-15.12.18z"/><path class="cls-11" d="M373.71 290.87a32 32 0 00.62-10.59l-16 .81c-.76 3.54-1.23 6.38-.07 10.18a41.77 41.77 0 0015.45-.4z"/><path class="cls-16" d="M359.62 288.7a40.94 40.94 0 0022.66-6.29c-.5-4.84-1.38-9.76-1.82-14.82-10.06 2.81-20.43 4.2-30.39 3.26a44.11 44.11 0 01-12.2 6.42 48.5 48.5 0 002.84 5.32c1.14 1.82 7.77 5.76 18.91 6.11z"/><path class="cls-21" d="M390.43 264.55c-2.14.69-7.46 2.71-10.09 3.36.49 3.92 1.14 10.6 1.68 14.68a7.44 7.44 0 002.53-2.42c1.6-2.28 4.82-9.84 5.88-15.62"/><path class="cls-22" d="M334.35 267.16c-7.33-25.79 3.42-51 6.51-56 8.45-5.27 32.17-8.13 42.32.82 8 13.22 11.71 34.24 7.25 52.58-15.52 6.1-38.23 10.36-56.08 2.6z"/><path class="cls-18" d="M375.05 207.75a21.26 21.26 0 018.13 4.22c8 13.22 11.71 34.24 7.25 52.58-11.18 4.4-26.08 7.84-40.21 6.52 5-3.72 16.7-13.3 9.86-27-12.37-24.75-16.19-43.87 14.97-36.32z"/><path class="cls-23" d="M383.18 212c8 13.22 11.71 34.24 7.25 52.58a101.31 101.31 0 01-9.49 3.19c-1.49-15.45.31-39.86 2.24-55.77z"/><path class="cls-12" d="M338 277.26a54 54 0 0011.92-6.26c-5.29-.28-13.71-2.84-15.57-3.88a72.69 72.69 0 003.65 10.14z"/><path class="cls-5" d="M270.29 272.12c-.07-.05-7.29-4.12-15.21-2.82l-.41-2.25c8.83-1.45 16.56 2.93 16.88 3.11zM265.43 262.79a1.28 1.28 0 01-.63-.16 22.91 22.91 0 00-13.59-3.11 1.19 1.19 0 01-1.32-1 1.17 1.17 0 011.09-1.25 25.43 25.43 0 0115.07 3.43 1.1 1.1 0 01.41 1.57 1.19 1.19 0 01-1.03.52z"/><path class="cls-5" d="M263.87 269.69a.9.9 0 01-.28 0 22.44 22.44 0 00-8.51-.35 1.2 1.2 0 01-1.4-.93 1.14 1.14 0 011-1.32 24.86 24.86 0 019.48.38 1.15 1.15 0 01.9 1.38 1.21 1.21 0 01-1.19.84zM397.64 266.65h-.29a7.91 7.91 0 01-5.54-2.82c-4.07-4.38-6.45-13.58-5.68-21.86.37-3.92 3.48-11 6.53-14.83l.73-.91 1.94 1.37-.73.92c-2.78 3.49-5.72 10.13-6.05 13.65-.71 7.6 1.47 16.26 5.08 20.16a5.68 5.68 0 003.83 2 2 2 0 001.86-.68c1.53-1.9.48-7.32-.55-10.29l-.37-1.08 2.3-.71.38 1.09c.31.9 3 8.92.17 12.37a4.39 4.39 0 01-3.61 1.62z"/><path class="cls-5" d="M399.24 266.36l-1.24-1.95 1-.6c.32-.18.35-.33.36-.4.21-1.25-2.48-4.25-4.86-6.88-3.9-4.33-8.32-9.24-8.87-14v-1.63h2.87v1.63c.11 3.88 4.4 8.64 7.85 12.47 3.23 3.6 5.79 6.44 5.4 8.73a2.79 2.79 0 01-1.48 2zM269.76 309.85l-.3-1.11c-1-3.57-3.5-14.17-3.61-14.62l-.26-1.12 2.36-.5.27 1.12c0 .11 2.62 11 3.59 14.55l.3 1.11zM262 314.94l-.57-1c-5.35-9.58-.33-20.9 1.3-23.41l.64-1 2.06 1.2-.63 1c-1.39 2.14-6 12.61-1.22 21.14l.56 1zM294.37 349.1l-.49-2.24 1.18-.23c14.29-2.81 15.53-17.24 15.54-17.39l.08-1.14 2.42.16-.1 1.14c0 .16-1.4 16.31-17.46 19.47zM235 301.26h-.78c-7.29-.39-15.22-1.39-17-8.37a54.51 54.51 0 01-1.16-7.81c-.79-8.1-1.54-15.74-12.41-22.11-8.05-4.71-18.91-3-21.28-.35l-1.86-1.47c3.34-3.74 15.61-5.28 24.42-.12 11.89 7 12.77 15.93 13.55 23.84a52.06 52.06 0 001.1 7.5c1.36 5.44 8 6.25 14.74 6.61s14-4.94 17.89-8.12l1.59 1.72c-4.8 4-11.94 8.68-18.8 8.68z"/><path class="cls-5" d="M205.51 284.3h.5v-2.71h-.5a8.65 8.65 0 007.67-5.62c.92-3-1.81-7.34-4.78-9.1l1.3-1.94c3.76 2.24 7.07 7.59 5.81 11.68s-5.51 7.07-10 7.69zM223.08 318.24a29.25 29.25 0 01-18.46-6.43c-7.09-5.87-9.84-10.6-10.88-18.75l2.4-.28c1 7.6 3.43 11.81 10.08 17.31a26.9 26.9 0 0024 4.87 3.9 3.9 0 002.2-1.39.45.45 0 000-.43l2.28-.78a2.61 2.61 0 01-.15 2.23 6.16 6.16 0 01-3.66 2.56 28.43 28.43 0 01-7.81 1.09z"/><path class="cls-24" d="M186.9 313.16c3.59 3.16-1.07 9.8-6.51 8.19a6.77 6.77 0 01-5.06-5.12l6.19-5.92zM184.59 296.12a7.74 7.74 0 00-10.12 4.43c-4.7-.68-7.95 3.75-3.25 6.82s7.59-2.73 6.14-4.09c1.09-2.73 3.26-4.09 5.79-3.75"/><path class="cls-25" d="M185.09 291l-1.45 4.09a7.76 7.76 0 00-10.12 4.44c-4.7-.68-8 3.75-3.25 6.82s7.59-2.73 6.14-4.1c1.09-2.72 3.26-4.09 5.79-3.75l-2.53 11.94c-3.62-1-7.58 6.1-1.81 8.18 7.59 2.73 9-5.12 6.14-6.82l6.15-19.09"/><path class="cls-24" d="M189.16 295.44c-1.4 0-5.2-1.5-5.2-1.5l.81-2 5.38.81z"/><path class="cls-24" d="M191.96 293.39l-5.06 19.77-2.9-1.36 6.15-19.09 1.81.68z"/><path class="cls-3" d="M191.87 293.73c-.09.43-.82 3.24-.82 3.24l-1.89-1.53.63-1.88z"/><path class="cls-24" d="M209.67 241.23l4 4.43c1.74 4.72-2.71 14-11 10.74l-.9-1.87 6.87-4.95z"/><path class="cls-3" d="M208.14 244.24l2.53 3.24-2.71 1.45-1.72-3.75 1.9-.94z"/><path class="cls-24" d="M205.15 245.27l1.81 3.75-1.17-.17-1.45-3.07.81-.51zM199.73 239.19l1.31 2.21-2.98 6.01-3.93-1.02 3.79-7.29 1.81.09z"/><path class="cls-25" d="M198.1 266.8l-7.95-.68 5.06-13.3c-9-2-3.25-14 2.89-15.68l1.63 2-4.7 7 10.3 3.58 1.09-8.69 2.35-.17c6.33 1.87 2.53 16.7-7.05 13.64z"/><path class="cls-24" d="M194.73 266.37l-1.21-.33 3.71-12.1 1.21.32-3.71 12.11zM202.62 256.4l-3.21 10.44-1.31-.04 3.62-12.27.9 1.87z"/><path class="cls-5" d="M196.07 294.11a38.34 38.34 0 01-15.72-3c-4.51-2-7.27-4.9-8.2-8.69-2-8.1 5.22-17.58 8.41-21.28l1.88 1.44c-6.26 7.27-9.15 14.32-7.93 19.33.75 3.06 3.06 5.46 6.86 7.12 5.44 2.39 11.39 3.2 19.28 2.6 5.54-.41 8.06-5.73 8.11-10.83.05-5.94-3.18-12.26-9.46-12.83-.8-.07-1.62-.12-2.45-.16-3.42-.2-7-.4-9.71-2.38l1.48-1.82c2.15 1.56 5.18 1.73 8.38 1.91.85.05 1.7.1 2.53.18 7.73.7 11.71 8.13 11.65 15.12-.05 6.14-3.27 12.56-10.34 13.09-1.66.09-3.25.2-4.77.2z"/><ellipse class="cls-24" cx="180.86" cy="314.79" rx="1.99" ry="2.19" transform="rotate(-63.88 180.856 314.792)"/><ellipse class="cls-24" cx="172.24" cy="302.6" rx="2.22" ry="1.97" transform="rotate(-30.3 172.242 302.618)"/><path class="cls-3" d="M188.61 297.48l1.63 2.73-.36 1.02-1.72-2.81.45-.94zM184.28 317.85l2.26 1.79a8.87 8.87 0 01-2.17 1.45l-1.54-2.22zM184.64 317.34l2.62 1.53.45-.59-2.89-1.37-.18.43zM178.94 313.42l2.9 2.73a2.43 2.43 0 00.45-1.2c-.27-.25-2.61-2.19-2.61-2.19zM171.89 301.74l2.35 1.88c-.26.33-.63.94-.63.94l-2.53-2.39zM178.49 314.02l3.07 2.47-.5.29-2.66-2.34.09-.42zM170.84 302.44l2.32 2.29-.45.25-2.08-2.04.21-.5z"/><path class="cls-24" d="M196.66 243.96l1.81 2.38-.41 1.07-3.03-1.24 1.63-2.21z"/><path class="cls-3" d="M197.2 242.85l1.54 2.81.18-.59-1.36-2.65-.36.43z"/><path class="cls-24" d="M182.13 310.46l-1.22-.31 4.75-16.23 1.21.31-4.74 16.23z"/><path class="cls-24" d="M176.5 299.49l-1.08-.61c2.39-3.76 6.61-3.5 9.77-2l-.56 1.06c-.92-.44-5.63-2.4-8.13 1.55z"/><path class="cls-5" d="M673.6 175.26l-55.54-56.35 1.78-1.56 55.54 56.35-1.78 1.56z"/><ellipse class="cls-15" cx="575.31" cy="90.53" rx="13.62" ry="11.41" transform="rotate(-79.17 575.316 90.519)"/><path class="cls-15" d="M595.05 111.15c-1.1 1.49-12.69 5.37-18.38 2.91s.55-10.08.55-10.08z"/><path class="cls-10" d="M584.11 66c5.4 0 12.25 4 15 14.61a2.2 2.2 0 00-.87-.19c-2.72 0-5.21 5.26-5.57 11.74s1.57 11.74 4.29 11.74a3.4 3.4 0 002.52-1.55c-.47 3-1.12 6.29-2 9.78l-12.34-3-10.64.33S574.73 66 584.11 66z"/><path class="cls-7" d="M597 103.92c-2.72 0-4.64-5.26-4.29-11.74s2.85-11.74 5.57-11.74a2.2 2.2 0 01.87.19c1.42 5.41 1.78 12.54.37 21.74a3.4 3.4 0 01-2.52 1.55z"/><path class="cls-1" d="M600.38 93.46q.06-2.05 0-3.93l3.82-5.22s.45 11.08.8 18l-.54 2.47z"/><path class="cls-7" d="M600.38 89.53q.06 1.88 0 3.93l-1-2.64z"/><path class="cls-7" d="M593.3 99.18a23.76 23.76 0 01-.59-7c.26-4.66 1.62-8.69 3.37-10.58l3.34 9.22z"/><path class="cls-15" d="M600.38 93.46a73.9 73.9 0 01-.86 8.91 3.4 3.4 0 01-2.52 1.55c-1.62 0-3-1.87-3.7-4.74l6.12-8.36zM598.28 80.44a2.2 2.2 0 01.87.19 41.63 41.63 0 011.23 8.9l-1 1.29-3.34-9.22a3.09 3.09 0 012.24-1.16z"/><path class="cls-5" d="M625.61 148.63l-2.42-.07v-1.15c.11-2.95-1.74-6.61-4.81-9.54a21 21 0 00-15-5.67h-1.21l-.06-2.29h1.21a23.41 23.41 0 0116.82 6.35c3.53 3.36 5.64 7.67 5.51 11.23zM742.49 325.18l-1.57-1.73.92-.75a30.7 30.7 0 0110.1-4.87 35.64 35.64 0 0125.41 2.44l1.08.51-1.08 2.05-1.08-.52c-18.86-8.9-32.72 2-32.85 2.13z"/><path class="cls-11" d="M690 320.65s-.14 22.32.7 26.36c-2.88 6.9-14.8 4.22-13.07-1.7 0-5.67 2.76-25.8 2.76-25.8z"/><path class="cls-12" d="M670.15 308.75s.09 17.31.09 20.26c-1.21 3.68-8.31 2.81-8-.72-.14-3.42 1.57-19.6 1.57-19.6z"/><path class="cls-11" d="M644.8 316.35s1.29 21.74 1.29 26.06c-1.52 4.51-12.15 3.09-12.5-1.85.3-4.21 2.22-24.8 2.32-25.59z"/><path class="cls-12" d="M690 320.65s-.9 11.44.23 20.33c-9-10-10.85-4.82-12.36 0 .89-8.57 2.52-21.47 2.52-21.47zM644.8 316.35s.74 13.13 1.12 21c-4.9-6.34-8.95-6.68-11.64-4.76.7-7.71 1.56-17 1.63-17.58z"/><path class="cls-11" d="M710.82 308.79s.78 16.72.78 19.67c-1.35 4.65-11.55 4-10.21-.95.41-3.35 3.13-18.82 3.13-18.82z"/><path class="cls-11" d="M694.57 314.13l24.89-21.7-44.06-.45-50.58 10.32 2.72 12.43 66.13 10.23.9-10.83z"/><path class="cls-12" d="M710.82 308.79s.27 4.29.39 8.75a50.25 50.25 0 00-9.82 10c.41-3.35 3.13-18.82 3.13-18.82z"/><path class="cls-12" d="M719.46 292.67l-1.19 10.62-24.6 21.91.9-10.83 24.89-21.7z"/><path class="cls-6" d="M719.46 292.43l-44.06-.45-50.58 10.32 69.75 11.83 24.89-21.7z"/><path class="cls-5" d="M781.63 343.64l-.88-.78a25 25 0 00-14.75-5.44 30.56 30.56 0 00-14.6 3l-1 .59-1.27-1.94 1-.6c.25-.15 6.26-3.59 15.93-3.37a27 27 0 0116.36 6.07l.88.79z"/><path class="cls-5" d="M770.55 344.49a83 83 0 01-9.76-.6c-19.55-2.27-22.31-9.94-22.22-14.31.09-4.09 2.84-8 5.42-9.15-1.15-6.27-9.59-21.45-17.75-36.14-4.78-8.61-9.73-17.5-13.23-24.66-8.75-17.86-13.28-41.94-13.85-49.63-4.28 3-9.06 10.86-11.74 17.62-2.52 6.37-2.66 10-2 11.24 1.8 3.36 4.73 7.74 7.83 12.37 10 15 22.45 33.57 13.91 41.89-4.6 4.48-17 5.84-36.74 4-14.51-1.33-27.92-3.94-28-4a1.28 1.28 0 01-.53-.24c-2.35-1.86-4.67-4.57-4.11-6.63a2.7 2.7 0 012.36-1.86c3.52-.64 13.73 2.11 18.41 7.55l.77.89-.78.59c17.64 2.38 40.88 3.95 46.93-1.94 7.21-7-5.18-25.55-14.22-39.08-3.13-4.68-6.09-9.1-7.94-12.56-1.64-3 .49-9.5 1.9-13.07 3.19-8 9.15-17.68 14.72-19.83a1.25 1.25 0 011.2.15 1.11 1.11 0 01.46 1.05c-.42 3 4 30.77 13.68 50.49 3.48 7.1 8.41 16 13.17 24.54 9.1 16.38 17.7 31.85 18.14 37.94a1.16 1.16 0 01-1.11 1.22c-1.23.09-4.33 3.32-4.41 7.24-.14 6.22 7 10.48 20.09 12 15.56 1.81 24.84-1.05 29.88-3.77a19 19 0 007-6c-1.83-7.08-15.54-22.73-27.67-36.57-5.13-5.86-10-11.39-13.68-16-11.55-14.34-37.92-53.05-47-69l-.58-1 2.14-1.08.57 1c9.07 15.91 35.32 54.45 46.82 68.72 3.68 4.56 8.51 10.08 13.62 15.91 13.16 15 26.76 30.55 28.27 38a1.1 1.1 0 01-.09.71c-.32.57-6.43 12-29.88 12zM643.16 291c3.37.66 8 1.45 13.23 2.19-4.25-4.66-13.25-7-15.85-6.49-.27.05-.45.13-.47.19-.15.53.87 2.29 3.09 4.11z"/><path d="M570.52 123.36c-11.46-4.28-41-21.82-59.58-42.32-6.69-7.36 61.22-53.95 68.59-55.94 8.55 4.14 20.83 11.81 30.46 24.23-8 19.93-30.3 71-39.56 74.4" fill="#feeb93"/><g clip-path="url(#clip-path)"><path class="cls-23" d="M488.29 40.33s17-6.81 17.58 8 12.73 34.11 27.54 44c38.65 25.71 59.45 4.92 80.4 16.56 16.49 9.16 3.77 32.66 3.77 32.66s-40 .83-84.44-30.26c-25-17.52-55.47-59.48-55.47-59.48z"/><path d="M611.38 136.83c-.46-.11-45.6-11.24-75.64-33.08s-45.77-55-45.92-55.33l1.24-.52c.15.33 15.72 33.19 45.51 54.84s74.69 32.74 75.14 32.85z" fill="#e3a92e"/><path class="cls-22" d="M612.4 44.31c-1.81 3.8-4.15 8.66-6.85 14.17 13.36 1.58 19.66-2.41 19.66-2.41zM559.12 10.64a91.92 91.92 0 00-13.47 2.13c.64 6.45 3.73 16.35 14.94 26 9.89-7.81 18.56-14.45 23.82-18.43z"/><path class="cls-1" d="M489.71 49s15.44 33.08 45.71 55.09 63.72 28.51 63.72 28.51 51.05-58.29-4.66-98.79S489.71 49 489.71 49"/><path class="cls-18" d="M589.7 16.3S500.37 82.91 498 97.64s-23.24-49.79-23.24-49.79S547.07-7.39 589.7 16.3M615.42 37.71S569.83 136.13 555.33 142s57 8.53 57 8.53 38.27-80 3.13-112.84"/><path class="cls-29" d="M613.81 108.84c-10.27-5.71-20.51-3.62-32.83-3-3.6 6.41-7.15 12.41-10.46 17.56-11.78-5-24.37-11.43-35.1-19.23-9.69-7-18.25-14.81-24.48-23.09 1.77-1.74 3.68-3.55 5.7-5.42-6.27-8.83-10.42-18.8-10.77-27.3-.59-14.8-17.58-8-17.58-8l-10.62 11.4s30.43 42 55.47 59.48c44.41 31.09 84.44 30.26 84.44 30.26s12.72-23.5-3.77-32.66z"/><path class="cls-29" d="M518.67 51.94c-9.45 8.47 18.87 36.31 30.29 44.61s40 25.32 51.28 9C608 94.37 572.53 79.52 566 73.2c-11.38-11.07-32.27-34.76-47.36-21.26"/><path d="M521.81 51.53C513 59.3 540.3 85.8 551.23 93.75s38.24 24.33 48.6 9.29c7.15-10.38-26.64-24.84-32.9-30.86-10.95-10.54-31.11-33-45.12-20.65" fill="#005cc5"/><path d="M545.89 5.59s-6 24.39 28.76 42.46 50.56 8 50.56 8l-37.72-34.6z" fill="#fdfad2"/><path d="M597.83 105.5c-4.45-2.81-10.67-6.49-13.59-6-.79.11-1.63 1.17-2.45 2.2-1.39 1.74-3.12 3.91-5.74 2.87a2.88 2.88 0 01-1.83-1.7c-.57-1.7.85-3.86 2.37-6.14 1.32-2 2.69-4.06 2.36-5.41a1.73 1.73 0 00-.88-1.06c-1.69-1-3.22.19-5.36 2.12-2 1.77-4.22 3.78-6.63 1.82-2.59-2.1-.57-5.76 1.39-9.3s3.11-5.94 1.52-6.93c-1.94-1.2-3.58-.06-5.48 1.27-1.51 1.06-3.07 2.16-4.84 1.86-1.4-.24-4.14-2.29-8.14-5.4-2-1.55-3.89-3-5.2-3.82s-2.66 0-4.58 1.32c-1.67 1.16-3.56 2.47-5.27 1.11-2.42-1.93.18-5.34 2.69-8.64 2.3-3 4.68-6.16 3.1-7.71-1.95-1.9-4.08-.63-6.86 1.38-1.43 1-2.58 1.84-3.6 1.7-1.87-.29-5-3.41-8.43-6.87-.53-.55-1-1-1.39-1.41l.87-.79c.39.38.87.87 1.41 1.43 2.14 2.19 6.12 6.27 7.73 6.51.55 0 1.67-.75 2.67-1.48 2.37-1.71 5.62-4.05 8.47-1.26 2.29 2.23-.39 5.76-3 9.17-2.19 2.88-4.45 5.85-2.89 7.1.93.74 2 0 3.77-1.16s3.85-2.68 6-1.36c1.35.85 3.27 2.33 5.3 3.9 2.84 2.21 6.38 5 7.58 5.15s2.54-.69 3.91-1.65c2-1.38 4.22-3 6.87-1.3s.72 5.07-1.12 8.4c-1.73 3.15-3.53 6.4-1.67 7.92 1.51 1.22 2.88.11 5-1.79s4.24-3.79 6.84-2.27a2.86 2.86 0 011.4 1.72c.44 1.81-1.06 4.08-2.51 6.27-1.31 2-2.65 4-2.25 5.19a1.81 1.81 0 001.15 1c1.63.64 2.76-.58 4.3-2.51 1-1.26 2-2.46 3.23-2.64 2.57-.38 6.91 1.47 14.46 6.23z" fill="#f1f8ff"/></g><path class="cls-22" d="M605.5 58.48c1-1.84 3.57-7.54 4.27-9.44a74.47 74.47 0 016.23 9.59 33.46 33.46 0 01-10.48-.15M546.86 18.82c9.91-1.22 24.7 1.85 34.29 7.07-5.49 2.12-16.93 8.92-20.49 12.81-5.82-3.4-13.77-16.7-13.8-19.88z"/><path class="cls-5" d="M647.78 287l-2.17-1 .53-1c.09-.16 8.81-16.19 34.65-12.61l1.2.17-.35 2.26-1.2-.16c-24-3.36-31.8 10.75-32.12 11.36z"/><path class="cls-5" d="M660.11 275.61a62.33 62.33 0 01-9.8-12.06c-5.78-9.38-6.82-18-3-24.79 14-25.13 34.65-34.5 42.88-37.37l.84 2.15c-8 2.77-28 11.85-41.57 36.28-8.3 14.89 12.14 34 12.35 34.16z"/><path class="cls-5" d="M694.44 204.6c-.65-.15-65.26-15.79-99.1-39.83-35.37-25.14-35.05-40.3-32.89-46.09-.35-.65-.77-1.34-1.19-2.05-2.08-3.49-4.44-7.45-2.91-10.35.83-1.57 2.68-2.54 5.48-2.89 4.33-.52 19.85 11.56 49.26 34.8 32.39 25.59 72.7 57.43 85.15 58l-.12 2.28c-13.26-.59-52.21-31.37-86.59-58.52-20.59-16.27-44-34.69-47.38-34.29-2 .25-3.18.81-3.63 1.65-1 1.82 1.15 5.36 2.85 8.21.55.91 1.07 1.79 1.49 2.6a1 1 0 010 .93c-6.48 15.1 22.78 37.42 31.9 43.9 33.45 23.77 97.59 39.29 98.24 39.45z"/><path class="cls-5" d="M673.77 186.35l-.11-1.14a15.51 15.51 0 00-4.82-9.24c-2.45-2.08-8.89-4.59-10.53-3.36l-.95.72-1.51-1.79.95-.71c3.31-2.5 11.18 1.33 13.66 3.45a17.47 17.47 0 015.61 10.72l.11 1.14zM646.31 166.16l-.06-1.14c-.08-1.48-1.86-5.61-5.61-8.46a11.61 11.61 0 00-9.09-2.4l-1.19.19-.4-2.26 1.2-.19a14.27 14.27 0 0111 2.88c3.85 2.92 6.38 7.53 6.51 10.12l.06 1.14zM796.27 148l-1.17-2 1.06-.56c.1 0 9.88-5.17 12.6-9.66-4.85-12.7-19.43-16.89-19.57-16.93l-1.19-.35.69-2.19 1.16.32c.66.19 16.28 4.65 21.36 18.85a1.1 1.1 0 01-.06.87c-2.69 5.23-13.39 10.84-13.84 11.08z"/><path class="cls-5" d="M739.15 213.08c-18.95 0-34.41-9.32-39.29-12.63-18.78-12.74-36.07-28.89-35.35-60.53.35-15.59 9.35-32.21 23.48-43.37a64 64 0 0149.48-13.21c31.38 4.61 46.06 23 52 33.49.18.33 17.9 33.42-2.16 55.22-6.41 7-19.44 19.41-21.9 21.75.23 2.85.28 15-15 18.13a55.14 55.14 0 01-11.26 1.15zM727.84 84.92a61.38 61.38 0 00-38.29 13.38c-13.61 10.75-22.28 26.7-22.62 41.7-.69 30.59 16.1 46.25 34.35 58.62 5.61 3.81 25.7 15.85 48.6 11.12 15-3.11 13.17-15.61 13.09-16.14a1.09 1.09 0 01.33-1c.15-.15 15.19-14.41 22.2-22 18.89-20.53 2.16-52.07 1.84-52.67-5.75-10.15-19.91-27.83-50.25-32.29a64.19 64.19 0 00-9.25-.72z"/><path class="cls-5" d="M805 137.2l-.71-.93c-1.89-2.49-7.44-2.74-9.41-2.62l-1.21.06-.15-2.28 1.21-.07c.35 0 8.48-.43 11.53 3.58l.71.93zM745.6 199.4a14.19 14.19 0 01-1.72-.11c-2.38-.32-4.33-1.21-5.21-2.37a2.25 2.25 0 01-.48-1.84c.43-2.13 3.8-2.82 6.91-2.4 2.38.32 4.33 1.2 5.21 2.36a2.28 2.28 0 01.49 1.84c-.36 1.74-2.67 2.52-5.2 2.52zm-5-3.9c.14.34 1.32 1.21 3.65 1.52 2.5.34 4-.29 4.19-.58-.08-.26-1.27-1.18-3.66-1.5s-3.97.26-4.2.56zM687.26 187.83l-2.41-.19.1-1.14c.82-9.18 8.52-10.71 13.13-11.62a15.29 15.29 0 003-.79c3.77-1.88 4-5.28 4.27-10a50.58 50.58 0 01.75-6.79c1.61-8.07 9.42-14.61 19.9-16.66 14.86-2.9 29.65 12.45 38.5 21.63 3.1 3.21 5.77 6 7.15 6.62 4.34 2 12.5-.75 15.28-2l1.09-.49 1 2.07-1.02.53c-.45.2-11.13 4.91-17.4 2-1.78-.83-4.33-3.47-7.86-7.13-8.51-8.82-22.73-23.56-36.21-20.93-9.52 1.86-16.59 7.69-18 14.84a46.78 46.78 0 00-.72 6.5c-.31 5-.58 9.38-5.55 11.86a15.27 15.27 0 01-3.67 1c-4.7.93-10.55 2.09-11.22 9.58zM699.79 129.57l-2.42-.12.06-1.14c.45-8.3 5.23-31.63 20.66-31.63h.66c13.36.57 21.24 10.63 24 14.93 3.12 4.85 4.59 9.68 3.58 11.75l-.51 1-2.2-1 .51-1c.4-.81-.22-4.58-3.45-9.61-2.57-4-9.86-13.3-22.05-13.82-5.83-.26-10.64 3.47-14.21 11a53.87 53.87 0 00-4.58 18.4z"/><path class="cls-5" d="M705.77 123.41l-1.66-1.66.89-.75c.4-.36 10-8.79 20.61-9.87 9.37-.94 14.75 7.75 15 8.12l.6 1-2.1 1.14-.61-1c0-.08-4.86-7.76-12.61-7-9.83 1-19.12 9.17-19.21 9.26zM801.69 309.85a1.19 1.19 0 01-1.2-1c-.75-5.35-12.11-16-20.41-23.85-1.85-1.74-3.62-3.4-5.18-4.92-9.49-9.2-43.58-48.29-60.72-71.93a1.11 1.11 0 01.32-1.59 1.26 1.26 0 011.68.3c17.08 23.55 51 62.48 60.45 71.62 1.56 1.52 3.32 3.17 5.17 4.9 9.48 8.93 20.24 19.05 21.1 25.17a1.16 1.16 0 01-1 1.28zM822.31 334.62c-9.29 0-20-1.11-23.16-1.46l-1.21-.14.29-2.27 1.21.14c4.42.49 9.91 1 15.26 1.21l-.11-.24 1.1-.47a59.5 59.5 0 009.36-5 1.11 1.11 0 01.31-.15c.25-.09 6.12-2.13 9.74-.14a5.18 5.18 0 012.63 3.83 2.52 2.52 0 01-.78 2.27c-1.95 1.8-7.95 2.42-14.64 2.42zm-3-2.34c7.72.19 14.35-.19 15.88-1.69.17-.17.15-.25.14-.33a2.89 2.89 0 00-1.46-2.21c-2.09-1.16-6-.26-7.52.24a52.62 52.62 0 01-7.03 3.99z"/><path class="cls-5" d="M824.73 327.84c-4.83-8.08-19-16.91-28.74-19.78l.73-2.18c10.36 3.06 24.93 12.17 30.12 20.83zM686.17 169c-7-10.33-19-17.59-26-18.39l.29-2.27c7.78.89 20.3 8.39 27.78 19.42zM681.54 175.4c-4.25-3.86-12.78-7-19.7-5.67l-.49-2.24c7.7-1.51 17.17 2 21.87 6.26z"/><path class="cls-5" d="M671.88 155.12a1.31 1.31 0 01-.66-.18c-4-2.44-8.07-4-11.08-4.37a1.17 1.17 0 01-1.06-1.27 1.21 1.21 0 011.35-1c3.36.38 7.76 2.1 12.1 4.72a1.11 1.11 0 01.37 1.58 1.22 1.22 0 01-1.02.52zM661.59 169.75a1.19 1.19 0 01-1.18-.91 1.14 1.14 0 01.94-1.35 22.36 22.36 0 017.92 0 1.14 1.14 0 011 1.32 1.2 1.2 0 01-1.39.93 19.94 19.94 0 00-7 0zM781.4 199.66a1.37 1.37 0 01-.49-.09c-3.7-1.55-9.75-2-15.4-1.08a1.22 1.22 0 01-1.4-.94 1.16 1.16 0 011-1.32c6.18-1 12.61-.5 16.78 1.24a1.13 1.13 0 01.62 1.51 1.22 1.22 0 01-1.11.68zM775 211.77a1.26 1.26 0 01-.82-.3c-2.26-2-7.77-4.83-12.58-4.83a1.92 1.92 0 01-.24 0 1.15 1.15 0 110-2.29h.25c5.52 0 11.62 3.16 14.23 5.44a1.11 1.11 0 01.07 1.62 1.25 1.25 0 01-.91.36z"/><path class="cls-3" d="M337.41 373.24l1.27 5.03 2.67 1.45-2.04-4.73-1.9-1.75zM353.93 377.79l-5.8-2.05-.79-4.09 8.24 2.94-1.65 3.2zM400.24 357l.24 3.17c-3 1.18-8.2 1.83-9.77 1.24l-1.41-4 8.57-.69zM405.2 356.13l.25 4.75-1.91 1.44-1.21-4.03 2.87-2.16z"/><path class="cls-24" d="M400.24 356.95l.24 3.17 3.06 2.2-1.21-4.03-2.09-1.34zM389.3 357.35l1.41 4.01-27.59 15.66-1.03-4.25 27.21-15.42zM379.04 350.76l.91 3.47 3.51 1 1.34-2.61-2.18-1.92-3.58.06z"/><path fill="#006ad2" d="M382.81 352.78l.35 3.95 2.91-.37-.21-2.97-3.05-.61z"/><path class="cls-24" d="M362.58 373.43l1.06 5.7c-.5 5.45-9.2 8.17-14 5.4l-1.23-5.63M347.34 371.65l.79 4.09-7.03 4.08-1.74-4.77 7.98-3.4z"/><path class="cls-25" d="M400.24 357c-2.71 1.75-10.94.4-10.94.4-.57.47-27.21 15.42-27.21 15.42 2.79 3.23-4.32 9.72-13.72 6.13l7.21-4.31-7.89-2-8.33 2.45c-5.79-2.05 3.15-10.57 15.18-6.31L385 355.3c-2.42-.69-2.26-2.51-2-3.34l-4-1.29 2.68-1.94 4.23 1.46c3.1-2 7.9-2.44 10.82-1.21s5.44 2.54 5.18 5.16l3.25 2-2.87 2.15z"/><path class="cls-24" d="M394.78 352.06a9 9 0 00-4.9-.27c-.82.2-2 1.84.38 2.64s4.89 1 5.79-.14-.48-1.93-1.27-2.23zM396.16 358l1.07 3a9.4 9.4 0 01-1.67.21l-.89-3.14zM393.63 358.04l.95 3.32-.8-.04-.91-3.33.76.05z"/><path class="cls-3" d="M391.77 351.7l1.14 3.25-.97-.1-.95-3.05.78-.1zM393.09 351.75l.9 3.25-.43.06-1.11-3.34M358 379.33a5.52 5.52 0 01-2.06.56l1.33 5.44a10.86 10.86 0 003.06-1.36l-1.3-5.22zM355.35 379.96l.55 5.54-.63.08-.87-5.58.95-.04zM380.51 362.32l-1.76 5.99-3.38 1.85.82-5.34 4.32-2.5zM374.44 365.86l-1.06 5.38-.59.3.61-5.17 1.04-.51z"/><path class="cls-24" d="M359.34 370.81l-.59-1.05 27.6-13.9.59 1.05-27.6 13.9z"/><path class="cls-5" d="M259.84 357.11c-11.61 0-22.9-1.36-29.2-3h-.3c-.07 0-6.24-1.64-10.51-2.65-3.48.81-11.16.25-14-1.41a2.47 2.47 0 01-1.32-1.63c-.42-2.4 3.11-3.89 5.94-5.1.76-.31 1.46-.62 1.86-.84s1.08-2.17 1.52-3.56a22.69 22.69 0 013.19-7c3-3.95 6-6.66 15.94-5.58l1.2.13-.27 2.27-1.21-.13c-8.88-1-11 1.14-13.7 4.65a20.65 20.65 0 00-2.83 6.35c-.73 2.32-1.31 4.15-2.59 4.87-.52.29-1.26.61-2.11 1-1.08.46-4.29 1.82-4.53 2.57 1.15 1.13 9.31 2.11 12.54 1.2a1.26 1.26 0 01.64 0c3 .71 7.07 1.75 9.29 2.32a1.17 1.17 0 01.49.05c11.71 3.7 49.33 6.47 62.5-3.1 3.07-2.23 4.46-4.91 4.23-8.18-.73-10.57-6.41-18.08-16.88-22.31-7.94-3.22-15.81-3.25-15.89-2.42h-1.8v-2.71h1.8c.38-.41 33.3-.12 35.19 27.29.28 4-1.46 7.45-5.17 10.14-7.06 5-20.74 6.78-34.02 6.78zM337 335.78c-21.31 0-43.16-14.13-52.79-22.56-6.95-6.09-22.52-23.41-23.17-24.14l-.79-.87 1.85-1.48.79.87c.16.18 16.12 17.94 23 23.95 9.45 8.27 31 22.2 51.71 21.94 30.17-.37 40.16-10.84 46.14-17.09a33.27 33.27 0 013.21-3.1 1.23 1.23 0 01.91-.25c7.67.86 9.95.33 10.54.1a1.07 1.07 0 01.42-.75c.45-.36.38-1.31-.19-2.41-2.26-4.45-11.6-10.45-27-7.63a212.75 212.75 0 00-27.95 6.07l-1.16.35-.74-2.18 1.16-.35a217.06 217.06 0 0128.28-6.15c16.84-3.08 26.95 3.64 29.63 8.9.95 1.88.94 3.59 0 4.71a1.73 1.73 0 01-.3.69c-.73 1-2.81 2-12.42 1-.76.66-1.61 1.55-2.57 2.55-5.83 6.1-16.68 17.46-47.91 17.85zm61.52-22zM324.3 285l-1-2.1 1.11-.45a2.64 2.64 0 001.49-1.42 2.32 2.32 0 000-1.93 2.79 2.79 0 00-3.6-1.3l-1.11.45-1-2.1 1.11-.45a5.29 5.29 0 016.79 2.49 4.53 4.53 0 010 3.71 5.06 5.06 0 01-2.78 2.65zM211.86 307.91c-3.15 0-7.61-2.65-10.84-6.76a18.8 18.8 0 01-3.82-8l2.4-.36a16.51 16.51 0 003.36 7.05c3.71 4.71 8.52 6.48 9.71 5.65.89-.62.22-4.06-4-9.45a33.17 33.17 0 00-4-4.3l1.65-1.67a34.64 34.64 0 014.29 4.61c4.81 6.1 6.13 10.83 3.53 12.64a3.85 3.85 0 01-2.28.59zM229.38 305.72c-5.61 0-10.31-2-10.7-4.8-.63-4.48 9.25-6.07 12.3-6.44a28 28 0 019.81.17l-.64 2.2a26.1 26.1 0 00-8.85-.11c-6.9.86-10.37 2.81-10.22 3.88.19 1.39 4.85 3.41 11 2.64a20 20 0 002-.35l.56 2.23c-.75.16-1.52.3-2.27.39a23.81 23.81 0 01-2.99.19z"/><path class="cls-5" d="M284.09 311.86l-1.19-.18a80.82 80.82 0 00-15.37-1l-1.21.05-.11-2.28 1.21-.05a83.74 83.74 0 0115.85 1l1.2.18z"/><path class="cls-16" d="M946.58 345.95l5.08 2.63 4.77-10.08 10.12-.13 12.25-.89-2.22-2.09-9.33-3.65-14.08 1.8-6.59 12.41z"/><path class="cls-12" d="M946.55 346.79l5.08 2.63 6.09-9.16 8.83-2.27 10.18 2.14 2.07-3.02-11.58-4.53-14.17 3.06-6.5 11.15z"/><path class="cls-16" d="M949 358.15l12.97 4.98 10.36-1.26 9.07-3.62-.7-2.58-3.4-2.94-6.59 4.67-8.07 1.24-12.14-6.39-1.5 5.9z"/><path class="cls-11" d="M947.92 345.69l3.33 4.98 10.26-7.24 9.7 2.24 8.19 4.56 4.92-2.3-2.61-4.31-8.75-3.68-13.02-1.4-12.02 7.15z"/><path class="cls-12" d="M948.94 359.64l12.97 4.97 10.35-1.25 9.14-5.11-4.16-4.03-6.59 4.67-8.09 1.9-11.78-5.44-1.84 4.29z"/><path class="cls-20" d="M948.09 349.49l3.33 4.98 10.26-7.24 10.19.68 9.39 2.64 3.06-2.62-11.18-4.19-13.02-1.4-12.03 7.15zM952.46 367.56l-9.31 2.44-.6-4.93a37.92 37.92 0 0011-2.35 31.12 31.12 0 01-1.09 4.84z"/><path class="cls-12" d="M945.89 334.75c2 4.37 4.82 9.58 6.08 13.52-4.17-.44-7.68.55-11.26 1.85L939 336z"/><path class="cls-11" d="M953.51 362.75a37.85 37.85 0 01-11.06 1.92l-1.17-15c3.63-1.16 6.54-2 10.69-1.36a35.34 35.34 0 011.54 14.44z"/><path class="cls-16" d="M949.43 349.84a35.21 35.21 0 01-3.73 22c-5.16.14-10.45 0-15.82.18 1.68-9.77 1.82-19.65-.43-28.84a39.94 39.94 0 005.21-12.18 56 56 0 015.94 2c2.07.77 7.06 6.47 8.83 16.84z"/><path class="cls-21" d="M927.94 381.73c.46-2.09 1.91-7.32 2.27-9.87 4.17 0 11.28-.28 15.64-.28a7.4 7.4 0 01-2.22 2.67c-2.2 1.79-9.73 5.75-15.69 7.48"/><path class="cls-22" d="M923.57 329c-28.06-3.59-53.19 9.67-58.09 13.2-4.46 8.56-4.46 31.12 6.24 39.47 14.93 5.82 37.5 6.61 56.22.11 4.47-15.35 6.06-37.13-4.37-52.78z"/><path class="cls-18" d="M866.24 374.55a19.8 19.8 0 005.48 7.07c14.93 5.82 37.5 6.61 56.22.11 3.22-11 4.94-25.39 1.76-38.44-3.28 5.16-11.87 17.31-27.14 12.65-27.56-8.43-48.21-9.57-36.32 18.61z"/><path class="cls-23" d="M871.72 381.62c14.93 5.82 37.5 6.61 56.22.11a84.35 84.35 0 002.16-9.28c-16.41.55-41.86 5.35-58.38 9.17z"/><path class="cls-12" d="M934.66 331.08a48.17 48.17 0 01-5 11.93c-1-4.91-4.73-12.46-6.06-14.06a82.61 82.61 0 0111.06 2.13z"/><path class="cls-5" d="M303.52 298a61.37 61.37 0 01-11.77-1.37c-9.88-2-15-13.73-14.6-17.36.32-2.73 2.47-9.42 15.44-13.64-.65-7.59.08-24.08 16.65-33 7.25-3.89 15.75-5 19.35-2.45 4.17 2.92 5.62 6.52 6.78 9.42a13.55 13.55 0 001.73 3.4 31 31 0 00.71-4.71 39.09 39.09 0 00-9.34-27.88l-.81-.85 1.78-1.54.82.84a40.68 40.68 0 0110 29.58c-1.09 16-15.4 33.07-18.81 36.93 1.9 2.16 6.13 8.33-.13 15.29-5 5.56-11.21 7.34-17.8 7.34zM323 231.12a27.47 27.47 0 00-12.53 3.48c-6.66 3.56-17.47 12.4-15.37 31.68a1.16 1.16 0 01-.84 1.2c-12.44 3.79-14.43 9.65-14.7 12-.35 2.92 4.43 13.24 12.69 14.87 13.61 2.7 21.49 1.2 27.19-5.15 6.23-6.93-.18-12.7-.46-12.94a1.1 1.1 0 01-.09-1.59c.15-.17 13.16-14.35 17.55-29.11-1.72-1.13-2.51-3.1-3.34-5.17-1.1-2.75-2.35-5.87-6-8.39a7.87 7.87 0 00-4.1-.88z"/><path class="cls-20" d="M24 271.09l15.47 60.46c.23 3 9.45 4.77 20.6 4s20-4.76 19.76-7.73l13.43-48.6"/><ellipse class="cls-6" cx="58.67" cy="275.15" rx="5.09" ry="34.87" transform="rotate(-83.32 58.677 275.16)"/><ellipse class="cls-12" cx="58.67" cy="275.15" rx="3.63" ry="24.83" transform="rotate(-83.32 58.677 275.16)"/><path class="cls-11" d="M45.32 307.33l-2.36-18.76 1.09-.12 2.36 18.76-1.09.12zM49.36 311.73l-.67-24.16 1.1-.03.67 24.17-1.1.02z"/><path class="cls-11" d="M50.43 294c-4.36 0-10.6-.68-12.92-1.9l.53-.91c2.91 1.53 12.84 2.16 15.8 1.54l.24 1a20.08 20.08 0 01-3.65.27zM51 300.91c-3.83 0-8.82-.47-12.07-1.75l.43-1c4 1.57 11.06 1.86 14.57 1.56l.1 1c-.88.15-1.91.19-3.03.19z"/><path class="cls-13" d="M59.17 277.1c-.07 0-.13-.15 0-.15v.15a.1.1 0 00.07 0c.09-.08 0-.22 0-.32a4 4 0 00-4-1.66c.36-1.39-1.14-2.62-2.6-3a.88.88 0 01-.47-.24c-.19-.24 0-.57 0-.86a1.24 1.24 0 000-.51 2.62 2.62 0 00-1.59-1.51 4.73 4.73 0 00-4.17.22 4 4 0 00-1 1 9.3 9.3 0 00-1.41 3.29 8.15 8.15 0 00-3.73-.6 3.28 3.28 0 00-2.27 1.41c4.3 1.48 11.74 3 20.26 4l1.21.14a6.29 6.29 0 00-.3-1.36z"/><path class="cls-34" d="M43.36 275.78h-.07a142.19 142.19 0 0014.93 2.51h.4a4.21 4.21 0 00.69-.71c-.05-.19-.09-.37-.14-.55s-.13-.15 0-.15v.15a.1.1 0 00.07 0c.09-.08 0-.22 0-.32a4 4 0 00-4-1.66 1.92 1.92 0 00-.5-1.75 2.43 2.43 0 01-1.11 1.06 3.56 3.56 0 01-3-.12l.15.37c-.07-.07-.21 0-.24.1a.62.62 0 000 .3c0 .42-.36.8-.81.89a3.22 3.22 0 01-1.34-.12 9.15 9.15 0 00-5.03 0z"/><path class="cls-13" d="M76.45 274.22a5 5 0 00-2.54-2.45l1.59-1.49a3.93 3.93 0 00-2.88-1.86 2.81 2.81 0 00-.6-3.6 5.07 5.07 0 00-3.92-1 5.22 5.22 0 00-3.83 2.2 3.14 3.14 0 00.52 4c-.39.84-1.65.78-2.53 1.16a2.17 2.17 0 00-.51.31 5 5 0 00-1.42 3.41 3.8 3.8 0 00-4.15 1.67 3.56 3.56 0 00-.46 1.48l2.5.31a127.32 127.32 0 0017.74 1c.17-.28.35-.55.51-.83a4.77 4.77 0 00-.02-4.31z"/><path class="cls-34" d="M73.91 271.77l1.59-1.49a3.93 3.93 0 00-2.88-1.86 2.8 2.8 0 00-.56-3.56 7.32 7.32 0 01-1.34 5 1 1 0 00-.26.58 1 1 0 00.35.6 5.87 5.87 0 011.69 2.57 2.23 2.23 0 01-1.15 2.6c-1 .42-2.16-.12-3.22-.44s-2.54-.23-2.87.77a7.35 7.35 0 01-.19.84 1.44 1.44 0 01-1.37.69 11.31 11.31 0 01-1.61-.28 4.74 4.74 0 00-3.13.6 125.83 125.83 0 0017 .91c.17-.28.35-.55.51-.83a4.77 4.77 0 000-4.26 5 5 0 00-2.56-2.44z"/><path class="cls-13" d="M3.33 334.63a1.79 1.79 0 00.46-.45c.23-.41-.1-.92-.53-1.13a8.82 8.82 0 00-1.38-.41 2.7 2.7 0 01-1.81-3.1 2.89 2.89 0 013.09-2 3.62 3.62 0 01.28-5.45 4.15 4.15 0 015.69 1.06c.49.82 1 2 2 1.85a3.26 3.26 0 00.72-.31 2.76 2.76 0 013.31.85c.24.35.41.78.79 1a1.91 1.91 0 001.39 0l3.36-.94a5.56 5.56 0 01-1.05-2.14 4 4 0 01-.1 7.22 3.15 3.15 0 013.09 1.2 4.32 4.32 0 01.73 3.2 1.39 1.39 0 01-.33.81 1.58 1.58 0 01-.6.32A35.59 35.59 0 019.14 339c-1.81 0-9.54-1.1-5.81-4.37z"/><path class="cls-34" d="M12.6 325l.71-.48a2.7 2.7 0 00-1.49.2 3.26 3.26 0 01-.72.31 1.14 1.14 0 01-1.06-.43 13.43 13.43 0 01-1.67 1.34c1.41.48 2.99-.17 4.23-.94zM7.34 325.57a15.45 15.45 0 01-5.2.15 3.45 3.45 0 00.49 1.19 5.41 5.41 0 00.55.12 4.53 4.53 0 004.16-1.46zM23 335.83a1.39 1.39 0 00.33-.81 4.32 4.32 0 00-.73-3.2 3.15 3.15 0 00-3.09-1.2 4.17 4.17 0 002.34-3.62 3.49 3.49 0 00-.06-.65l-.18.22c-1.3 1.58-2.33 3.07-4.77 3a3.59 3.59 0 011.87.79 1.09 1.09 0 01-.12 1.7 5.34 5.34 0 012.51.79 1.6 1.6 0 01.46 2.22 2.38 2.38 0 01-1.21.62 6.43 6.43 0 01-3.23.08 3.25 3.25 0 01-2.3-2c-.2.66-1.22.53-1.88.25l-2.3-.95a1.24 1.24 0 00-1.1-.09 1 1 0 00-.35.42l-1.26 2.19a1.87 1.87 0 01-.82.89c-1.08.41-1.91-1.11-3.06-1.29-.3-.05-.61 0-.92 0a1.28 1.28 0 01-.28-.07C.39 338 7.42 339 9.14 339a35.59 35.59 0 0013.27-2.82 1.58 1.58 0 00.59-.35zM15.2 325.64l-1.71 1.49a14.61 14.61 0 002.34-.69 2.63 2.63 0 01-.63-.8zM2.76 332.86a8.13 8.13 0 003.58-.46c1.3-.57 2.3-2 1.86-3.26a18 18 0 01-7.48 1.31 3.36 3.36 0 01-.7-.09 2.78 2.78 0 001.86 2.28c.28.09.59.15.88.22z"/><path class="cls-13" d="M26.85 333.22c1.2 1.16 3.07 1.41 4.57 2.2a6.11 6.11 0 012.9 7.4 3.59 3.59 0 014-.49 3.19 3.19 0 011.55 3.56 1.94 1.94 0 01-1.07 1.31 1.18 1.18 0 01-1.51-.53l.77 3.8a2.17 2.17 0 01-.33 2.12 2.06 2.06 0 01-1.09.4 6.4 6.4 0 01-5.64-2.16c-.84-1-1.77-2.48-3.08-2.13a2.7 2.7 0 00-1 .59c-1.52 1.25-3 2.65-5 3.11s-4.45-.51-4.68-2.39a8.5 8.5 0 01.39-2.48 2.07 2.07 0 00-.77-2.25c-2.27-1.23-4.64 1.92-5.44-2A6.56 6.56 0 0114.4 337c3.66-1.86 12.11 3.62 12.45-3.78z"/><path class="cls-34" d="M36.69 353a2.06 2.06 0 001.09-.4 2.17 2.17 0 00.33-2.12l-.45-2.22a1.52 1.52 0 01-.66.74 2.8 2.8 0 01-1.52.23 11.7 11.7 0 01-4-1 1.82 1.82 0 01-.68-.46 1.64 1.64 0 01-.28-.89 12.06 12.06 0 01.39-4.43 8.16 8.16 0 01-2.85.6.93.93 0 01.76.94 2.09 2.09 0 01-.76 1.29c-.8.79-2.07 1.49-3 .89a5.32 5.32 0 01-4.06 4.18c-1.2.26-2.77-.09-3.05-1.21a3.11 3.11 0 01.34-1.8 10.55 10.55 0 00.64-4.52 13.92 13.92 0 01-4.29 1.39c-.62.06-2-.41-3-.42.91 3.1 3.15.32 5.31 1.49a2.07 2.07 0 01.77 2.25 8.5 8.5 0 00-.39 2.48c.23 1.88 2.73 2.86 4.68 2.39s3.46-1.86 5-3.11a2.7 2.7 0 011-.59c1.31-.35 2.24 1.12 3.08 2.13a6.4 6.4 0 005.6 2.17zM38.81 344.63c-.42.7-1.57 1.09-2.11.47a5.28 5.28 0 011.06 1.9v.1a1.29 1.29 0 001.07.06 1.94 1.94 0 001.07-1.31 3.11 3.11 0 00-.65-2.81 4 4 0 01-.44 1.59z"/><path class="cls-11" d="M79.87 327.82L89 294.94c-3.86.17-7.59 2.35-10.75 4.65-2.25 1.58-4.42 3.41-5.25 5.84-1.16 3.26.28 6.76 1.28 10.06s1.34 7.36-1.32 9.71c-2 1.72-5 1.91-7.56 1.32s-5-1.81-7.5-2.64a25.53 25.53 0 00-19.9 1.86l1.48 5.81c.23 3 9.45 4.77 20.6 4s20.02-4.76 19.79-7.73z"/></g></g></svg>