<svg width="106" height="58" fill="none" xmlns="http://www.w3.org/2000/svg"><path d="M37.515 57.204C16.796 57.204 0 53.944 0 49.922s16.796-7.282 37.515-7.282c20.718 0 37.514 3.26 37.514 7.282s-16.795 7.282-37.514 7.282z" fill="#E8EAEE"/><path d="M73.57 15.583l4.328 2.39 4.072-9.12 8.646-.123 10.448-.797-1.9-1.888-7.96-3.31-12.018 1.63-5.617 11.218z" fill="#6A737D"/><path d="M73.545 16.698l4.329 2.379 5.187-8.288 7.555-2.06 8.67 1.938 1.778-2.734-9.884-4.095-12.092 2.77-5.543 10.09z" fill="#959DA5"/><path d="M75.63 26.972l11.075 4.5 8.83-1.129 7.75-3.285-.601-2.33-2.906-2.66-5.617 4.23-6.88 1.115-10.375-5.774-1.275 5.333z" fill="#6A737D"/><path d="M74.71 15.693l2.833 4.512 8.757-6.547 8.29 2.023 6.99 4.132 4.194-2.085-2.232-3.898-7.456-3.335-11.123-1.263-10.252 6.461z" fill="#B2BBC4"/><path d="M75.582 28.32l11.074 4.5 8.83-1.14 7.799-4.622-3.556-3.641-5.63 4.23-6.892 1.716-10.056-4.929-1.57 3.887z" fill="#959DA5"/><path d="M74.858 19.138l2.845 4.512 8.744-6.56 8.695.614 8.02 2.39 2.612-2.366-9.54-3.788-11.112-1.263-10.264 6.461zm3.727 16.342l-7.947 2.244-.515-4.463a31.072 31.072 0 009.358-2.133 31.223 31.223 0 01-.896 4.352z" fill="#D1D5DA"/><path d="M72.981 5.812c1.68 3.96 4.109 8.668 5.188 12.26a19.628 19.628 0 00-9.615 1.667L67.082 6.928l5.9-1.116z" fill="#959DA5"/><path d="M79.481 31.128a31.05 31.05 0 01-9.443 1.753l-.993-13.62c3.09-1.042 5.58-1.778 9.124-1.226a33.95 33.95 0 011.312 13.093z" fill="#B2BBC4"/><path d="M75.973 19.457a33.397 33.397 0 01-3.189 19.897c-4.402.135-8.915 0-13.49.16a68.018 68.018 0 00-.368-26.089 36.929 36.929 0 004.452-11.033 43.384 43.384 0 015.077 1.79c1.779.735 6.034 5.884 7.518 15.275z" fill="#6A737D"/><path d="M57.664 48.304c.392-1.888 1.619-6.62 1.925-8.925 3.569 0 9.627-.258 13.355-.258a6.596 6.596 0 01-1.9 2.452 49.27 49.27 0 01-13.38 6.767" fill="#586069"/><path d="M53.898.553C29.96-2.697 8.523 9.306 4.328 12.493.514 20.241.514 40.691 9.651 48.206c12.742 5.271 32.008 5.982 47.988.098 3.826-13.841 5.187-33.543-3.74-47.751z" fill="#FFF5B1"/><path d="M5.003 41.818a17.85 17.85 0 004.673 6.388c12.742 5.271 32.008 5.982 47.988.098 2.734-9.967 4.206-22.975 1.496-34.78-2.796 4.682-10.13 15.667-23.166 11.45-23.559-7.626-41.145-8.668-30.99 16.844z" fill="#FFDF5D"/><path d="M9.677 48.206c12.742 5.271 32.008 5.982 47.987.098a85.239 85.239 0 001.84-8.398c-14.005.515-35.736 4.843-49.827 8.3z" fill="#F9C513"/><path d="M63.39 2.477a44.765 44.765 0 01-4.292 10.801 43.44 43.44 0 00-5.2-12.726 67.102 67.102 0 019.493 1.925z" fill="#959DA5"/></svg>