<svg width="1059" height="548" fill="none" xmlns="http://www.w3.org/2000/svg"><path d="M549.06 471.715c-58.444 0-105.821-9.525-105.821-21.275 0-11.75 47.377-21.274 105.821-21.274 58.443 0 105.821 9.524 105.821 21.274 0 11.75-47.378 21.275-105.821 21.275zm-218.57-7.496c-33.841 0-61.274-5.325-61.274-11.895 0-6.57 27.433-11.895 61.274-11.895s61.275 5.325 61.275 11.895c0 6.57-27.434 11.895-61.275 11.895zm-189.197 18.798c-41.014 0-74.262-6.139-74.262-13.713 0-7.574 33.248-13.713 74.262-13.713s74.262 6.139 74.262 13.713c0 7.574-33.248 13.713-74.262 13.713z" fill="#E8EAEE"/><path d="M673.072 471.135c1.62 3.833-7.008 8.246-9.787 7.43-1.581-6.719 3.28-7.693 5.124-8.299 1.844-.606 4.663.869 4.663.869z" fill="#1B8CFA"/><path d="M664.786 476.602a2.488 2.488 0 012.753-1.792s-.171 1.726-2.753 1.792z" fill="#FFA875"/><path d="M664.536 477.788c.698 1.067.856 2.107-.277 2.252m-.407-2.885c-1.16-.645-1.976.092-2.78 1.91m5.716-1.699a4.035 4.035 0 011.594 4.848m.737-6.574c2.766.237 4.439 3.346 4.255 5.388m-1.896-7.68a5.27 5.27 0 014.715 4.466m-12.79-1.805c-1.409-1.027-5.743-1.172-5.993 2.305m6.718-4.65c-.435-2.055-3.952-2.779-3.952-.579m7.745-1.318c-.237-1.989-2.345-2.779-3.03-1.317" stroke="#1B8CFA" stroke-width=".87" stroke-miterlimit="10"/><path d="M663.403 476.009a2.372 2.372 0 011.212-2.529s.553 1.119-1.212 2.529z" fill="#FFA875"/><path d="M54.083 413.806l-4.28-374.735 529.368 6.995 8.904 160.923 177.777 2.344 9.971-107.07 209.284 2.766-14.304 307.249-916.72 1.528z" fill="#F6F8FA"/><path d="M135.273 399.895s18.572 11.79 25.5 16.414c5.387 3.596 23.064 9.366 44.968 3.596" stroke="#0366D6" stroke-width="1.69" stroke-linecap="square" stroke-linejoin="round"/><path d="M218.123 149.29l-40.002-.737s-3.701 58.515-1.475 57.777c2.226-.738 37.552-2.635 37.552-2.635l3.925-54.405z" fill="#E1E4E8"/><path d="M208.652 197.069l2.806-41.297-28.503-.554-1.12 43.709 26.817-1.858z" fill="#F9FBFC"/><path d="M713.653 341.815l10.38.738.368-4.255h-10.748v3.517z" fill="#D0D5DA"/><path d="M670.99 311.569c0 .343-.5.58-1.054.541-.553-.04-.698-.106-.671-.448.026-.343.461-1.054 1.027-1.015a.812.812 0 01.54.317.808.808 0 01.158.605zm35.682.83a.766.766 0 01.316-.553l-.105.935a.428.428 0 01-.211-.382zm-3.306-1.514a.661.661 0 01.384-.341.637.637 0 01.26-.033.64.64 0 01.252.071c-.33.21-.659.421-.949.645a.44.44 0 01.053-.342z" fill="#959DA5"/><path d="M638.827 412.216l-2.296-.273-2.027-63.434 2.527-1.126" fill="#D0D5DA"/><path d="M742.094 348.091l-1.568 64.456-9.954.38 2.086-64.159 9.436-.677z" fill="#E1E4E8"/><path d="M730.571 412.927l-2.989.039 2.324-63.056 2.751-1.142" fill="#D0D5DA"/><path d="M727.719 338.833l-1.195 73.883-8.875.248 1.648-73.468 8.422-.663z" fill="#E1E4E8"/><path d="M727.395 359.363l-9.205 1.266.588-11.496 8.885-.485-.268 10.715z" fill="#D0D5DA"/><path d="M717.65 412.964l-2.668-.518 1.854-71.811 2.462-1.139" fill="#D0D5DA"/><path d="M718.003 392.632l-71.8 2.427.357 6.108 71.61-2.793-.167-5.742z" fill="#E1E4E8"/><path d="M729.729 393.809l-86.647 1.317.304 6.109 86.418-1.683-.075-5.743z" fill="#E1E4E8"/><path d="M645.282 346.721l.033 64.975-6.82.274-1.832-64.583 8.619-.666z" fill="#E1E4E8"/><path d="M634.751 353.341l10.388.615.313-4.273-10.747.141.046 3.517z" fill="#D0D5DA"/><path d="M658.738 346.216l.093 65.541-7.926.301-1.603-65.165 9.436-.677z" fill="#E1E4E8"/><path d="M650.905 412.058l-2.675-.018-1.692-63.991 2.764-1.156" fill="#D0D5DA"/><path d="M648.298 354.758l10.35-1.321.313-4.26-10.734.141.071 5.44zm-3.437-22.101l.021 16.704-11.092 1.028-1.919-18.867 12.99 1.135z" fill="#D0D5DA"/><path d="M752.554 326.059l-110.146 3.323-16.7-2.772 115.711-1.881 11.135 1.33z" fill="#E1E4E8"/><path d="M642.189 326.763l-13.711.18.119 9.075 14.989-1.092-1.397-8.163z" fill="#D0D5DA"/><path d="M746.341 332.477l-.859 18.903-100.601-2.018-.021-16.705 101.481-.18z" fill="#E1E4E8"/><path d="M746.203 335.996l-.328 3.153-103.514.8.643-7.228 103.199 3.275z" fill="#D0D5DA"/><path d="M752.555 326.059l-.622 8.9-110.001.331.257-8.527 110.366-.704z" fill="#E1E4E8"/><path d="M731.652 356.488l10.351-1.176.313-4.26-10.734.141.07 5.295zm-85.909 1.347l-9.055 1.593-1.397-8.123 9.848 2.651.604 3.879z" fill="#D0D5DA"/><path d="M695.017 344.372l2.319-.03-.028-2.134-2.318.03a1.743 1.743 0 00-.567 1.022 1.326 1.326 0 00.594 1.112z" fill="#F6F8FA"/><path d="M735.298 338.181l.407 9.994-76.678-.948.416-10.558" stroke="#D0D5DA" stroke-width=".84" stroke-miterlimit="10"/><path d="M699.286 346.385a3.056 3.056 0 11-.078-6.112 3.056 3.056 0 01.078 6.112z" fill="#F6F8FA"/><path d="M696.222 343.777a3.004 3.004 0 01.539-2.142c-.005.106-.004.211.004.316.097.328.268.628.5.878.231.251.517.445.836.567.247.057.487.142.715.254.253.184.474.408.654.664.341.441.803.774 1.33.957.276.031.554.027.829-.011a2.992 2.992 0 01-2.014 1.133 3.04 3.04 0 01-3.393-2.616z" fill="#D0D5DA"/><path d="M694.464 343.259l2.111.315.208.762-1.765.023c-.596-.243-.554-1.1-.554-1.1zm41.41-18.458l-29.633.414.802-19.232.038-1.146 30.4 1.789-1.607 18.175z" fill="#D0D5DA"/><path d="M695.479 294.989l-34.925 5.792 9.562 8.952 36.965-4.896-11.602-9.848z" fill="#CED5DA"/><path d="M695.48 295.042c2.735 7.711-38.838 18.806-34.925 5.726l34.925-5.726z" fill="#E1E4E8"/><path d="M670.116 309.733l-1.826 16.505 37.951-1.023.84-20.378-36.965 4.896z" fill="#B2BBC4"/><path d="M670.117 309.733l-1.826 16.505 38.166-1.685" stroke="#B2BBC4" stroke-width=".84" stroke-miterlimit="10"/><path d="M660.435 326.973l24.439-.741a11.645 11.645 0 00-11.994-10.607c-11.174-.275-12.445 11.348-12.445 11.348z" fill="#E1E4E8"/><path d="M672.92 315.625c9.224.209 11.344 7.203 11.825 9.713-1.665.601-3.708.549-4.751-.636-2.059-2.371-2.801-4.667-5.864-6.247a19.016 19.016 0 00-6.823-1.966 13.668 13.668 0 015.613-.864z" fill="#D0D5DA"/><path d="M665.332 317.595a6.146 6.146 0 001.383 5.054 5.029 5.029 0 002.538 1.532 5.028 5.028 0 002.96-.168 6.294 6.294 0 011.927-.711c.927.108 1.809.46 2.556 1.021a4.817 4.817 0 005.132-.396 3.828 3.828 0 001.288-2.257 3.124 3.124 0 00-.009-.619 12.843 12.843 0 011.754 5.181l-24.439.741s.351-6.447 4.91-9.378z" fill="#D0D5DA"/><path d="M677.672 325.457c.005.342-.492.586-1.059.554-.567-.033-.993-.343-.971-.686.022-.343.74-.813 1.307-.781a.807.807 0 01.699.591c.03.105.038.214.024.322zm-9.606-2.312c.004.342-.493.586-1.06.554-.567-.032-.686-.083-.664-.426.022-.343.434-1.073 1.001-1.028a.806.806 0 01.723.9zm7.88-2.817c.004.303-.441.52-.929.487-.488-.033-.607-.085-.584-.375.022-.29.383-.94.87-.907a.727.727 0 01.643.795zm-11.651-1.442a.71.71 0 01-.409.954.847.847 0 01-.673-.096c-.278-.129-.313-.787.091-1.069a.72.72 0 01.54-.102.72.72 0 01.451.313zm18.129 1.199a.746.746 0 01.003.566.732.732 0 01-.399.401.972.972 0 01-.686-.11c-.278-.128-.3-.773.091-1.068a.72.72 0 01.54-.102.72.72 0 01.451.313zm-28.146-5.718c.005.408.55.743 1.221.735.672-.009.829-.077.824-.486-.005-.408-.465-1.311-1.124-1.302a.966.966 0 00-.688.327.965.965 0 00-.233.726z" fill="#959DA5"/><path d="M666.296 326.857l-29.202.197s.971-13.45 14.32-13.058c13.349.392 14.882 12.861 14.882 12.861z" fill="#E1E4E8"/><path d="M637.147 327.053s.185-7.024 5.014-10.512c-.412.743-.996 1.435-1.421 2.179a6.319 6.319 0 00-.066 5.995c.998 1.831 2.575 1.56 4.658 1.678a84.93 84.93 0 008.967-.302c1.601.059 3.192.277 4.751.65a6.94 6.94 0 004.669-.496c.824-.485 1.175-1.847 1.84-2.369.362.965.626 1.963.79 2.98l-29.202.197z" fill="#D0D5DA"/><path d="M645.161 325.368c.005.408.549.73 1.221.721.672-.008 1.194-.345 1.189-.753-.005-.408-.83-1.004-1.488-.995a.96.96 0 00-.922 1.027zm11.55-2.154c.006.409.55.731 1.209.722.658-.008.842-.011.836-.472-.006-.461-.465-1.311-1.136-1.302a.954.954 0 00-.868.669.973.973 0 00-.041.383zm-9.125-3.767c.005.356.483.639 1.062.632.58-.008.725-.01.719-.418-.005-.408-.41-1.128-.989-1.12a.84.84 0 00-.792.906zm13.871-1.038a.843.843 0 00.41 1.154 1.012 1.012 0 00.815-.076c.341-.136.41-.901-.017-1.317a.83.83 0 00-1.208.239zm-21.613.296a.875.875 0 00.146.966.865.865 0 00.278.201c.271.083.564.055.816-.076.327-.136.409-.915-.018-1.318a.85.85 0 00-.659-.149.85.85 0 00-.563.376z" fill="#959DA5"/><path d="M702.854 315.049a.763.763 0 00.481.468.871.871 0 00.63-.179c.222-.148.175-.701-.171-.947.68-.417 1.738-.088 2.633-.166l.018 1.396a.765.765 0 00-.309.558.438.438 0 00.216.379l-.301 7.237-7.229.239a11.492 11.492 0 014.032-8.985zm-.097 7.682a.746.746 0 00.278-.122.743.743 0 00.209-.22.783.783 0 00.107-.284.779.779 0 00-.013-.304c-.07-.315-.534-.507-1.046-.408-.512.099-.89.447-.833.762.057.316.799.675 1.311.576h-.013z" fill="#D0D5DA"/><path d="M702.305 321.393c.513-.099.976.093 1.046.408a.755.755 0 01-.094.588.779.779 0 01-.486.342c-.513.099-1.242-.261-1.325-.576-.083-.315.334-.663.859-.762zm1.673-6.055a.869.869 0 01-.63.179.76.76 0 01-.48-.468c.287-.228.613-.443.94-.658.359.299.366.799.17.947z" fill="#959DA5"/><path d="M659.492 201.601l3.701-.066 1.449-9.893-4.768-.698-.382 10.657zm-48.512-1.107l3.623.04.158-9.999-4.808-.079 1.027 10.038z" fill="#CED5DA"/><path d="M589.128 192.34l93.321 1.12v-8.154h-93.69l.369 7.034z" fill="#E1E4E8"/><path d="M645.793 181.143c-1.673 0-8.614 4.163-8.614 4.163l-16.939-38.057 9.444-4.44 16.109 38.334z" fill="#CED5DA"/><path d="M623.019 126.422l-3.056 59.16-11.117.277 1.106-57.777 13.067-1.66z" fill="#E1E4E8"/><path d="M608.847 140.583l-11.67-1.106-.554 45.829 11.117.553 1.107-45.276z" fill="#CED5DA"/><path d="M663.641 166.284c-1.028-10.249-12.592-40.112-21.417-35.647-8.825 4.466 14.488 33.723 17.571 35.278 3.082 1.554 3.846.369 3.846.369z" fill="#E1E4E8"/><path d="M662.653 165.362c3.78-10.025 16.939-32.749 22.853-26.004 5.914 6.745-13.449 22.724-18.73 26.28-5.282 3.557-4.123-.276-4.123-.276z" fill="#E1E4E8"/><path d="M663.101 166.508c0-1.476-3.53-36.213-3.53-36.213-2.635.882-2.345-4.413 0-4.703 2.344-.29 3.832 3.53 2.357 4.11l1.173 17.968c5.887-.896 6.48-8.549 4.715-11.197-1.765.593-2.358-3.227 0-3.82s3.82 2.793 2.055 3.385c1.185 5.006.83 11.988-5.941 13.173l.356 17.586-1.185-.289z" fill="#E1E4E8"/><path d="M685.123 166.784c-7.903-4.242-33.693-5.453-40.055-1.818-.606 11.527 6.362 20.037 18.506 20.037 11.222 0 20.324-4.532 21.549-18.219z" fill="#F6F8FA"/><path d="M685.123 166.784c-7.903-4.242-33.693-5.453-40.055-1.818-.606 11.527 6.362 20.037 18.506 20.037 11.222 0 20.324-4.532 21.549-18.219z" fill="#F6F8FA"/><path d="M653.564 173.713c2.885 2.068 6.309 3.728 9.839 3.359 2.476-.276 4.782-1.528 7.258-1.778s6.796 1.554 9.299 4.097c-3.952 4.044-9.813 5.612-16.386 5.612-11.248 0-18.058-7.298-18.519-17.534 3.082 1.7 5.624 4.189 8.509 6.244z" fill="#E1E4E8"/><path d="M660.611 165.032c-.329-.421-13.869-26.899-13.869-26.899m7.02 14.833l-2.582-.738m1.146-3.978l1.422-4.967m-4.148.843l-5.295-1.831" stroke="#F6F8FA" stroke-width=".84" stroke-miterlimit="10"/><path d="M643.824 136.792c-.072-1.015.657-1.895 1.63-1.965.972-.069 1.819.698 1.891 1.714.073 1.016-.657 1.896-1.629 1.965-.972.07-1.819-.698-1.892-1.714zm22.503 27.964c0-.435 14.199-19.76 14.199-19.76" stroke="#F6F8FA" stroke-width=".84" stroke-miterlimit="10"/><path d="M681.159 145.549a1.475 1.475 0 11-.001-2.95 1.475 1.475 0 01.001 2.95zm-4.729 4.743l.132-3.979m-2.911 8.405l3.675-1.041m-7.337 5.625l.132-4.861" stroke="#F6F8FA" stroke-width=".84" stroke-miterlimit="10"/><path d="M588.759 185.306l.369 7.034h9.075v-6.85l-9.444-.184z" fill="#D0D5DA"/><path d="M198.292 394.048c-1.293-2.369 2.183-6.76 7.763-9.807 5.581-3.046 11.153-3.596 12.446-1.226 1.293 2.369-2.182 6.759-7.763 9.806-5.58 3.047-11.153 3.596-12.446 1.227z" stroke="#0366D6" stroke-width="1.69" stroke-linecap="square" stroke-linejoin="round"/><path d="M432.926 338.93l-17.031-.738-2.226 29.258 18.519 1.106.738-29.626z" fill="#fff"/><path d="M426.221 350.404h-4.175c-2.489-2.082-1.66-7.219 2.081-6.811 3.741.409 4.584 3.952 2.094 6.811zm-4.465 11.777l4.176-.106c2.45-2.134 1.488-7.258-2.253-6.758-3.74.501-4.491 4.005-1.923 6.864z" fill="#E1E4E8"/><path d="M424.515 345.804l.92.072-.218 2.771-.919-.072.217-2.771zm.284 11.683l.919.073-.218 2.771-.919-.073.218-2.771zm-2.687-11.644l.921-.041.123 2.777-.921.041-.123-2.777zm.097 11.695l.921-.04.123 2.776-.921.041-.123-2.777z" fill="#CED5DA"/><path d="M641.684 479.961c1.159 6.007-14.134 10.249-17.901 8.918-2.292-2.503-1.554-8.562 3.649-10.314 5.203-1.752 12.934-1.028 14.252 1.396z" fill="#1B8CFA"/><path d="M637.758 483.887c3.596-2.925 8.219-.778 8.166 5.177m-12.367-3.109c5.347-.817 8.601 1.778 8.667 8.431m-13.515-7.456c5.479 1.554 7.666 5.019 6.085 10.261m-10.353-11.75c-2.871-4.795-8.311-6.099-7.415-.29m9.616-2.424c-1.318-5.506-4.887-7.1-4.255-2.911m8.535-.316c-.751-4.887-1.647-7.601-.158-5.691a18.448 18.448 0 012.318 5.836" stroke="#1B8CFA" stroke-width=".71" stroke-miterlimit="10"/><path d="M626.324 487.404a3.583 3.583 0 013.61-3.056s.065 2.516-3.61 3.056zm-2.08-.567a3.412 3.412 0 011.317-3.833s1.041 1.488-1.317 3.833z" fill="#FFA875"/><path d="M625.193 488.062a2.86 2.86 0 01.367 2.446 2.841 2.841 0 01-1.685 1.809m.04-4.913c-2.068-.277-3.675 1.633-3.253 2.871" stroke="#1B8CFA" stroke-width=".71" stroke-miterlimit="10"/><path d="M157.757 121.14l-34.444 5.559 2.78 44.446 33.324-1.12-1.66-48.885z" fill="#E1E4E8"/><path d="M152.936 129.281l1.489 35.567-21.483-.738-3.701-33.341 23.695-1.488z" fill="#F9FBFC"/><path d="M144.259 247.772c-9.998-.73-17.365-11.411-16.456-23.855.91-12.444 9.752-21.939 19.749-21.208 9.998.731 17.365 11.411 16.456 23.855-.91 12.444-9.751 21.939-19.749 21.208z" fill="#E1E4E8"/><path d="M134.544 223.388c-.589-9.822 5.331-18.168 13.224-18.641 7.893-.474 14.769 7.104 15.358 16.926.59 9.822-5.331 18.167-13.224 18.641-7.893.474-14.769-7.104-15.358-16.926z" fill="#F9FBFC"/><path d="M207.203 374.102l-21.549 14.385m28.175 7.482a106.45 106.45 0 01-30.835 9.762m76.33-32.551c7.613-2.108 16.214-13.845 11.314-26.241-4.9-12.396-22.484-6.665-22.484-6.665m-58.692-11.527l9.431-11.632s-.738-5.098-10.538-6.586a26.1 26.1 0 00-17.452 3.952" stroke="#0366D6" stroke-width="1.69" stroke-linecap="square" stroke-linejoin="round"/><path d="M418.028 256.835c-5.681 0-10.287-5.815-10.287-12.988 0-7.174 4.606-12.989 10.287-12.989 5.682 0 10.287 5.815 10.287 12.989 0 7.173-4.605 12.988-10.287 12.988zm19.06 6.784c-.909 1.449-11.288 5.349-16.662 3.07-5.374-2.279-.158-9.682-.158-9.682l16.82 6.612z" fill="#959DA5"/><path d="M424.667 220.412c4.953 0 11.433 3.82 14.489 14.029a1.937 1.937 0 00-.803-.184c-2.49 0-4.518 5.058-4.518 11.289s2.028 11.276 4.518 11.276a2.878 2.878 0 002.239-1.488 113.122 113.122 0 01-1.317 9.405l-11.46-2.845-9.734.316s-2.002-41.798 6.586-41.798z" fill="#FEDD6A"/><path d="M438.379 256.875c-2.49 0-4.518-5.045-4.518-11.276s2.028-11.289 4.518-11.289c.278.003.552.066.803.184 1.581 5.203 2.266 12.053 1.436 20.892a2.89 2.89 0 01-2.239 1.489z" fill="#F9FBFC"/><path d="M440.763 242.99c.093 1.212.172 2.464.198 3.781l-1.014-2.529.816-1.252zm-6.006 9.274a24.172 24.172 0 01-.895-6.718c0-4.479 1.053-8.352 2.568-10.17l3.504 8.866-5.177 8.022z" fill="#F9FBFC"/><path d="M440.96 246.771a75.558 75.558 0 01-.342 8.563 2.878 2.878 0 01-2.239 1.488c-1.489 0-2.806-1.791-3.623-4.558l5.177-8.022 1.027 2.529zm-2.581-12.514c.278.003.552.066.803.184a42.322 42.322 0 011.581 8.55l-.817 1.251-3.517-8.865a2.63 2.63 0 011.95-1.12z" fill="#B8C1C9"/><path d="M325.669 444.934c-5.703 0-6.585-.949-16.148-3.807 0 0-7.6-14.24-7.6-24.7h47.497c0 10.46-7.6 24.7-7.6 24.7-9.497 2.858-10.445 3.807-16.149 3.807z" fill="#6A737D"/><path d="M377.921 187.479c-12.223-4.163-62.881-16.032-104.491 0l20.048 11.21 68.334-.737 16.109-10.473z" fill="#FEDD6A"/><path d="M361.812 200.731l16.109-10.538c-12.223-4.15-62.881-16.032-104.491 0" fill="#FFD051"/><path d="M235.588 256.835c-5.681 0-10.287-5.815-10.287-12.988 0-7.174 4.606-12.989 10.287-12.989 5.681 0 10.287 5.815 10.287 12.989 0 7.173-4.606 12.988-10.287 12.988z" fill="#959DA5"/><path d="M325.669 299.859c-.316-.804-55.768 59.279-56.045 58.62-17.123-16.15-32.297-64.548-32.297-86.455v-50.347c0-11.408 36.104-34.25 36.104-34.25 18.993 0 43.163 2.318 51.712 2.318 8.548 0 33.772-2.318 52.778-2.318 0 0 36.091 22.789 36.091 34.25v50.347c0 21.854-15.2 70.305-32.297 86.455-.277.711-55.729-59.424-56.046-58.62z" fill="#FFDF5D"/><path d="M216.542 263.619c.896 1.449 11.275 5.349 16.649 3.07 5.374-2.279.158-9.682.158-9.682l-16.807 6.612z" fill="#959DA5"/><path d="M228.95 220.412c-4.952 0-11.433 3.82-14.489 14.029.252-.118.526-.181.804-.184 2.489 0 4.518 5.058 4.518 11.289s-2.029 11.276-4.518 11.276a2.895 2.895 0 01-2.239-1.488c.276 2.924.724 6.046 1.317 9.405l11.459-2.845 9.734.316s2.015-41.798-6.586-41.798z" fill="#FEDD6A"/><path d="M215.238 256.875c2.489 0 4.518-5.045 4.518-11.276s-2.029-11.289-4.518-11.289a1.945 1.945 0 00-.804.184c-1.567 5.203-2.265 12.053-1.435 20.892a2.89 2.89 0 002.239 1.489z" fill="#F9FBFC"/><path d="M212.867 242.99a56.637 56.637 0 00-.197 3.781l1.001-2.529-.804-1.252zm5.994 9.274c.618-2.185.92-4.447.895-6.718 0-4.479-1.04-8.352-2.555-10.17l-3.53 8.866 5.19 8.022z" fill="#F9FBFC"/><path d="M212.67 246.771a75.326 75.326 0 00.329 8.563 2.898 2.898 0 002.239 1.488c1.489 0 2.806-1.791 3.622-4.558l-5.189-8.022-1.001 2.529zm2.569-12.514a1.945 1.945 0 00-.804.184 41.47 41.47 0 00-1.567 8.55l.803 1.251 3.53-8.865a2.624 2.624 0 00-1.962-1.12z" fill="#B8C1C9"/><path d="M325.669 292.732l-56.453 48.451 1.317 19.575c5.269 13.054 16.201 36.674 16.201 36.674 8.548 11.394 29.452 17.125 38.949 17.125 9.496 0 30.4-5.704 38.948-17.125 0 0 10.959-23.62 16.201-36.674l1.317-19.575-56.453-48.451" fill="#FFA875"/><path d="M282.888 365.645c5.506-.356 10.669-2.635 16.056-3.623 5.822-1.04 12.75-.118 16.043 4.795 2.068 3.083 2.239 7.035 3.622 10.46a16.059 16.059 0 0019.415 8.826c2.319-.791 4.531-2.161 6.981-2.148 5.111 0 8.167 5.744 12.75 8.01a11.855 11.855 0 009.221.21l-2.424 5.27c-8.548 11.394-29.452 17.125-38.949 17.125-9.496 0-30.4-5.704-38.948-17.125 0 0-9.932-21.42-15.411-34.738 3.899 1.304 7.113 3.241 11.644 2.938z" fill="#FFA875"/><path d="M325.669 423.409c-7.811 0-16.609 0-23.459-4.742 0 0-15.634-10.46-16.609-22.803 6.849 7.601 40.068 11.395 40.068 11.395s33.232-3.794 40.068-11.395c-.974 12.343-16.609 22.803-16.609 22.803-6.849 4.742-15.635 4.742-23.459 4.742z" fill="#FFCFAF"/><path d="M325.327 220.504l-.079 87.627" stroke="#FFD051" stroke-width=".84" stroke-miterlimit="10"/><path d="M325.34 203.985l-.013 16.519" stroke="#FEDD6A" stroke-width=".84" stroke-miterlimit="10"/><path d="M325.669 424.977c-7.811 0-16.609 0-23.459-4.743 0 0-15.634-10.459-16.609-22.802 6.849 7.601 40.068 11.394 40.068 11.394s33.232-3.793 40.068-11.394c-.974 12.343-16.609 22.802-16.609 22.802-6.849 4.743-15.635 4.743-23.459 4.743z" fill="#FFA875"/><path d="M287.748 401.647c5.269 3.412 9.523 8.786 15.661 9.946 6.731 1.317 17.967 7.904 32.93 5.269a78.765 78.765 0 0011.67-3.372 10.381 10.381 0 018.482.513 55.408 55.408 0 01-7.402 6.231c-6.85 4.743-15.635 4.743-23.459 4.743s-16.609 0-23.459-4.743c0 0-12.908-8.641-16.003-19.496.566.29 1.093.593 1.58.909z" fill="#FFA875"/><path d="M325.669 308.131c-12.342 3.794-35.142 30.391-56.045 50.348 0 0-9.102-9.445-18.045-27.545 18.045-17.125 66.49-55.103 74.09-56.065 7.6.962 56.046 38.953 74.091 56.065-11.473 22.539-18.045 27.545-18.045 27.545-20.904-19.957-43.691-46.554-56.046-50.348z" fill="#fff"/><path d="M198.484 330.078s4.794-6.06 2.977-8.247a4.735 4.735 0 00-4.65-1.317m-20.798-8.852s-6.902-6.587-27.977-1.818c-23.999 5.374-41.161 28.533-37.895 51.059 3.267 22.526 14.002 39.137 47.418 47.225" stroke="#0366D6" stroke-width="1.69" stroke-linecap="square" stroke-linejoin="round"/><path d="M126.04 393.98s-22.734 18.535-23.814 33.249c-1.159 15.584 12.882 26.135 40.582 22.394" stroke="#0366D6" stroke-width="1.69" stroke-linecap="square" stroke-linejoin="round"/><path d="M142.584 382.994s-6.019-8.76-16.017-10.539a20.885 20.885 0 00-5.268-.197" stroke="#0366D6" stroke-width="1.69" stroke-linejoin="round"/><path d="M216.252 399.724l3.135 4.294-9.155 5.586 1.041 9.221.58 11.236-2.279-1.765-4.61-8.035.092-13.028 11.196-7.509z" fill="#6A737D"/><path d="M217.438 399.539l3.122 4.295-8.127 6.665-1.159 8.326 3.253 8.971-2.674 2.265-5.716-9.972 1.304-13.265 9.997-7.285z" fill="#959DA5"/><path d="M228.673 400.369l6.309 11.184-.013 9.564-2.437 8.694-2.555-.316-3.24-2.727 3.741-6.573.25-7.483-7.574-10.261 5.519-2.082z" fill="#6A737D"/><path d="M216.529 400.923l5.19 2.41-5.782 10.223 3.292 8.549 5.348 6.889-1.646 4.743-4.466-1.831-4.57-7.496-2.858-11.671 5.492-11.816z" fill="#B2BBC4"/><path d="M230.096 400.119l6.309 11.197v9.564l-3.872 8.931-4.36-3.28 3.728-6.573.895-7.588-6.612-10.038 3.912-2.213z" fill="#959DA5"/><path d="M220.217 400.606l5.189 2.424-5.782 10.209 1.831 9.182 3.635 8.22-2.16 3.096-5.335-9.643-2.871-11.671 5.493-11.817zm17.927 1.752l1.317-8.773h-4.821a33.256 33.256 0 01-1.001 10.262 33.23 33.23 0 004.505-1.489z" fill="#D1D5DA"/><path d="M205.755 400.462c4.438 1.251 9.799 3.187 13.738 3.846a21.188 21.188 0 01.474-10.433l-13.844.171-.368 6.416z" fill="#959DA5"/><path d="M233.626 403.9c.729-3.378.925-6.85.579-10.288l-14.646.79a18.746 18.746 0 00-.066 9.88c4.69.803 9.493.674 14.133-.382z" fill="#B2BBC4"/><path d="M220.704 401.779a36.085 36.085 0 0020.785-6.113c-.461-4.716-1.317-9.497-1.673-14.411a73.158 73.158 0 01-27.858 3.162 40 40 0 01-11.182 6.257 50.237 50.237 0 002.634 5.164c1.014 1.778 7.086 5.611 17.294 5.941z" fill="#6A737D"/><path d="M248.944 378.304c-1.962.685-6.836 2.635-9.22 3.281.461 3.807 1.054 10.301 1.555 14.266a7.215 7.215 0 002.318-2.358 53.309 53.309 0 005.347-15.189z" fill="#586069"/><path d="M197.575 380.847c-6.717-25.029 3.135-49.557 5.967-54.445 7.745-5.124 29.491-7.903 38.79.804 7.35 12.844 10.735 33.275 6.586 51.098-14.186 5.955-35.01 10.091-51.343 2.543z" fill="#FFF5B1"/><path d="M234.851 323.096a19.111 19.111 0 017.455 4.11c7.35 12.844 10.735 33.275 6.586 51.098-10.248 4.282-23.907 7.628-36.881 6.35 4.597-3.623 15.306-12.936 9.023-26.241-11.236-24.067-14.739-42.654 13.817-35.317z" fill="#FFDF5D"/><path d="M242.359 327.206c7.35 12.844 10.735 33.275 6.586 51.098a84.727 84.727 0 01-8.707 3.109c-1.343-14.991.303-38.729 2.121-54.207z" fill="#F9C513"/><path d="M200.895 390.674a48.916 48.916 0 0010.932-6.047 47.178 47.178 0 01-14.252-3.78 74.459 74.459 0 003.32 9.827z" fill="#959DA5"/><path d="M139.409 384.72s-6.928-4.229-14.713-2.885" stroke="#0366D6" stroke-width="1.69" stroke-linejoin="round"/><path d="M134.352 375.499a21.281 21.281 0 00-13.172-3.188m11.761 9.88a20.66 20.66 0 00-8.245-.356" stroke="#0366D6" stroke-width="1.69" stroke-linecap="round" stroke-linejoin="round"/><path d="M257.664 367.12s4.031 12.409-2.318 12.12c-6.348-.29-10.089-12.976-9.22-22.79.329-3.728 3.174-10.38 5.769-13.845m-5.716 14.385c0 8.365 15.898 18.719 11.222 21.591m-121.548 28.23s2.397 10.697 3.293 14.187m-6.335-16.848c-1.805 2.924-5.546 13.318-1.16 21.643m45.232 15.505s-1.041 14.978-15.121 17.916" stroke="#0366D6" stroke-width="1.69" stroke-linecap="square" stroke-linejoin="round"/><path d="M123.037 404.703c-4.202 3.689-10.959 8.51-17.123 8.168-6.164-.343-13.093-1.212-14.489-7.285-2.292-9.748.909-21.169-12.921-29.771-7.903-4.874-18.44-3.149-20.956-.106" stroke="#0366D6" stroke-width="1.69" stroke-miterlimit="10"/><path d="M79.412 395.798a8.689 8.689 0 008.14-6.073c1.014-3.491-1.778-8.167-4.847-10.103M69.81 405.889c.962 7.983 3.57 12.237 9.602 17.533a24.694 24.694 0 0023.051 4.966c1.514-.474 3.306-1.725 2.766-3.214" stroke="#0366D6" stroke-width="1.69" stroke-miterlimit="10"/><path d="M62.394 425.569c3.293 3.07-.974 9.525-5.966 7.904a6.456 6.456 0 01-4.637-4.966l5.677-5.651 4.926 2.713zm-2.121-16.571a6.995 6.995 0 00-9.22 4.307c-4.307-.658-7.284 3.649-2.977 6.587 4.308 2.937 6.955-2.635 5.625-3.952 1-2.635 2.99-3.952 5.268-3.649" fill="#77BAFC"/><path d="M60.735 404.031l-1.318 3.952a6.994 6.994 0 00-5.541.159 6.981 6.981 0 00-3.679 4.149c-4.307-.659-7.297 3.649-2.977 6.586 4.32 2.938 6.955-2.634 5.625-3.952 1-2.634 2.99-3.952 5.269-3.649l-2.319 11.606c-3.319-1.001-6.954 5.941-1.66 7.904 6.955 2.634 8.286-4.98 5.638-6.587l5.598-18.468" fill="#C8E2FD"/><path d="M64.462 408.365a19.59 19.59 0 01-4.768-1.449l.75-1.989 4.927.791-.909 2.647z" fill="#77BAFC"/><path d="M67.031 406.35l-4.636 19.219-2.648-1.317 5.625-18.561 1.66.659z" fill="#77BAFC"/><path d="M66.952 406.679c-.092.422-.75 3.148-.75 3.148l-1.74-1.488.58-1.818 1.91.158z" fill="#1B8CFA"/><path d="M83.271 355.673l3.662 4.281c1.58 4.585-2.49 13.582-10.116 10.433l-.83-1.817 6.296-4.809.988-8.088z" fill="#77BAFC"/><path d="M81.862 358.571l2.319 3.148-2.49 1.41-1.567-3.649 1.739-.909z" fill="#1B8CFA"/><path d="M79.123 359.572l1.66 3.636-1.08-.158-1.318-2.99.738-.488zm-4.966-5.914l1.199 2.147-2.727 5.849-3.61-1.001 3.478-7.088 1.66.093z" fill="#77BAFC"/><path d="M72.668 380.504l-7.297-.671 4.636-12.923c-8.285-1.989-2.977-13.582 2.635-15.242l1.488 1.99-4.307 6.797 9.444 3.478.988-8.458 2.16-.158c5.795 1.818 2.318 16.23-6.467 13.253l-3.28 11.934z" fill="#C8E2FD"/><path d="M69.02 379.925l3.398-11.764" stroke="#77BAFC" stroke-width=".88" stroke-miterlimit="10"/><path d="M76.805 370.387l-2.938 10.157-1.198-.04 3.306-11.935.83 1.818z" fill="#77BAFC"/><path d="M57.442 375.709c-7.363 9.076-12.724 21.788-.58 27.427 5.756 2.634 11.855 3.135 18.23 2.634 11.854-.935 11.077-24.041-1.225-25.213-3.662-.356-7.745-.079-10.537-2.253" stroke="#0366D6" stroke-width="1.69" stroke-miterlimit="10"/><path d="M54.656 427.712c-.35-1.08.135-2.204 1.083-2.511.948-.308 2 .318 2.35 1.398.35 1.08-.135 2.204-1.083 2.511-.948.308-2-.318-2.35-1.398zm-6.386-10.151c-.796-.407-1.067-1.472-.604-2.379.463-.908 1.485-1.313 2.282-.906.797.406 1.067 1.472.604 2.379-.463.907-1.484 1.313-2.281.906z" fill="#77BAFC"/><path d="M63.962 410.328l1.502 2.648-.343 1.001-1.567-2.74.408-.909zm-3.978 19.799l2.081 1.739a8.086 8.086 0 01-1.988 1.41l-1.41-2.148 1.317-1.001zm.342-.5l2.398 1.501.408-.592-2.648-1.318-.158.409zm-5.229-3.807l2.634 2.634c.234-.345.374-.744.409-1.159-.25-.25-2.398-2.121-2.398-2.121l-.645.646zm-6.454-11.356l2.147 1.805c-.237.329-.58.909-.58.909l-2.318-2.318.751-.396zm6.047 11.935l2.818 2.398-.474.289-2.424-2.278.08-.409zm-7.008-11.25l2.12 2.213-.42.251-1.897-1.989.197-.475z" fill="#1B8CFA"/><path d="M71.338 358.294l1.66 2.319-.369 1.041-2.779-1.199 1.488-2.161z" fill="#77BAFC"/><path d="M71.839 357.214l1.41 2.74.157-.579-1.238-2.569-.33.408z" fill="#1B8CFA"/><path d="M61.815 407.009l-4.347 15.781m3.122-12.541c-1.99-1.001-5.954-1.989-8.193 1.739" stroke="#77BAFC" stroke-width=".88" stroke-miterlimit="10"/><path d="M508.57 289.939l-49.393-53.153" stroke="#0366D6" stroke-width="1.69" stroke-linecap="square" stroke-linejoin="round"/><path d="M416.906 222.065c-5.618-.742-9.4-7.191-8.446-14.404.953-7.213 6.28-12.457 11.898-11.715 5.618.743 9.399 7.192 8.446 14.404-.953 7.213-6.28 12.458-11.898 11.715z" fill="#B8C1C9"/><path d="M436.509 229.211c-1.001 1.436-11.631 5.204-16.847 2.819-5.216-2.384.501-9.8.501-9.8l16.346 6.981z" fill="#B8C1C9"/><path d="M426.485 185.319c4.952 0 11.235 3.873 13.79 14.2a1.937 1.937 0 00-.803-.184c-2.49 0-4.768 5.111-5.098 11.408-.329 6.297 1.436 11.421 3.952 11.421a3.07 3.07 0 002.305-1.502 107.617 107.617 0 01-1.831 9.498l-11.301-2.872-9.76.316s.158-42.285 8.746-42.285z" fill="#CED5DA"/><path d="M438.3 222.164c-2.489 0-4.254-5.111-3.951-11.421.303-6.31 2.634-11.408 5.097-11.408.278.003.552.066.804.184 1.317 5.27 1.633 12.199.329 21.077a3.063 3.063 0 01-2.279 1.568z" fill="#F9FBFC"/><path d="M441.396 208.135v3.82l-.87-2.635.87-1.185zm-6.481 9.418a24.2 24.2 0 01-.54-6.81c.237-4.532 1.475-8.444 3.082-10.288l3.069 8.997-5.611 8.101z" fill="#F9FBFC"/><path d="M441.396 211.994a75.125 75.125 0 01-.791 8.668 3.061 3.061 0 01-2.305 1.502c-1.488 0-2.713-1.818-3.385-4.611l5.611-8.101.87 2.542zm-1.924-12.659c.278.003.552.066.804.184a41.599 41.599 0 011.12 8.655l-.87 1.252-3.069-8.971a2.806 2.806 0 012.015-1.12z" fill="#B8C1C9"/><path d="M463.458 264.476c.21-6.35-7.376-16.216-19.336-15.94m158.994 184.937c-18.15-9.089-31.335 2.213-31.335 2.213" stroke="#0366D6" stroke-width="1.69" stroke-linecap="square" stroke-linejoin="round"/><path d="M523.587 432.854s-.132 21.683.632 25.622c-2.635 6.705-13.567 4.097-11.973-1.66 0-5.506 2.529-25.029 2.529-25.029l8.812 1.067z" fill="#B2BBC4"/><path d="M505.304 420.774s.079 16.822.079 19.694c-1.12 3.57-7.613 2.727-7.297-.698-.132-3.333 1.435-19.048 1.435-19.048l5.783.052z" fill="#959DA5"/><path d="M482.083 428.678s1.172 21.077 1.172 25.332c-1.383 4.373-11.13 3.003-11.459-1.805.276-4.083 2.041-24.106 2.133-24.871l8.154 1.344z" fill="#B2BBC4"/><path d="M523.586 432.854c-.461 6.582-.391 13.19.211 19.76-8.285-9.748-9.958-4.69-11.328 0 .804-8.326 2.305-20.866 2.305-20.866l8.812 1.106zm-41.504-4.176s.672 12.765 1.027 20.366c-4.491-6.165-8.206-6.495-10.682-4.624.646-7.496 1.436-16.572 1.502-17.125l8.153 1.383z" fill="#959DA5"/><path d="M542.672 421.446s.711 16.243.711 19.114c-1.238 4.519-10.537 3.873-9.352-.935.369-3.241 2.858-18.284 2.858-18.284l5.783.105z" fill="#B2BBC4"/><path d="M527.736 426.742l22.813-21.09-40.384-.435-46.365 10.025 2.49 12.093 60.629 9.945.817-10.538z" fill="#B2BBC4"/><path d="M542.672 421.446s.25 4.163.355 8.497a47.28 47.28 0 00-8.996 9.682c.369-3.241 2.858-18.284 2.858-18.284l5.783.105z" fill="#959DA5"/><path d="M550.549 405.652l-1.093 10.327-22.537 21.301.817-10.538 22.813-21.09z" fill="#959DA5"/><path d="M550.549 405.652l-40.384-.435-46.365 10.025 63.936 11.5 22.813-21.09z" fill="#E1E4E8"/><path d="M579.249 451.151a27.292 27.292 0 0113.989-3.108 23.055 23.055 0 0114.251 5.598" stroke="#0366D6" stroke-width="1.69" stroke-linecap="square" stroke-linejoin="round"/><path d="M493.805 405.731c-4.07-5.019-13.026-7.483-15.806-6.943-2.779.541-.829 3.847 2.108 6.297 0 0 48.735 10.157 58.363.264 9.629-9.893-13.316-37.991-20.126-51.468-2.555-5.058 7.06-27.347 14.673-30.456-.421 3.201 3.609 30.153 12.632 49.689s27.99 51.494 28.635 60.28c-3.951.329-14.146 17.415 14.331 20.919 28.477 3.504 35.115-10.38 35.115-10.38-1.883-9.788-26.488-36.529-38.197-51.942-10.406-13.713-34.602-51.309-43.006-66.959" stroke="#0366D6" stroke-width="1.69" stroke-linecap="square" stroke-linejoin="round"/><path d="M414.038 241.067c-10.538-4.149-37.566-21.208-54.623-41.126-6.125-7.166 56.111-52.455 62.868-54.392a80.528 80.528 0 0127.924 23.554c-7.31 19.377-27.779 69.014-36.261 72.333" fill="#FEEB93"/><path d="M338.657 160.343s15.569-6.587 16.122 7.772c.553 14.358 11.657 33.156 25.237 42.733 35.418 25.029 54.491 4.782 73.695 16.098 15.108 8.905 3.451 31.747 3.451 31.747s-36.696.803-77.396-29.416c-22.945-17.032-50.843-57.816-50.843-57.816l9.734-11.118z" fill="#F9C513"/><path d="M340.619 167.957s14.16 32.155 41.912 53.548c27.753 21.393 69.099 32.037 69.099 32.037" stroke="#E3A92E" stroke-width=".94" stroke-miterlimit="10"/><path d="M452.407 164.216a1237.107 1237.107 0 01-6.27 13.779c12.25 1.528 18.032-2.345 18.032-2.345l-11.762-11.434zM403.58 131.48a81.31 81.31 0 00-12.342 2.069c.579 6.27 3.411 15.9 13.685 25.226a1424.936 1424.936 0 0121.839-17.915l-23.182-9.38z" fill="#FFF5B1"/><path d="M431.609 137s-81.875 64.746-84.035 79.038c-2.16 14.293-21.298-48.397-21.298-48.397s66.24-53.694 105.333-30.641zm23.577 20.8s-41.78 95.676-55.084 101.433c-13.303 5.757 52.213 8.286 52.213 8.286s35.076-77.721 2.871-109.692" fill="#FFDF5D"/><path d="M453.711 226.946c-9.418-5.546-18.796-3.531-30.097-2.964a408.036 408.036 0 01-9.576 17.125 163.623 163.623 0 01-32.179-18.693 109.304 109.304 0 01-22.391-22.394 152.917 152.917 0 015.268-5.269c-5.756-8.576-9.562-18.271-9.865-26.531-.553-14.385-16.122-7.772-16.122-7.772l-9.734 11.118s27.897 40.837 50.842 57.817c40.701 30.219 77.397 29.415 77.397 29.415s11.565-23-3.543-31.852z" fill="#F2B549"/><path d="M366.502 171.632c-8.667 8.233 17.294 35.291 27.766 43.366 10.471 8.075 36.669 24.607 46.996 8.786 7.139-10.907-25.395-25.345-31.348-31.483-10.432-10.763-29.584-33.789-43.467-20.669" fill="#F2B549"/><path d="M369.387 171.25c-8.048 7.548 16.938 33.315 26.962 41.047 10.024 7.733 35.05 23.633 44.547 9.011 6.585-10.091-24.421-24.147-30.15-30.009-10.037-10.235-28.53-32.116-41.359-20.062" fill="#005CC5"/><path d="M391.448 126.567s-5.466 23.711 26.344 41.271c31.809 17.56 46.351 7.812 46.351 7.812l-34.576-33.644-38.119-15.439z" fill="#FDFAD2"/><path d="M439.38 223.231c-6.243-4.163-10.537-6.336-12.856-5.967-2.318.368-3.846 6.375-7.204 4.966-5.493-2.306 6.585-10.934 1.923-13.871-4.084-2.543-7.284 7.021-10.92 3.951-3.951-3.451 6.652-13.173 2.635-15.807-3.688-2.437-6.455 3.53-9.668 2.951-2.016-.356-8.865-6.798-12.013-8.879-3.148-2.081-6.454 4.545-8.983 2.411-3.675-3.122 8.865-12.225 5.348-15.808-3.517-3.583-7.903 3.148-9.892 2.832-1.989-.316-6.705-5.809-8.693-7.904" stroke="#F1F8FF" stroke-width=".84" stroke-miterlimit="10"/><path d="M446.084 177.981c.896-1.778 3.28-7.324 3.951-9.221a75.598 75.598 0 015.691 9.314c-3.191.49-6.441.442-9.616-.145m-53.766-38.492c9.088-1.186 22.642 1.792 31.427 6.876-5.031 2.055-15.516 8.668-18.782 12.449-5.335-3.32-12.619-16.242-12.645-19.325z" fill="#FFF5B1"/><path d="M484.347 398.644s7.429-15.07 30.598-11.659" stroke="#0366D6" stroke-width="1.69" stroke-linecap="square" stroke-linejoin="round"/><path d="M524.1 317.958c-12.171 4.493-28.109 15.624-38.712 35.805-8.074 15.386 11.539 34.513 11.539 34.513" stroke="#0366D6" stroke-width="1.69" stroke-linejoin="round"/><path d="M527.893 318.96s-59.272-15.031-90.45-38.532c-31.177-23.5-32.046-37.938-29.596-43.985-2.411-4.86-8.47-12.54.197-13.7 8.667-1.159 102.739 89.261 122.997 90.21" stroke="#0366D6" stroke-width="1.69" stroke-linejoin="round"/><path d="M509.677 301.084a16.445 16.445 0 00-4.782-9.709c-2.133-1.923-8.772-5.164-11.09-3.306m-9.246-6.574c-.172-3.293-5.625-13.107-14.766-11.592m151.593-6.442s9.892-5.453 12.223-10.275c-4.518-13.41-18.835-17.612-18.835-17.612" stroke="#0366D6" stroke-width="1.69" stroke-linecap="square" stroke-linejoin="round"/><path d="M613.799 235.232c-4.044-7.601-16.742-27.282-46.865-31.972-36.881-5.743-64.989 25.872-65.595 53.918-.672 31.773 16.768 47.001 31.955 57.961 7.244 5.27 25.223 15.413 45.429 10.987 15.015-3.294 12.855-16.954 12.855-16.954s13.87-13.937 20.403-21.459c18.045-20.906 1.818-52.481 1.818-52.481zm5.822 14.714s7.125-.435 9.602 3.016" stroke="#0366D6" stroke-width="1.69" stroke-linecap="square" stroke-linejoin="round"/><path d="M573.22 313.814c-2.589-.338-4.565-1.564-4.411-2.74.153-1.176 2.376-1.856 4.966-1.519 2.59.338 4.565 1.564 4.412 2.74-.154 1.176-2.377 1.856-4.967 1.519zm39.683-29.407s-9.641 4.584-14.976 1.936c-5.334-2.648-23.327-31.062-41.122-27.374-8.904 1.858-15.937 7.641-17.373 15.321-1.436 7.68.527 14.042-5.177 17.125-2.99 1.58-13.342.606-14.225 11.17m54.148-61.979c1.686-3.662-7.376-23.593-24.328-24.357-13.514-.606-17.94 21.077-18.44 29.679" stroke="#0366D6" stroke-width="1.69" stroke-linecap="square" stroke-linejoin="round"/><path d="M568.937 237.576s-4.69-8.193-12.632-7.337c-9.484 1.027-18.256 9.3-18.256 9.3" stroke="#0366D6" stroke-width="1.69" stroke-linecap="square" stroke-linejoin="round"/><path d="M546.624 322.872c15.99 23.382 47.167 61.163 55.531 69.817 8.364 8.655 22.879 21.881 23.709 28.599" stroke="#0366D6" stroke-width="1.69" stroke-linecap="round" stroke-linejoin="round"/><path d="M623.73 443.933s35.103 4.162 34.128-1.884c-.975-6.046-9.852-2.727-9.852-2.727a54.598 54.598 0 01-8.786 5.006" stroke="#0366D6" stroke-width="1.69" stroke-linecap="square" stroke-linejoin="round"/><path d="M621.03 419.549c8.983 2.819 22.3 11.448 26.976 19.76m-127.027-154.52c-6.929-10.815-18.309-17.613-24.671-18.443m20.257 24.502c-3.951-3.741-12.117-7.245-19.059-5.809" stroke="#0366D6" stroke-width="1.69" stroke-linejoin="round"/><path d="M506.938 270.825a27.688 27.688 0 00-10.63-4.426m8.061 18.627a18.412 18.412 0 00-6.862 0m95.072 27.966c5.071-.843 10.92-.566 14.739 1.133m-18.387 6.31c4.939-.092 10.366 3.017 12.5 4.993" stroke="#0366D6" stroke-width="1.69" stroke-linecap="round" stroke-linejoin="round"/><path d="M104.491 439.388c-8.614-.988-10.932 1.317-13.58 4.966-2.647 3.649-2.99 9.616-4.636 10.604-1.647.988-6.968 2.635-6.586 4.651.382 2.015 9.602 2.977 12.921 1.989 3.952.988 9.932 2.634 9.932 2.634l-1.054-.369c13.672 4.571 63.896 7.456 62.631-12.092-1.699-25.938-31.151-25.899-31.151-25.899m-1.739-24.436s14.752 17.428 21.154 23.382c9.628 8.971 29.386 21.881 48.169 21.631 33.693-.448 40.739-15.558 45.929-19.892 12.118 1.449 10.893-.882 10.893-.882 3.293-2.793-5.795-15.597-25.882-11.698a184.79 184.79 0 00-25.751 5.928m-16.82-23.198a3.592 3.592 0 001.914-1.966c.174-.437.261-.904.255-1.375a3.595 3.595 0 00-2.257-3.282 3.602 3.602 0 00-1.376-.255c-.47.007-.935.106-1.367.292" stroke="#0366D6" stroke-width="1.69" stroke-linecap="square" stroke-linejoin="round"/><path d="M72.932 405.889a17.426 17.426 0 003.293 7.337c3.556 4.795 8.588 7.114 10.458 5.73 1.87-1.383.079-5.954-3.478-10.749a33.511 33.511 0 00-3.793-4.321m32.086 4.756a23.396 23.396 0 00-8.548-.132c-5.915.777-10.63 2.701-10.327 5.019.303 2.319 5.4 4.308 11.314 3.517.672-.092 1.318-.21 1.963-.355" stroke="#0366D6" stroke-width="1.69" stroke-miterlimit="10"/><path d="M150.553 423.027a71.929 71.929 0 00-14.305-.988m56.73-97.086a40.032 40.032 0 018.851 27.927c-1.093 17.125-17.61 36.002-17.61 36.002s7.007 6.442.514 14.109c-6.494 7.666-15.082 7.666-26.001 5.374-8.272-1.725-12.869-12.382-12.513-15.663.355-3.28 2.976-8.957 14.238-12.593-3.161-30.864 25.369-38.623 31.151-34.329 6.402 4.742 5.269 11.619 8.944 13.423" stroke="#0366D6" stroke-width="1.69" stroke-linecap="square" stroke-linejoin="round"/></svg>