<svg width="85" height="49" fill="none" xmlns="http://www.w3.org/2000/svg"><path d="M0 32.752l1.566 6.606 3.312 1.906-2.528-6.215L0 32.752zm20.458 5.983l-7.175-2.707-.98-5.378 10.22 3.865-2.065 4.22zm57.387-27.387l.302 4.149c-3.72 1.549-10.148 2.421-12.09 1.638l-1.78-5.342 10.683-.909 2.885.463zm6.142-1.087l.32 6.233-2.368 1.905-1.495-5.306 3.543-2.832z" fill="#1B8CFA"/><path d="M77.862 11.348l.285 4.149 3.792 2.902-1.495-5.306-2.582-1.745zm-13.567.516l1.763 5.27L31.854 37.72l-1.264-5.591 33.705-20.265zM51.582 3.085l1.14 4.558 4.326 1.318 1.674-3.437-2.689-2.51-4.451.07z" fill="#77BAFC"/><path d="M56.246 5.863l.445 5.182 3.597-.481-.267-3.9-3.775-.801z" fill="#006AD2"/><path d="M31.194 32.983l1.3 7.497C31.89 47.603 21.1 51.164 15.1 47.603l-1.514-7.39m-1.283-9.563l.98 5.378-8.708 5.36-2.154-6.268 9.882-4.47z" fill="#77BAFC"/><path d="M77.845 11.348c-3.348 2.279-13.55.516-13.55.516-.712.605-33.706 20.264-33.706 20.264 3.455 4.256-5.341 12.768-17.003 8.05l8.902-5.663-9.793-2.618L2.386 35.12c-7.122-2.689 3.9-13.89 18.802-8.298l37.73-17.647a3.223 3.223 0 01-2.422-4.398l-4.95-1.692 3.33-2.546 5.235 1.923A15.365 15.365 0 0173.518.859c3.561 1.603 6.748 3.348 6.428 6.785l4.024 2.617-3.561 2.832-2.564-1.745z" fill="#C8E2FD"/><path d="M71.024 4.92a10.682 10.682 0 00-6.089-.375c-1.015.268-2.422 2.44.48 3.562 2.903 1.122 6.072 1.264 7.123-.196 1.05-1.46-.48-2.582-1.514-2.992zm1.781 7.817l1.318 3.953c-.678.16-1.37.255-2.065.285l-1.104-4.132 1.852-.106zm-3.151.035l1.175 4.363-.98-.054-1.139-4.38.944.071z" fill="#77BAFC"/><path d="M67.357 4.438l1.407 4.274-1.193-.124-1.175-4.025.961-.125zm1.638.072l1.104 4.273-.535.071-1.37-4.38M25.461 40.747a6.57 6.57 0 01-2.564.73l1.656 7.123a13.39 13.39 0 003.793-1.78l-1.62-6.856-1.265.783zm-3.241.819l.695 7.284-.783.106-1.087-7.318 1.176-.072zM53.415 18.4l-2.19 7.87-4.202 2.422 1.033-7.016 5.359-3.277zm-7.531 4.647l-1.318 7.07-.73.391.748-6.784 1.3-.677z" fill="#1B8CFA"/><path d="M61.019 10.6L26.797 28.87" stroke="#77BAFC" stroke-width=".88" stroke-miterlimit="10"/></svg>