<svg width="249" height="505" fill="none" xmlns="http://www.w3.org/2000/svg"><rect x="96.488" y="9.284" width="22.235" height="22.235" rx="3" transform="rotate(114.679 96.488 9.284)" fill="#0366D6"/><circle r="10.312" transform="scale(-1 1) rotate(75 -355.021 79.205)" fill="#005CC5"/><circle cx="7.671" cy="160.671" r="6.263" transform="rotate(105 7.67 160.671)" fill="#005CC5"/><path opacity=".8" fill-rule="evenodd" clip-rule="evenodd" d="M145.265 259.454a6.35 6.35 0 00-3.621-8.253 6.35 6.35 0 00-7.276 9.885l-.348.89c-.661 1.521-1.817 2.643-3.468 3.367-1.65.725-3.259.815-4.826.272-2.487-.901-4.578-1.239-6.458-.98l5.513-14.13a6.349 6.349 0 001.339-12.2c-3.295-1.286-6.938.337-8.223 3.632a6.375 6.375 0 00.976 6.264l-7.597 19.473c-2.156.355-4.114 1.78-4.96 3.947a6.35 6.35 0 003.621 8.253 6.35 6.35 0 008.253-3.62 6.35 6.35 0 00.002-4.651c.336-.074 1.899-.661 2.295-.712.87-.037 1.859.144 2.987.584 3.175 1.067 6.31.922 9.611-.526 3.301-1.448 5.855-4.488 7.208-7.517l-.059-.023c2.227-.363 4.186-1.788 5.031-3.955zm-20.042-18.763c1.959.764 2.926 3.022 2.173 4.952-.753 1.929-3.023 2.925-4.952 2.172-1.93-.753-2.925-3.022-2.172-4.952.752-1.929 3.022-2.925 4.951-2.172zm-14.371 36.838c-1.959-.764-2.925-3.022-2.173-4.952.753-1.929 3.023-2.925 4.952-2.172 1.93.753 2.925 3.022 2.173 4.952-.753 1.929-3.023 2.925-4.952 2.172zm27.075-16.799c-1.959-.764-2.925-3.022-2.173-4.952.753-1.929 3.023-2.925 4.952-2.172 1.93.753 2.925 3.022 2.173 4.952-.753 1.929-3.023 2.925-4.952 2.172z" fill="#005CC5"/><path opacity=".7" fill-rule="evenodd" clip-rule="evenodd" d="M209.199 97.572c-2.946-5.481-2.024-12.456 2.744-16.889 4.767-4.433 11.791-4.846 17.043-1.51l8.049-7.484 4.766 5.127-8.048 7.483c2.946 5.482 2.023 12.457-2.744 16.89-4.768 4.432-11.791 4.846-17.044 1.51l-8.048 7.483-4.767-5.126 8.049-7.484zm17.52-.997a7.678 7.678 0 00.396-10.882 7.679 7.679 0 00-10.883-.396 7.678 7.678 0 00-.395 10.882 7.678 7.678 0 0010.882.396z" fill="#005CC5"/><path opacity=".8" fill-rule="evenodd" clip-rule="evenodd" d="M60.127 495.872l-9.022-5.209-5.208 9.021-3.608-2.083 5.208-9.021-9.021-5.208 2.083-3.609 9.021 5.209 5.209-9.021 3.608 2.083-5.208 9.021 9.02 5.208-2.083 3.609z" fill="#0366D6"/></svg>