<svg width="266" height="570" fill="none" xmlns="http://www.w3.org/2000/svg"><rect opacity=".8" x="259.477" y="373" width="22.235" height="22.235" rx="3" transform="rotate(75 259.477 373)" fill="#005CC5"/><circle opacity=".8" cx="81.958" cy="466.959" r="17.929" transform="rotate(105 81.958 466.959)" fill="#0366D6"/><path fill-rule="evenodd" clip-rule="evenodd" d="M75.864 215.21a4.524 4.524 0 002.13 8.484l1.415 2.539-1.755 6.179-6.179-1.756-1.415-2.539a4.525 4.525 0 00-6.097-6.273 4.53 4.53 0 00-2.197 5.061 4.524 4.524 0 004.327 3.424l1.968 3.531 9.268 2.633 1.968 3.531a4.525 4.525 0 006.097 6.273 4.53 4.53 0 002.197-5.061 4.524 4.524 0 00-4.327-3.424l-1.968-3.53 2.633-9.268-1.968-3.531a4.527 4.527 0 00-3.232-6.805 4.53 4.53 0 00-2.865.532zm-8.363 12.982c-1.309.729-2.988.236-3.707-1.054-.719-1.289-.236-2.988 1.053-3.707 1.29-.719 2.989-.236 3.708 1.053.718 1.29.235 2.989-1.054 3.708zM84.51 244.71c-1.309.73-2.988.236-3.707-1.053-.719-1.29-.236-2.989 1.054-3.707 1.289-.719 2.988-.236 3.707 1.053.718 1.289.236 2.988-1.054 3.707zm-5.106-23.153c-1.31.73-2.989.236-3.708-1.053-.718-1.29-.235-2.989 1.054-3.707 1.29-.719 2.988-.236 3.707 1.053.719 1.289.236 2.988-1.053 3.707z" fill="#005CC5"/><circle opacity=".8" cx="7.67" cy="7.671" r="6.263" transform="rotate(105 7.67 7.671)" fill="#005CC5"/><path fill-rule="evenodd" clip-rule="evenodd" d="M192.54 86.19l-8.519-13.27c-1.121-1.608-2.712-2.645-4.78-3.078-2.069-.433-3.939-.187-5.628.808l-2.113 1.356-2.713-4.226-2.27 10.409 10.409 2.27-2.713-4.226 2.113-1.357c.597-.324 1.163-.419 1.878-.28.715.137 1.204.48 1.591 1.037l8.519 13.27a5.006 5.006 0 004.034 7.287 5.01 5.01 0 003.125-.783 5.001 5.001 0 002.076-5.736 5.001 5.001 0 00-5.009-3.481zm1.848 7.526c-1.395.896-3.282.466-4.164-.908-.881-1.373-.465-3.281.908-4.163 1.374-.882 3.282-.466 4.164.908.881 1.373.465 3.282-.908 4.163zM166.517 78.19a5.005 5.005 0 00-6.939-1.513 5.001 5.001 0 00-2.076 5.736 5.001 5.001 0 005.009 3.48l8.898 13.862a5 5 0 00-.48 3.186 5.005 5.005 0 007.64 3.318 5.001 5.001 0 002.076-5.735 5.006 5.006 0 00-5.009-3.481l-8.899-13.862a4.99 4.99 0 00-.22-4.991zm11.874 22.216c.896 1.394.466 3.281-.908 4.163-1.373.882-3.281.466-4.163-.908-.882-1.373-.466-3.282.908-4.163 1.373-.882 3.282-.466 4.163.908zm-14.472-16.967c-1.395.895-3.282.465-4.164-.908-.881-1.374-.465-3.282.908-4.164 1.374-.881 3.282-.465 4.164.908.881 1.374.465 3.282-.908 4.164zm59.08 461.249h-11.2l8.4-19.688-25.2 25.312h11.2l-8.4 19.688 25.2-25.312z" fill="#005CC5"/></svg>