<svg id="proj_mgmt" data-name="proj mgmt" xmlns="http://www.w3.org/2000/svg" viewBox="0 0 1430 800"><defs><style>.cls-1,.cls-2,.cls-6{fill:none;stroke-linecap:round;stroke-width:3px}.cls-1,.cls-2{stroke:#e5e6e8;stroke-miterlimit:10}.cls-2{stroke:#2088ff}.cls-5{fill:#56b958}.cls-6{stroke:#56b958;stroke-linejoin:round}</style></defs><path class="cls-1" d="M201.21 368.26h-44.73M85.65 188.13v31.37a18.78 18.78 0 0 0 18.78 18.78h55.64a18.78 18.78 0 0 1 18.78 18.78v91.11M105.59 218a18.78 18.78 0 0 0 18.78-18.78M201.21 393.25V359a3 3 0 0 0-3-3h-38.86a3 3 0 0 0-3 3v71.22a3 3 0 0 0 3 3h38.86a3 3 0 0 0 3-3v-3.63"/><rect class="cls-2" x="164.92" y="378.51" width="27.72" height="10.25" rx="1" ry="1" transform="rotate(-180 178.785 383.635)"/><rect x="182.99" y="401.32" width="46.47" height="17.19" rx="2" ry="2" transform="rotate(-180 206.225 409.915)" stroke="#ffd23d" stroke-miterlimit="10" fill="none" stroke-linecap="round" stroke-width="3"/><rect x="1310.08" y="511.12" width="46.47" height="17.19" rx="2" ry="2" transform="rotate(-180 1333.31 519.715)" stroke="#7f65ab" stroke-miterlimit="10" fill="none" stroke-linecap="round" stroke-width="3"/><rect class="cls-1" x="42.39" y="164.1" width="86.52" height="17.19" rx="2" ry="2" transform="rotate(-180 85.65 172.695)"/><path class="cls-1" d="M256.07 388.26h-44.73M211.21 426.58v23.63a3 3 0 0 0 3 3h38.86a3 3 0 0 0 3-3V379a3 3 0 0 0-3-3h-38.86a3 3 0 0 0-3 3v14.26M146.48 400.8h-44.74"/><rect class="cls-1" x="101.62" y="388.53" width="44.86" height="77.22" rx="3" ry="3" transform="rotate(-180 124.05 427.135)"/><path class="cls-1" d="M0 544l9.88-.19A18.78 18.78 0 0 0 28.61 525l-.08-71.7a18.78 18.78 0 0 1 18.73-18.82h44.27M78.76 414.83H42.15M176.82 218h-11.97M153.03 218H98.34M130.35 198.63H100.3M273.41 648.12h-17.38M216.03 648.12h-17.38M182.23 648.12h-58.12M72.35 198.63H54.57M219.23 667.5h-34.98M287.94 667.5h-40.5M25.71 563.36H0M189.71 451.47H170.4M233.64 368.1v-29a18.78 18.78 0 0 1 18.78-18.78h85.06a18.78 18.78 0 0 0 18.78-18.78l-.09-3.54M1085.44 204.2l.19 61.44a18.78 18.78 0 0 0 18.82 18.73l61.7-.08A18.78 18.78 0 0 1 1185 303v4.27M1233.34 365.33h-25.55M1430 257.93h-75.21M1336.12 258.56h-17.02M1050.88 179.65h-12.47M1374.54 237.45h-38.42M1175.51 178.51h-53.87M1085.44 0v112.3M1206.09 178.51h-16.19M1149.46 159.14h-27.82M1371.87 120.38h-20.17M1374.54 101.01h-49.48M1395.49 81.63h-32.21M317.37 275.5h-45.84M326.28 256.13h-17.82M419.41 237.38h-40.13M399.77 218h-28.8M1430 563.1h-37.16M1417.22 543.48h-18.02M1350.02 701.18h-43.63M1311.25 681.57h-19.5M1263.34 681.57h-20.6M1264.87 385.64h-50.86M1156.67 385.64h-41.4M1185 365l.19-128.41a18.78 18.78 0 0 1 18.81-18.76l44.08.08M233.89 603.13a18.78 18.78 0 0 1 18.82-18.73l40.23.08M1107.87 130.97h-44.73"/><rect class="cls-1" x="1063.01" y="118.69" width="44.86" height="77.22" rx="3" ry="3" transform="rotate(-180 1085.44 157.305)"/><path class="cls-1" d="M1328.2 477.53h-44.73M1328.2 504.12v-35.87a3 3 0 0 0-3-3h-38.86a3 3 0 0 0-3 3v71.22a3 3 0 0 0 3 3h38.86a3 3 0 0 0 3-3v-4.16"/><rect class="cls-1" x="1291.91" y="487.77" width="27.72" height="10.25" rx="1" ry="1" transform="rotate(-180 1305.77 492.9)"/><path class="cls-1" d="M1383.06 498.15h-44.73M1338.2 535.31v24.79a3 3 0 0 0 3 3h38.86a3 3 0 0 0 3-3v-71.22a3 3 0 0 0-3-3h-38.86a3 3 0 0 0-3 3v15.24M1274.24 504.25h-70.48a18.78 18.78 0 0 1-18.76-18.78V408M85.65 156.64V56.16a18.78 18.78 0 0 0-18.77-18.77H0M1360.69 569.64v13.08a18.78 18.78 0 0 1-18.78 18.78h-45.64a18.78 18.78 0 0 0-18.78 18.78v65.8M233.64 461.29V667.5a18.78 18.78 0 0 1-18.78 18.78H100.23M115.33 172.69H77.25"/><path class="cls-5" d="M102.67 174.19H69.42a1.5 1.5 0 0 1 0-3h33.25v3z"/><path class="cls-6" d="M54.09 173.26l2.14 2.09 5.23-5.31"/><rect class="cls-1" x="1259.83" y="209.24" width="86.52" height="17.19" rx="2" ry="2" transform="rotate(-180 1303.09 217.83)"/><path class="cls-1" d="M1332.76 217.83h-38.07"/><path class="cls-5" d="M1320.1 219.33h-33.25a1.5 1.5 0 0 1 0-3h33.25v3z"/><path class="cls-6" d="M1271.53 218.4l2.14 2.09 5.22-5.32"/><path class="cls-1" d="M1354.7 217.83h12a18.78 18.78 0 0 0 18.78-18.78v-79.27a18.78 18.78 0 0 1 18.75-18.78H1430M1359.17 238.86a18.78 18.78 0 0 0 18.78 18.78"/><circle class="cls-1" cx="1237.74" cy="681.57" r="5.01"/><circle class="cls-1" cx="322.38" cy="275.5" r="5.01"/><circle class="cls-1" cx="37.14" cy="414.83" r="5.01"/><rect class="cls-1" x="342.31" y="261.64" width="27.72" height="27.72" rx="3" ry="3" transform="rotate(-180 356.175 275.505)"/><rect class="cls-2" x="63.67" y="672.41" width="27.72" height="27.72" rx="3" ry="3" transform="rotate(-180 77.53 686.275)"/><rect class="cls-1" x="301" y="570.53" width="27.72" height="27.72" rx="3" ry="3" transform="rotate(-180 314.865 584.395)"/><rect class="cls-1" x="1263.64" y="692.41" width="27.72" height="27.72" rx="3" ry="3" transform="rotate(-180 1277.5 706.275)"/><rect class="cls-1" x="1171.12" y="372.7" width="27.72" height="27.72" rx="3" ry="3" transform="rotate(-180 1184.975 386.565)"/><path class="cls-1" d="M356.26 253.13V127.25A18.78 18.78 0 0 1 375 108.48h81.65a18.78 18.78 0 0 0 18.81-18.78L476 .64"/></svg>