<svg fill="none" height="22" viewBox="0 0 22 22" width="22" xmlns="http://www.w3.org/2000/svg"><path clip-rule="evenodd" d="m11 22c6.0752 0 11-4.9248 11-11 0-6.07514-4.9248-11-11-11-6.07514 0-11 4.92486-11 11 0 6.0752 4.92486 11 11 11zm5.1979-13.36455c.4028-.40272.4028-1.05568 0-1.4584-.4027-.40273-1.0556-.40273-1.4583 0l-5.45835 5.45825-2.0208-2.0208c-.40272-.4027-1.05568-.4027-1.4584 0-.40273.4028-.40273 1.0557 0 1.4585l2.75 2.7499c.40272.4028 1.05568.4028 1.45845 0z" fill="#22863a" fill-rule="evenodd"/></svg>