<svg fill="none" height="32" width="30" xmlns="http://www.w3.org/2000/svg"><path d="m27.665 12.946-21.837-12.482a3.523 3.523 0 0 0 -3.511.011 3.528 3.528 0 0 0 -1.753 3.043v24.964a3.52 3.52 0 0 0 5.263 3.054l21.837-12.482a3.526 3.526 0 0 0 1.774-3.054c0-1.26-.68-2.43-1.772-3.054zm-9.463-2.952-2.998 4.177-7.172-9.99zm-14.258 19.86a1.373 1.373 0 0 1 -.557-.174 1.389 1.389 0 0 1 -.69-1.198v-24.964c0-.492.265-.95.69-1.198.17-.099.36-.157.555-.177l9.949 13.857-9.947 13.855zm4.088-2.035 7.172-9.99 2.998 4.176zm18.574-10.617-6.542 3.739-3.547-4.941 3.547-4.941 6.542 3.74c.43.245.697.706.697 1.2 0 .496-.267.957-.697 1.203z" fill="#041027"/></svg>