<svg width="53" height="16" fill="none" xmlns="http://www.w3.org/2000/svg"><path d="M11.85.422h3.529v15.112H11.85v-1.576C10.297 15.756 8.41 16 7.323 16 2.663 16 0 12.117 0 7.967 0 3.04 3.373.022 7.368.022c1.11 0 3.062.289 4.482 2.153V.422zM3.595 8.033c0 2.619 1.642 4.816 4.194 4.816 2.22 0 4.283-1.62 4.283-4.771 0-3.307-2.041-4.882-4.283-4.882-2.552 0-4.194 2.152-4.194 4.837zM19.551.422h3.528v1.353c.4-.466.976-.976 1.465-1.265.688-.399 1.353-.51 2.152-.51.866 0 1.798.133 2.774.71l-1.442 3.196c-.8-.51-1.443-.533-1.798-.533-.754 0-1.509.111-2.197.821-.976 1.043-.976 2.486-.976 3.484v7.834h-3.529V.422h.023zm12.183 0h3.528V1.82C36.438.377 37.836.022 38.99.022c1.576 0 3.063.755 3.906 2.22C44.161.443 46.047.021 47.379.021c1.842 0 3.44.866 4.305 2.375.288.51.799 1.62.799 3.817v9.342h-3.529V7.234c0-1.686-.177-2.374-.333-2.685-.222-.577-.754-1.331-2.02-1.331-.864 0-1.619.466-2.085 1.11-.621.865-.688 2.152-.688 3.439v7.79H40.3V7.233c0-1.686-.178-2.374-.333-2.685-.222-.577-.755-1.331-2.02-1.331-.865 0-1.62.466-2.086 1.11-.621.865-.688 2.152-.688 3.439v7.79h-3.44V.421z" fill="#041027"/></svg>