<svg width="28" height="32" fill="none" xmlns="http://www.w3.org/2000/svg"><path d="M26.628 24.938a17.358 17.358 0 0 1-1.736 3.093c-.913 1.29-1.66 2.183-2.237 2.678-.893.814-1.85 1.231-2.874 1.255-.735 0-1.622-.208-2.654-.628-1.037-.42-1.987-.627-2.858-.627-.913 0-1.892.208-2.94.627-1.049.42-1.894.64-2.54.661-.982.042-1.96-.387-2.94-1.288-.623-.539-1.402-1.463-2.34-2.773-1.002-1.398-1.827-3.02-2.473-4.868C.346 21.07 0 19.138 0 17.265c0-2.145.468-3.994 1.405-5.545a8.181 8.181 0 0 1 2.942-2.946 7.987 7.987 0 0 1 3.976-1.112c.781 0 1.804.239 3.075.709 1.268.472 2.083.71 2.44.71.267 0 1.172-.28 2.705-.837 1.45-.517 2.674-.73 3.675-.648 2.716.218 4.757 1.278 6.115 3.19-2.43 1.46-3.632 3.502-3.608 6.123.022 2.043.77 3.741 2.238 5.09a7.362 7.362 0 0 0 2.237 1.454c-.182.517-.371 1.011-.572 1.485zM20.398.642c0 1.6-.59 3.095-1.767 4.478-1.419 1.643-3.135 2.593-4.996 2.443a4.883 4.883 0 0 1-.038-.607c0-1.536.676-3.18 1.873-4.525.598-.681 1.36-1.246 2.282-1.698C18.673.288 19.544.04 20.363 0c.024.215.034.43.034.642z" fill="#041027"/></svg>