<svg id="Layer_1" xmlns="http://www.w3.org/2000/svg" width="1321.1" height="293.3" viewBox="0 0 1321.1 293.3"><style>.st0,.st1,.st2,.st3,.st4{fill:none;stroke:#e5e7ea;stroke-width:3;stroke-linecap:round;stroke-miterlimit:10}.st1,.st2,.st3,.st4{stroke:#fb8532}.st2,.st3,.st4{stroke:#ffd33d}.st3,.st4{stroke:#ea4a5a}.st4{stroke:#8a64d2}</style><path class="st0" d="M1277.5 444V302.7c0-10.4-8.4-18.8-18.8-18.8h-45.6c-10.4 0-18.8-8.4-18.8-18.8v-9.8M1392.4 527.2h-95.6c-10.4 0-18.8-8.4-18.8-18.8v-22.8M956.1 132.6V55c0-10.4 8.4-18.8 18.8-18.8h34.4c10.4 0 18.8-8.4 18.8-18.8v-34.3M1256.5 106l-76.3-.2c-10.4 0-18.8-8.4-18.7-18.8l.1-27.1c0-10.4-8.4-18.8-18.7-18.8h-4.3M1053.1 203.2l.2-143.3c0-10.4 8.4-18.8 18.8-18.7l24.1.1M1299 106h14.3c10.4 0 18.8 8.4 18.8 18.8v115.6c0 10.4 8.4 18.8 18.8 18.8h41.3"/><path class="st0" d="M1194.3 214.1v-14c0-10.4-8.4-18.8-18.8-18.8h-103.7c-10.4 0-18.8 8.4-18.8 18.8v14M1394.3-54.3h-133.9c-10.4 0-18.8 8.4-18.8 18.8v58c0 10.4-8.4 18.8-18.7 18.8h-84.4M1277.5 302.7V126.5"/><path class="st0" d="M1098.9 181.3c10.4 0 18.8-8.4 18.8-18.8V62.1"/><path class="st1" d="M1041.7 248.3h21.7c1.7 0 3-1.3 3-3v-21.7c0-1.6-1.3-3-3-3h-21.7c-1.7 0-3 1.4-3 3v21.7c0 1.7 1.4 3 3 3z"/><path class="st2" d="M945.3 168.5H967c1.6 0 3-1.4 3-3v-21.7c0-1.6-1.4-3-3-3h-21.7c-1.6 0-3 1.4-3 3v21.7c0 1.7 1.3 3 3 3z"/><path class="st0" d="M1106.8 27.3h21.7c1.7 0 3 1.4 3 3V52c0 1.7-1.3 3-3 3h-21.7c-1.7 0-3-1.3-3-3V30.3c0-1.6 1.4-3 3-3z"/><path class="st3" d="M1266.6 451.1h21.7c1.7 0 3 1.4 3 3v21.7c0 1.6-1.3 3-3 3h-21.7c-1.7 0-3-1.4-3-3v-21.7c0-1.6 1.4-3 3-3z"/><path class="st4" d="M1266.6 92.1h21.7c1.7 0 3 1.3 3 3v21.7c0 1.6-1.3 3-3 3h-21.7c-1.7 0-3-1.4-3-3V95.1c0-1.6 1.4-3 3-3z"/><path class="st0" d="M1183.4 248.3h21.7c1.7 0 3-1.3 3-3v-21.7c0-1.6-1.3-3-3-3h-21.7c-1.7 0-3 1.4-3 3v21.7c0 1.7 1.4 3 3 3zM978.5 105.6h-9.6M945.6 105.6h-18.1M931 144.8h-41.2M942 184.1h-45.2M1032.7 164.5h-51.5M926.7 164.5h-12.4M1098.9 161.7h-17.3M1217.5 161.7h-79M1254.4 220.6h-29.7M1314.2 220.5H1289M1393.1 240.5h-44.2M1393.1 221h-28.5M1264.5 201h-54.1M1173.1 142.1h-23.7M1201.5 142.1h-12.2M1100-34.7h-53.7M1186.7-34.7h-49.8M1229.7-34.7h-26.2M1313.3-34.7h-54.8M1289-15h-24.1M1220.3-15h-43.8M1222.7-54.3h-29.2M1117.7-74.1v93.8M844.3-132.7c0 10.4 8.4 18.8 18.8 18.8h235.8c10.4 0 18.8 8.4 18.8 18.8M1229.8 331.4h-52.5M1214.9 351h47.7M1293.6 351h58.8M1338.7 370.6h-36.3M1313.4 390.2h-14M1259.4 331.4h-14M1237.4 468.4h10.6M1258.5 488h-74.3M1341.3 488H1311M1253.3 507.6h-33.2M1319.4 507.6h-23.8M1386.8 507.6h-51.7M1158.1 142.1l19.5 19.6M1316.4 370.5l19.5-19.5M1229.6 201.8c0 10.4 8.4 18.8 18.8 18.8M1196.9-15c10.4 0 18.8-8.4 18.8-18.8"/></svg>